<svg xmlns="http://www.w3.org/2000/svg" width="30.554" height="30.554" viewBox="0 0 30.554 30.554">
  <g id="noun-cloud-3434202" transform="translate(-87.514 -17.504)">
    <path id="Path_478" data-name="Path 478" d="M117.558,36.855a.509.509,0,0,0,.509-.509V32.271a.509.509,0,0,0-.509-.509H102.281a.509.509,0,0,0-.509.509V33.8H99.226V31.253h8.148a4.074,4.074,0,1,0-1.634-7.8,7.122,7.122,0,0,0-13.193-2.38,5.092,5.092,0,0,0-.45,10.159V45.512a.509.509,0,0,0,.509.509h9.166v1.528a.509.509,0,0,0,.509.509h15.277a.509.509,0,0,0,.509-.509V43.475a.509.509,0,0,0-.509-.509h-.509v-.509h.509a.509.509,0,0,0,.509-.509V37.873a.509.509,0,0,0-.509-.509h-.509v-.509ZM102.79,32.781h14.259v3.055H102.79Zm-4.074,2.037h3.055v1.528a.509.509,0,0,0,.509.509h.509v.509h-.509a.509.509,0,0,0-.509.509V39.4h-5.6V31.253h2.037v3.055a.509.509,0,0,0,.509.509ZM88.532,26.161a4.079,4.079,0,0,1,4.074-4.074c.042,0,.082,0,.123.006l.087.005a.5.5,0,0,0,.478-.274A6.1,6.1,0,0,1,104.81,24.3a.509.509,0,0,0,.8.389,3.055,3.055,0,1,1,1.761,5.549H99.226V29.122a1.528,1.528,0,1,0-1.018,0v1.112H96.17v-2.64a1.528,1.528,0,1,0-1.018,0v2.64H93.115V26.067a1.528,1.528,0,1,0-1.018,0V30.2h0a4.078,4.078,0,0,1-3.565-4.039Zm9.676,1.528a.509.509,0,1,1,.509.509A.509.509,0,0,1,98.207,27.688Zm-3.055-1.528a.509.509,0,1,1,.509.509A.509.509,0,0,1,95.152,26.161ZM92.1,24.633a.509.509,0,1,1,.509.509A.509.509,0,0,1,92.1,24.633Zm9.676,18.842V45H93.115V31.253h2.037V39.91a.509.509,0,0,0,.509.509h6.111v1.528a.509.509,0,0,0,.509.509h.509v.509h-.509A.509.509,0,0,0,101.772,43.475Zm15.277,3.565H102.79V43.984h14.259Zm-1.018-4.074H103.809v-.509h12.222Zm1.018-1.528H102.79V38.382h14.259Zm-1.018-4.074H103.809v-.509h12.222Z" transform="translate(0)"/>
    <path id="Path_479" data-name="Path 479" d="M376.25,297.5h1.018v1.018H376.25Z" transform="translate(-271.932 -263.701)"/>
    <path id="Path_480" data-name="Path 480" d="M411.25,297.5h1.018v1.018H411.25Z" transform="translate(-304.895 -263.701)"/>
    <path id="Path_481" data-name="Path 481" d="M446.25,297.5h1.018v1.018H446.25Z" transform="translate(-337.858 -263.701)"/>
    <path id="Path_482" data-name="Path 482" d="M376.25,393.75h1.018v1.018H376.25Z" transform="translate(-271.932 -354.349)"/>
    <path id="Path_483" data-name="Path 483" d="M411.25,393.75h1.018v1.018H411.25Z" transform="translate(-304.895 -354.349)"/>
    <path id="Path_484" data-name="Path 484" d="M446.25,393.75h1.018v1.018H446.25Z" transform="translate(-337.858 -354.349)"/>
    <path id="Path_485" data-name="Path 485" d="M376.25,490h1.018v1.018H376.25Z" transform="translate(-271.932 -444.998)"/>
    <path id="Path_486" data-name="Path 486" d="M411.25,490h1.018v1.018H411.25Z" transform="translate(-304.895 -444.998)"/>
    <path id="Path_487" data-name="Path 487" d="M446.25,490h1.018v1.018H446.25Z" transform="translate(-337.858 -444.998)"/>
  </g>
</svg>
