<svg xmlns="http://www.w3.org/2000/svg" width="31.094" height="40" viewBox="0 0 31.094 40">
  <g id="noun_City_2768390" transform="translate(-291.653 -225.549)">
    <g id="Group_116" data-name="Group 116" transform="translate(291.653 225.549)">
      <g id="Group_115" data-name="Group 115" transform="translate(0)">
        <g id="Group_113" data-name="Group 113">
          <path id="Path_36" data-name="Path 36" d="M83.534,4.554a15.547,15.547,0,0,0-26.54,10.99c0,2.961,1.512,6.331,4.9,10.927,1.415,1.919,3.039,3.9,4.608,5.807,2.084,2.537,4.229,5.149,5.97,7.722,1.8-2.649,4-5.3,6.145-7.875.8-.956,1.619-1.945,2.4-2.912,4.242-5.237,7.067-9.565,7.067-13.668A15.438,15.438,0,0,0,83.534,4.554Zm-10.989,23.1A12.53,12.53,0,0,1,59.959,15.212a12.583,12.583,0,0,1,25.165,0A12.526,12.526,0,0,1,72.545,27.656Z" transform="translate(-56.994 0)"/>
        </g>
        <g id="Group_114" data-name="Group 114" transform="translate(8.364 6.547)">
          <path id="Path_37" data-name="Path 37" d="M164.06,163.014h1.131V152.651a.188.188,0,1,1,.377,0v10.363h1.13V152.651a.188.188,0,0,1,.377,0v10.363h1.13V151.332H164.06Z" transform="translate(-164.06 -146.056)"/>
          <rect id="Rectangle_71" data-name="Rectangle 71" width="6.406" height="1.13" transform="translate(6.029)"/>
          <rect id="Rectangle_72" data-name="Rectangle 72" width="2.638" height="3.391" transform="translate(7.914 13.566)"/>
          <path id="Path_38" data-name="Path 38" d="M230.044,103.1h-8.1v15.45h3.015v-3.58a.188.188,0,0,1,.188-.189h3.014a.188.188,0,0,1,.188.189v3.58h3.015V103.1Zm-6.029,10.74h-.754v-.754h.754Zm0-1.507h-.754v-.754h.754Zm0-1.507h-.754v-.754h.754Zm0-1.507h-.754v-.754h.754Zm0-1.507h-.754v-.754h.754Zm0-1.507h-.754v-.754h.754Zm0-1.507h-.754v-.754h.754Zm1.507,9.044h-.754v-.754h.754Zm0-1.507h-.754v-.754h.754Zm0-1.507h-.754v-.754h.754Zm0-1.507h-.754v-.754h.754Zm0-1.507h-.754v-.754h.754Zm0-1.507h-.754v-.754h.754Zm0-1.507h-.754v-.754h.754Zm1.507,9.044h-.754v-.754h.754Zm0-1.507h-.754v-.754h.754Zm0-1.507h-.754v-.754h.754Zm0-1.507h-.754v-.754h.754Zm0-1.507h-.754v-.754h.754Zm0-1.507h-.754v-.754h.754Zm0-1.507h-.754v-.754h.754Zm1.507,9.044h-.754v-.754h.754Zm0-1.507h-.754v-.754h.754Zm0-1.507h-.754v-.754h.754Zm0-1.507h-.754v-.754h.754Zm0-1.507h-.754v-.754h.754Zm0-1.507h-.754v-.754h.754Zm0-1.507h-.754v-.754h.754Zm1.507,9.044h-.754v-.754h.754Zm0-1.507h-.754v-.754h.754Zm0-1.507h-.754v-.754h.754Zm0-1.507h-.754v-.754h.754Zm0-1.507h-.754v-.754h.754Zm0-1.507h-.754v-.754h.754Zm0-1.507h-.754v-.754h.754Z" transform="translate(-217.42 -101.59)"/>
        </g>
      </g>
    </g>
  </g>
</svg>
