<svg xmlns="http://www.w3.org/2000/svg" width="31.224" height="28.546" viewBox="0 0 31.224 28.546">
  <g id="noun-management-1796797" transform="translate(-75.35 -26.461)">
    <path id="Path_464" data-name="Path 464" d="M106.324,26.711H75.6V46.72H86.3L82.656,52.7l.536.326,3.848-6.311h3.609v8.038h.627V46.72h3.61l3.848,6.311.535-.326L95.62,46.72h10.7ZM105.7,46.093H76.227V27.338H105.7Z" stroke="#000" stroke-width="0.5"/>
    <path id="Path_465" data-name="Path 465" d="M135.59,89.531v1.5h8.465v-1.5c3-.124,4.188-2.021,4.3-3.906h3.93V82.02H148.37v-1.8h3.919V76.612h-8.465V78.1h-8V76.612H127.36v3.605h3.919v1.8H127.36v3.605h3.931C131.406,87.509,132.59,89.405,135.59,89.531Zm7.838.875h-7.211V88.055h7.211Zm.627-1.5V87.428H135.59v1.479c-2.23-.1-3.547-1.278-3.671-3.281h3.906V84.136h8v1.489h3.906C147.607,87.63,146.287,88.808,144.054,88.907ZM151.662,85h-7.211V82.647h7.211Zm-7.211-7.759h7.211V79.59h-7.211Zm-16.464,0H135.2V79.59h-7.211Zm3.919,2.978h3.919V78.728h8v1.489h3.919v1.8h-3.919v1.489h-8V82.02h-3.919Zm-3.919,2.43H135.2V85h-7.211Z" transform="translate(-48.862 -47.107)" stroke="#000" stroke-width="0.5"/>
  </g>
</svg>
