<svg xmlns="http://www.w3.org/2000/svg" width="17.129" height="17.129" viewBox="0 0 17.129 17.129">
  <g id="noun_note_1793581" transform="translate(-5 -5)">
    <path id="Path_46" data-name="Path 46" d="M59.381,30.955a1.111,1.111,0,0,0-1.572,0l-6.4,6.406,1.572,1.574,6.4-6.406A1.113,1.113,0,0,0,59.381,30.955Z" transform="translate(-37.577 -20.751)" fill="#fff"/>
    <path id="Path_47" data-name="Path 47" d="M15.4,19.522l-.364.364-.274.274-.381.069-1.644.291a1.035,1.035,0,0,1-.19.017,1.079,1.079,0,0,1-1.064-1.262l.24-1.347H6.983v-.952h5.139l.364-.365,1.269-1.273H6.983v-.952h7.723l2.255-2.257V9a.615.615,0,0,0-.181-.434L13.4,5.179A.62.62,0,0,0,12.969,5H5.719A.719.719,0,0,0,5,5.719v15.69a.719.719,0,0,0,.719.719H16.242a.719.719,0,0,0,.719-.719V17.965l-.719.719Zm-1.9-12.9L15.336,8.46H13.5Zm-1.713-.674h.761V8.692a.719.719,0,0,0,.719.719H16.01v.761H13.269a1.483,1.483,0,0,1-1.481-1.481ZM6.983,9.221H11.09a2.234,2.234,0,0,0,.5.952H6.983Zm0,2.581h7.993v.952H6.983Zm3.6,8.7h-3.6v-.952h3.6Z" fill="#fff"/>
    <path id="Path_48" data-name="Path 48" d="M44.73,69.49l-.358.365a.268.268,0,0,0-.078.15l-.3,1.642a.129.129,0,0,0,.15.15l1.642-.293a.268.268,0,0,0,.15-.078l.367-.365Z" transform="translate(-31.569 -52.216)" fill="#fff"/>
  </g>
</svg>
