<svg xmlns="http://www.w3.org/2000/svg" width="32.204" height="31.819" viewBox="0 0 32.204 31.819">
  <g id="noun-database-2604055" transform="translate(-105.327 -39.124)">
    <path id="Path_466" data-name="Path 466" d="M378.33,203.813h-6.181a.279.279,0,0,1-.278-.3l.392-6.268a.279.279,0,0,1,.1-.2l8.072-6.8a1.814,1.814,0,0,1,2.289-.035V183.5a1.943,1.943,0,0,1,3.886,0v10.918a.279.279,0,0,1-.1.21l-7.531,6.589-.376,2.364a.28.28,0,0,1-.276.235Zm-5.884-.557h5.646l.355-2.229a.279.279,0,0,1,.092-.166l7.511-6.573V183.5a1.385,1.385,0,1,0-2.771,0v7.471a1.811,1.811,0,0,1-.457,2.008L378.435,197a.279.279,0,0,1-.377-.411l4.387-4.022a1.253,1.253,0,0,0,.352-1.286.278.278,0,0,1-.076-.191h0a1.253,1.253,0,0,0-1.929-.4l-7.98,6.721Z" transform="translate(-249.326 -133.121)" stroke="#000" stroke-width="0.5"/>
    <path id="Path_467" data-name="Path 467" d="M417.678,484.3a.279.279,0,0,1-.019-.557l3.672-.255a.279.279,0,0,1,.039.556l-3.672.255Z" transform="translate(-291.954 -415.819)" stroke="#000" stroke-width="0.5"/>
    <path id="Path_468" data-name="Path 468" d="M120.036,203.827h-6.18a.279.279,0,0,1-.275-.235l-.376-2.364-7.531-6.589a.279.279,0,0,1-.1-.21V183.511a1.943,1.943,0,1,1,3.886,0v6.725a1.814,1.814,0,0,1,2.289.035l8.072,6.8a.278.278,0,0,1,.1.2l.392,6.268a.278.278,0,0,1-.278.3Zm-5.943-.558h5.646l-.366-5.852-7.98-6.721a1.253,1.253,0,0,0-1.929.4h0a.277.277,0,0,1-.076.191,1.253,1.253,0,0,0,.352,1.286l4.388,4.022a.279.279,0,1,1-.377.411l-4.388-4.022a1.811,1.811,0,0,1-.457-2.008v-7.47a1.385,1.385,0,0,0-2.771,0V194.3l7.511,6.573a.279.279,0,0,1,.092.166Z" transform="translate(0 -133.134)" stroke="#000" stroke-width="0.5"/>
    <path id="Path_469" data-name="Path 469" d="M228.92,484.3h-.02l-3.672-.255a.279.279,0,1,1,.039-.556l3.672.255a.279.279,0,0,1-.019.557Z" transform="translate(-111.785 -415.816)" stroke="#000" stroke-width="0.5"/>
    <path id="Path_470" data-name="Path 470" d="M268.542,44.732a11.206,11.206,0,0,1-4.18-.725c-1.2-.5-1.859-1.193-1.859-1.954s.66-1.455,1.859-1.954a11.206,11.206,0,0,1,4.18-.725c3.062,0,6.366,1.024,6.366,2.679S271.6,44.732,268.542,44.732Zm0-4.8c-3.279,0-5.481,1.1-5.481,2.121s2.2,2.121,5.481,2.121c3.324,0,5.808-1.12,5.808-2.121S271.866,39.932,268.542,39.932Z" transform="translate(-146.927)" stroke="#000" stroke-width="0.5"/>
    <path id="Path_471" data-name="Path 471" d="M268.542,134.41a11.206,11.206,0,0,1-4.18-.725c-1.2-.5-1.859-1.193-1.859-1.954a.279.279,0,0,1,.558,0c0,1.024,2.2,2.121,5.481,2.121,3.324,0,5.808-1.12,5.808-2.121a.279.279,0,0,1,.558,0C274.908,133.386,271.6,134.41,268.542,134.41Z" transform="translate(-146.927 -86.211)" stroke="#000" stroke-width="0.5"/>
    <path id="Path_472" data-name="Path 472" d="M268.542,186.77a11.206,11.206,0,0,1-4.18-.725c-1.2-.5-1.859-1.193-1.859-1.954a.279.279,0,0,1,.558,0c0,1.024,2.2,2.121,5.481,2.121,3.324,0,5.808-1.12,5.808-2.121a.279.279,0,0,1,.558,0C274.908,185.745,271.6,186.77,268.542,186.77Z" transform="translate(-146.927 -135.235)" stroke="#000" stroke-width="0.5"/>
    <path id="Path_473" data-name="Path 473" d="M268.542,239.21a11.211,11.211,0,0,1-4.18-.725c-1.2-.5-1.859-1.193-1.859-1.954a.279.279,0,0,1,.558,0c0,1.024,2.2,2.121,5.481,2.121,3.324,0,5.808-1.12,5.808-2.121a.279.279,0,0,1,.558,0C274.908,238.185,271.6,239.21,268.542,239.21Z" transform="translate(-146.927 -184.334)" stroke="#000" stroke-width="0.5"/>
    <path id="Path_474" data-name="Path 474" d="M268.542,93.67a11.254,11.254,0,0,1-4.156-.715c-1.179-.486-1.845-1.161-1.881-1.9a.294.294,0,0,1,0-.033V77.33a.279.279,0,0,1,.558,0c0,1.024,2.2,2.121,5.481,2.121,3.324,0,5.808-1.12,5.808-2.121a.279.279,0,0,1,.558,0V91.021a.3.3,0,0,1,0,.033c-.08,1.617-3.354,2.617-6.364,2.617ZM263.06,91s0,.01,0,.014c.029,1.014,2.237,2.1,5.481,2.1,3.29,0,5.78-1.109,5.808-2.1,0,0,0-.01,0-.014V78.44c-1.069.99-3.508,1.568-5.808,1.568a11.206,11.206,0,0,1-4.18-.725,4.2,4.2,0,0,1-1.3-.8Z" transform="translate(-146.927 -35.277)" stroke="#000" stroke-width="0.5"/>
    <path id="Path_475" data-name="Path 475" d="M378.55,73.109H379.8v1.247H378.55Z" transform="translate(-255.58 -31.586)" stroke="#000" stroke-width="0.5"/>
    <path id="Path_476" data-name="Path 476" d="M349.2,73.109h1.247v1.247H349.2Z" transform="translate(-228.1 -31.586)" stroke="#000" stroke-width="0.5"/>
    <path id="Path_477" data-name="Path 477" d="M319.84,73.109h1.247v1.247H319.84Z" transform="translate(-200.611 -31.586)" stroke="#000" stroke-width="0.5"/>
  </g>
</svg>
