<svg id="Layer_1" data-name="Layer 1" xmlns="http://www.w3.org/2000/svg" xmlns:xlink="http://www.w3.org/1999/xlink" viewBox="0 0 1198 438"><defs><style>.cls-1{fill:none;}.cls-2{clip-path:url(#clip-path);}.cls-3{fill:#e8e8e8;}.cls-4{fill:#656363;}.cls-5,.cls-8{isolation:isolate;}.cls-5{opacity:0.93;fill:url(#linear-gradient);}.cls-6{clip-path:url(#clip-path-2);}.cls-7{opacity:0.1;}.cls-8{opacity:0.58;}</style><clipPath id="clip-path"><rect class="cls-1" width="1198" height="438"/></clipPath><linearGradient id="linear-gradient" x1="29.28" y1="378.76" x2="29.72" y2="378.33" gradientTransform="matrix(1401.45, 0, 0, -901.44, -40611.56, 341326.27)" gradientUnits="userSpaceOnUse"><stop offset="0" stop-color="#0f0f0f"/><stop offset="1"/></linearGradient><clipPath id="clip-path-2"><rect class="cls-1" x="940" y="180" width="258" height="258" rx="8"/></clipPath></defs><g class="cls-2"><g id="Group_775" data-name="Group 775"><g id="photo_video" data-name="photo video"><g id="Bitmap"><rect id="Mask-3" class="cls-3" width="1198" height="438" rx="8"/><g id="Bitmap-2"><g id="Group_9" data-name="Group 9"><path id="Path_4" data-name="Path 4" class="cls-4" d="M1227.9-277.6s108.2,445.3-493,539.4S.3,506.7.3,506.7V-426.4H1227.9Z"/><path id="Path_3" data-name="Path 3" class="cls-5" d="M1.4,521.6s389.9,14.6,734.2-288.4S1402.8-93.1,1402.8-93.1V-379.7H1.4Z"/></g></g></g></g><g class="cls-6"><g id="Mobile_Design" data-name="Mobile Design" class="cls-7"><g id="Group_2" data-name="Group 2"><path id="Fill_556" data-name="Fill 556" class="cls-8" d="M1199.7,462.4l-57.8,30.9v-162l57.8-30.9v162"/><path id="Fill_557" data-name="Fill 557" d="M1118.7,482.3a1.5,1.5,0,0,1-.9-.2l-58.9-31a2.1,2.1,0,0,1-1-1.7V286.5a1.8,1.8,0,0,1,1-1.6,1.9,1.9,0,0,1,1.9-.1l58.9,31.1a1.8,1.8,0,0,1,1,1.6V480.4a2.1,2.1,0,0,1-1,1.7A1.6,1.6,0,0,1,1118.7,482.3Zm-57-192.2V448l55.2,28.8V319Z"/><path id="Fill_558" data-name="Fill 558" d="M1118.5,482.3a1.6,1.6,0,0,1-1-.2,2.1,2.1,0,0,1-1-1.7V317.5a1.8,1.8,0,0,1,1-1.6l58.9-31.1a1.9,1.9,0,0,1,1.9.1,1.8,1.8,0,0,1,1,1.6V449.4a2.1,2.1,0,0,1-1,1.7l-58.9,31A1.5,1.5,0,0,1,1118.5,482.3Zm57-192.2L1120.3,319V476.8l55.2-28.8Z"/><path id="Fill_559" data-name="Fill 559" d="M1117.6,319.2a1.5,1.5,0,0,1-.9-.2l-57.8-31.3a1.9,1.9,0,0,1-.8-2.6,1.8,1.8,0,0,1,.8-.7l57.8-31.8.9-.2,1,.2,57.8,31.5a2,2,0,0,1,.8,2.6l-.8.8L1118.6,319A1.6,1.6,0,0,1,1117.6,319.2Zm0-61.2-54,28.9,54,28.6,54.1-28.8Z"/></g></g></g></g></g></svg>