<svg xmlns="http://www.w3.org/2000/svg" width="121.84" height="130.392" viewBox="0 0 121.84 130.392">
  <g id="Group_789" data-name="Group 789" transform="translate(-1610.16 -1224.608)">
    <circle id="Ellipse_1" data-name="Ellipse 1" cx="38.5" cy="38.5" r="38.5" transform="translate(1655 1255)" fill="#efefef"/>
    <path id="Path_1" data-name="Path 1" d="M260.141,35a8.8,8.8,0,0,0-8.959,8.959v38.9A16.585,16.585,0,0,0,236.25,99.2v19.114a31.034,31.034,0,0,0,7.169,20.006l5.371,6.27a10.45,10.45,0,0,1,2.392,6.574v3.284h53.755v-3.581a20.086,20.086,0,0,1,1.2-7.169l5.371-15.831a54.363,54.363,0,0,0,2.392-15.527V88.752a8.8,8.8,0,0,0-8.959-8.959,8.925,8.925,0,0,0-5.973,2.24v-2.24a8.8,8.8,0,0,0-8.959-8.959,8.93,8.93,0,0,0-6.037,2.292,8.758,8.758,0,0,0-8.9-8.265A8.925,8.925,0,0,0,269.1,67.1V43.957A8.8,8.8,0,0,0,260.141,35Zm-1.493,3.2v8.743a1.411,1.411,0,0,0,1.493,1.493,1.6,1.6,0,0,0,1.493-1.493V38.2a5.974,5.974,0,0,1,4.48,5.757V97.713a1.493,1.493,0,1,0,2.986,0V73.821a5.973,5.973,0,0,1,11.946,0v29.864a1.493,1.493,0,1,0,2.986,0V79.794a5.973,5.973,0,0,1,11.946,0v29.864a1.493,1.493,0,0,0,2.986,0v-20.9a5.973,5.973,0,1,1,11.946,0v23.594a48.45,48.45,0,0,1-2.392,14.635l-5.371,15.824a25.179,25.179,0,0,0-1.2,8.067v3.581H254.168v-2.986a12.759,12.759,0,0,0-2.986-8.662l-5.378-6.27a28.984,28.984,0,0,1-6.567-18.216V99.206a13.8,13.8,0,0,1,11.946-13.439v29.864a1.493,1.493,0,1,0,2.986,0V43.957a5.974,5.974,0,0,1,4.48-5.757Z" transform="translate(1373.91 1189.61)" opacity="0.109"/>
    <ellipse id="Ellipse_2" data-name="Ellipse 2" cx="16" cy="16.5" rx="16" ry="16.5" transform="translate(1665 1322)"/>
  </g>
</svg>
