<svg xmlns="http://www.w3.org/2000/svg" xmlns:xlink="http://www.w3.org/1999/xlink" width="275" height="281" viewBox="0 0 275 281">
  <defs>
    <clipPath id="clip-path">
      <rect id="Rectangle_255" data-name="Rectangle 255" width="275" height="281" transform="translate(1967 4081)" fill="#fff" stroke="#707070" stroke-width="1"/>
    </clipPath>
  </defs>
  <g id="Mask_Group_10" data-name="Mask Group 10" transform="translate(-1967 -4081)" clip-path="url(#clip-path)">
    <g id="Component_3_1" data-name="Component 3 – 1" transform="translate(1974.235 4113.978)">
      <g id="Group_836" data-name="Group 836" transform="translate(-1749.516 -4149.326)" opacity="0.033">
        <g id="Group_822" data-name="Group 822" transform="translate(1863.911 4149.327)">
          <path id="Path_435" data-name="Path 435" d="M303.23,340.8a5.426,5.426,0,0,0-2.583,4.65V536.105H190.6V348.553a4.691,4.691,0,0,0-1.55-3.617l-5.167-5.167c-15.5-15.5-52.184-51.151-46.5-75.951,2.583-9.817,11.367-17.567,26.867-23.25V272.6a5.167,5.167,0,1,0,10.333,0V116.05a13.95,13.95,0,1,1,27.9,0V233.335a5.167,5.167,0,0,0,10.334,0V210.6a13.95,13.95,0,0,1,27.9,0v25.317a5.167,5.167,0,1,0,10.333,0V213.7a13.95,13.95,0,1,1,27.9,0v26.867a5.167,5.167,0,1,0,10.333,0V220.935a13.95,13.95,0,1,1,27.9,0v88.351h0C317.18,332.536,303.747,340.286,303.23,340.8Z" transform="translate(-126.145 -92.283)"/>
          <g id="Group_821" data-name="Group 821">
            <g id="Group_816" data-name="Group 816" transform="translate(0 135.786)">
              <path id="Path_436" data-name="Path 436" d="M178.417,394.886V185.117c5.167-4.133,17.05-15.5,17.05-38.751A5.177,5.177,0,0,0,190.3,141.2a5.556,5.556,0,0,0-5.167,5.167c0,23.25-13.434,31-13.95,31.517a5.426,5.426,0,0,0-2.583,4.65V394.887h9.817Z" transform="translate(6.418 -65.15)" fill="#dfdfdf"/>
              <path id="Path_437" data-name="Path 437" d="M185.226,245.931c1.033,1.033,2.583,2.067,3.617,3.1V455.7h10.333V246.448a4.691,4.691,0,0,0-1.55-3.617l-5.167-5.167c-15.5-15.5-52.184-51.151-46.5-75.951,2.583-10.85,13.434-19.117,32.034-24.8a5.394,5.394,0,1,0-3.1-10.333c-22.217,6.717-35.65,17.567-39.267,32.55C128.392,190.647,166.625,227.848,185.226,245.931Z" transform="translate(-134.726 -126.481)" fill="#dfdfdf"/>
            </g>
            <g id="Group_817" data-name="Group 817" transform="translate(38.1)">
              <path id="Path_438" data-name="Path 438" d="M147.267,286.2a5.178,5.178,0,0,1-5.167-5.167V124.484a24.284,24.284,0,0,1,48.567,0V241.768a5.167,5.167,0,0,1-10.334,0V124.484a13.95,13.95,0,0,0-27.9,0V281.036C152.95,283.619,150.367,286.2,147.267,286.2Z" transform="translate(-142.1 -100.2)" fill="#dfdfdf"/>
            </g>
            <g id="Group_818" data-name="Group 818" transform="translate(76.85 94.035)">
              <path id="Path_439" data-name="Path 439" d="M193,170.584a5.178,5.178,0,0,1-5.167-5.167V142.684a13.95,13.95,0,1,0-27.9,0V164.9a5.167,5.167,0,0,1-10.333,0V142.684a24.284,24.284,0,1,1,48.567,0v22.734A5.178,5.178,0,0,1,193,170.584Z" transform="translate(-149.6 -118.4)" fill="#dfdfdf"/>
            </g>
            <g id="Group_819" data-name="Group 819" transform="translate(115.084 97.135)">
              <path id="Path_440" data-name="Path 440" d="M200.4,175.317a5.178,5.178,0,0,1-5.167-5.167V143.284a13.95,13.95,0,1,0-27.9,0v22.734a5.167,5.167,0,0,1-10.333,0V143.284a24.284,24.284,0,1,1,48.567,0v26.867A5.177,5.177,0,0,1,200.4,175.317Z" transform="translate(-157 -119)" fill="#dfdfdf"/>
            </g>
            <g id="Group_820" data-name="Group 820" transform="translate(153.318 104.368)">
              <path id="Path_441" data-name="Path 441" d="M207.8,238.2a5.178,5.178,0,0,1-5.167-5.167V144.684a13.95,13.95,0,0,0-27.9,0v19.634a5.167,5.167,0,1,1-10.333,0V144.684a24.284,24.284,0,0,1,48.567,0v88.351A5.177,5.177,0,0,1,207.8,238.2Z" transform="translate(-164.4 -120.4)" fill="#dfdfdf"/>
            </g>
          </g>
          <path id="Path_442" data-name="Path 442" d="M151.13,104.15c2.583,1.55,3.1,3.617,3.1,10.85s1.033,13.95,1.033,17.567-2.583,7.233-5.167,6.717-4.133-3.617-3.617-8.267,1.033-11.884,1.033-16.017S148.03,102.083,151.13,104.15Z" transform="translate(-86.163 -85.033)" fill="#dfdfdf"/>
        </g>
        <g id="Group_829" data-name="Group 829" transform="translate(1749.516 4277.641)">
          <path id="Path_443" data-name="Path 443" d="M216.308,278.487a3.68,3.68,0,0,0-1.748,3.06v120.2H145.5V283.732a3.339,3.339,0,0,0-.874-2.185l-3.06-3.06c-10.053-9.616-32.782-32.345-29.285-48.081q1.967-9.179,17.047-14.424v20.106a3.5,3.5,0,1,0,6.994,0V137.742a8.742,8.742,0,0,1,17.484,0v73.432h0a3.5,3.5,0,0,0,6.994,0h0V197.187a8.742,8.742,0,1,1,17.484,0V213.8a3.448,3.448,0,0,0,3.5,3.5,3.217,3.217,0,0,0,3.5-3.5V198.935a8.742,8.742,0,1,1,17.484,0v16.61a3.5,3.5,0,0,0,6.994,0V203.306a8.742,8.742,0,0,1,17.484,0v55.511h0C225.05,273.242,216.308,278.487,216.308,278.487Z" transform="translate(-105.095 -122.006)" opacity="0.124"/>
          <g id="Group_828" data-name="Group 828">
            <g id="Group_823" data-name="Group 823" transform="translate(0 86.434)">
              <path id="Path_444" data-name="Path 444" d="M142.294,317.777v-132c3.5-2.623,10.49-9.616,10.49-24.477a3.5,3.5,0,0,0-6.994,0c0,14.424-8.742,19.669-8.742,19.669a3.68,3.68,0,0,0-1.748,3.06V317.777Z" transform="translate(-26.273 -111.356)"/>
              <path id="Path_445" data-name="Path 445" d="M141.581,221.592l2.186,2.185V354.033h6.556V222.466a3.339,3.339,0,0,0-.874-2.185l-3.06-3.06c-10.053-9.616-32.782-32.345-29.285-48.081,1.748-6.994,8.3-12.239,20.106-15.736a3.182,3.182,0,1,0-1.748-6.119c-13.987,4.371-22.292,10.927-24.477,20.544C106.176,186.625,130.216,210.228,141.581,221.592Z" transform="translate(-110.356 -147.174)"/>
            </g>
            <g id="Group_824" data-name="Group 824" transform="translate(23.356)">
              <path id="Path_446" data-name="Path 446" d="M119.2,244.542a3.448,3.448,0,0,1-3.5-3.5V142.7a15.3,15.3,0,1,1,30.6,0v73.869a3.5,3.5,0,0,1-6.994,0V142.7a8.742,8.742,0,0,0-17.484,0v98.347C122.694,242.793,120.945,244.542,119.2,244.542Z" transform="translate(-115.7 -127.4)"/>
            </g>
            <g id="Group_825" data-name="Group 825" transform="translate(46.96 59.445)">
              <path id="Path_447" data-name="Path 447" d="M149.074,173.782a3.448,3.448,0,0,1-3.5-3.5V156.3a8.742,8.742,0,0,0-17.484,0v13.987a3.5,3.5,0,1,1-6.994,0V156.3a15.3,15.3,0,1,1,30.6,0v13.987C152.571,172.471,150.823,173.782,149.074,173.782Z" transform="translate(-121.1 -141)"/>
            </g>
            <g id="Group_826" data-name="Group 826" transform="translate(71 61.631)">
              <path id="Path_448" data-name="Path 448" d="M154.574,176.9a3.448,3.448,0,0,1-3.5-3.5V156.8a8.742,8.742,0,1,0-17.484,0v13.987a3.448,3.448,0,0,1-3.5,3.5,3.217,3.217,0,0,1-3.5-3.5V156.8a15.3,15.3,0,0,1,30.6,0v16.61C158.071,175.156,156.76,176.9,154.574,176.9Z" transform="translate(-126.6 -141.5)"/>
            </g>
            <g id="Group_827" data-name="Group 827" transform="translate(95.04 66.002)">
              <path id="Path_449" data-name="Path 449" d="M160.074,216.369a3.448,3.448,0,0,1-3.5-3.5V157.8a8.742,8.742,0,1,0-17.484,0v12.239a3.448,3.448,0,0,1-3.5,3.5,3.217,3.217,0,0,1-3.5-3.5V157.8a15.3,15.3,0,0,1,30.6,0V213.31C163.571,215.058,162.26,216.369,160.074,216.369Z" transform="translate(-132.1 -142.5)"/>
            </g>
          </g>
          <path id="Path_450" data-name="Path 450" d="M121.371,130.359c1.748.874,1.748,2.186,2.185,6.994.437,4.371.874,8.742.874,11.365,0,2.185-1.748,4.371-3.06,3.934-1.748-.437-2.623-2.186-2.186-5.245s.874-7.431.437-10.053C119.186,134.293,119.186,129.048,121.371,130.359Z" transform="translate(-80.968 -118.12)"/>
        </g>
      </g>
    </g>
  </g>
</svg>
