<?xml version="1.0" encoding="utf-8"?>
<!-- Generator: Adobe Illustrator 25.4.1, SVG Export Plug-In . SVG Version: 6.00 Build 0)  -->
<svg version="1.1" id="Layer_1" xmlns="http://www.w3.org/2000/svg" xmlns:xlink="http://www.w3.org/1999/xlink" x="0px" y="0px"
	 viewBox="0 0 1957 2732" style="enable-background:new 0 0 1957 2732;" xml:space="preserve">
<style type="text/css">
	.st0{opacity:0.2;fill:none;stroke:#000000;stroke-width:3;stroke-miterlimit:10;stroke-dasharray:8;}
</style>
<image style="display:none;overflow:visible;" width="1004" height="1536" xlink:href="Screenshot 2021-10-08 at 10.45.21 AM.png"  transform="matrix(1.9462 0 0 1.9462 2.0145 -258.6711)">
</image>
<circle class="st0" cx="544.2" cy="2092.7" r="50.5"/>
<circle class="st0" cx="543.8" cy="2091.7" r="228.2"/>
<path class="st0" d="M526.6,2524.2c581.9-60.3,536.7-680.2,212.6-822.9c-219.7-96.7-475.8-21.5-583.8,193l188.3,87.6"/>
<path class="st0" d="M600.1,1870.5l156.2-444.2c358.7,118.6,553.3,505.6,434.6,864.3l-423.4-153.7"/>
<path class="st0" d="M-31.2,1116.4c365.7-199.2,1148.6-177.5,1483.5,437.3c288.9,530.4,93.1,1194.6-437.3,1483.5"/>
<line class="st0" x1="526.6" y1="2319.9" x2="526.6" y2="2524.2"/>
<line class="st0" x1="380.3" y1="1932.4" x2="0" y2="1472.9"/>
<line class="st0" x1="493.6" y1="1869" x2="0" y2="656.2"/>
<line class="st0" x1="668.5" y1="2282.8" x2="1039.1" y2="2732"/>
<line class="st0" x1="415.2" y1="2282.8" x2="186.4" y2="2732"/>
</svg>
