<?xml version="1.0" encoding="utf-8"?>
<!-- Generator: Adobe Illustrator 25.4.1, SVG Export Plug-In . SVG Version: 6.00 Build 0)  -->
<svg version="1.1" id="Layer_1" xmlns="http://www.w3.org/2000/svg" xmlns:xlink="http://www.w3.org/1999/xlink" x="0px" y="0px"
	 viewBox="0 0 162 46" style="enable-background:new 0 0 162 46;" xml:space="preserve">
<style type="text/css">
	.st0{enable-background:new    ;}
</style>
<g class="st0">
	<path d="M38.2,33h-4.8V20c0-1.4,0.1-3,0.2-4.6h-0.1c-0.3,1.3-0.5,2.3-0.7,2.9L27.7,33h-4l-5.2-14.6c-0.1-0.4-0.4-1.4-0.7-3h-0.1
		c0.1,2.1,0.2,4,0.2,5.6v12h-4.4V11.3h7.2l4.4,12.9c0.4,1,0.6,2.1,0.8,3.1h0.1c0.3-1.2,0.6-2.2,0.9-3.1l4.4-12.8h7V33z"/>
	<path d="M56.6,26.6H46.5c0.2,2.2,1.6,3.4,4.3,3.4c1.7,0,3.2-0.4,4.5-1.2v3.5c-1.4,0.8-3.3,1.2-5.6,1.2c-2.5,0-4.4-0.7-5.8-2.1
		c-1.4-1.4-2.1-3.3-2.1-5.8c0-2.6,0.7-4.6,2.2-6.1c1.5-1.5,3.3-2.3,5.5-2.3c2.3,0,4,0.7,5.2,2c1.2,1.3,1.9,3.2,1.9,5.5V26.6z
		 M52.2,23.7c0-2.2-0.9-3.3-2.7-3.3c-0.8,0-1.4,0.3-2,1c-0.6,0.6-0.9,1.4-1,2.4H52.2z"/>
	<path d="M69.6,21.8c-0.6-0.3-1.2-0.5-2-0.5c-1,0-1.9,0.4-2.4,1.1c-0.6,0.8-0.9,1.8-0.9,3.1V33h-4.8V17.5h4.8v2.9h0.1
		c0.8-2.1,2.1-3.1,4.1-3.1c0.5,0,0.9,0.1,1.2,0.2V21.8z"/>
	<path d="M84.7,33h-4.5v-2.2h-0.1c-1,1.7-2.6,2.6-4.6,2.6c-1.5,0-2.7-0.4-3.5-1.3c-0.9-0.9-1.3-2-1.3-3.4c0-3,1.8-4.7,5.3-5.2
		l4.2-0.6c0-1.7-0.9-2.5-2.8-2.5c-1.8,0-3.6,0.5-5.3,1.6v-3.6c0.7-0.3,1.6-0.6,2.7-0.9c1.2-0.3,2.2-0.4,3.2-0.4
		c4.4,0,6.6,2.2,6.6,6.6V33z M80.2,26.7v-1L77.4,26c-1.6,0.2-2.3,0.9-2.3,2.1c0,0.5,0.2,1,0.6,1.3c0.4,0.3,0.9,0.5,1.5,0.5
		c0.9,0,1.6-0.3,2.2-0.9C79.9,28.4,80.2,27.7,80.2,26.7z"/>
	<path d="M103.6,33h-4.8v-2.1h-0.1c-1.1,1.7-2.7,2.5-4.8,2.5c-1.9,0-3.5-0.7-4.7-2.1c-1.2-1.4-1.8-3.3-1.8-5.7c0-2.6,0.7-4.6,2-6.2
		s3-2.3,5.1-2.3c2,0,3.4,0.7,4.2,2.2h0.1v-9.2h4.8V33z M98.9,25.5v-1.2c0-1-0.3-1.8-0.9-2.5c-0.6-0.7-1.3-1-2.3-1
		c-1.1,0-1.9,0.4-2.5,1.2c-0.6,0.8-0.9,2-0.9,3.4c0,1.4,0.3,2.4,0.9,3.1c0.6,0.7,1.4,1.1,2.4,1.1c1,0,1.8-0.4,2.4-1.2
		C98.6,27.8,98.9,26.7,98.9,25.5z"/>
	<path d="M121.6,26.6h-10.1c0.2,2.2,1.6,3.4,4.3,3.4c1.7,0,3.2-0.4,4.5-1.2v3.5c-1.4,0.8-3.3,1.2-5.6,1.2c-2.5,0-4.4-0.7-5.8-2.1
		c-1.4-1.4-2.1-3.3-2.1-5.8c0-2.6,0.7-4.6,2.2-6.1c1.5-1.5,3.3-2.3,5.5-2.3c2.3,0,4,0.7,5.2,2s1.9,3.2,1.9,5.5V26.6z M117.2,23.7
		c0-2.2-0.9-3.3-2.7-3.3c-0.8,0-1.4,0.3-2,1c-0.6,0.6-0.9,1.4-1,2.4H117.2z"/>
	<path d="M123.4,32.6v-3.9c0.8,0.5,1.6,0.8,2.4,1.1c0.8,0.2,1.5,0.3,2.2,0.3c0.8,0,1.5-0.1,2-0.3c0.5-0.2,0.7-0.6,0.7-1.1
		c0-0.3-0.1-0.6-0.3-0.8c-0.2-0.2-0.5-0.4-0.9-0.5s-0.7-0.3-1.1-0.4s-0.8-0.3-1.2-0.4c-0.6-0.2-1.2-0.5-1.6-0.7
		c-0.5-0.3-0.9-0.6-1.2-0.9c-0.3-0.4-0.6-0.8-0.7-1.2s-0.2-1-0.2-1.6c0-0.9,0.2-1.6,0.6-2.2c0.4-0.6,0.9-1.1,1.5-1.5
		c0.6-0.4,1.4-0.7,2.2-0.9c0.8-0.2,1.7-0.3,2.5-0.3c0.7,0,1.4,0.1,2.1,0.2c0.7,0.1,1.4,0.3,2.1,0.5v3.7c-0.6-0.4-1.3-0.6-1.9-0.8
		c-0.7-0.2-1.4-0.3-2-0.3c-0.3,0-0.6,0-0.9,0.1c-0.3,0.1-0.5,0.1-0.7,0.2c-0.2,0.1-0.4,0.2-0.5,0.4c-0.1,0.2-0.2,0.4-0.2,0.6
		c0,0.3,0.1,0.5,0.3,0.7s0.4,0.4,0.7,0.5c0.3,0.1,0.6,0.3,1,0.4c0.4,0.1,0.7,0.2,1.1,0.4c0.6,0.2,1.2,0.5,1.7,0.7s1,0.6,1.3,0.9
		c0.4,0.4,0.7,0.8,0.8,1.2c0.2,0.5,0.3,1,0.3,1.7c0,0.9-0.2,1.7-0.6,2.4c-0.4,0.7-0.9,1.2-1.6,1.6c-0.7,0.4-1.4,0.7-2.3,0.9
		c-0.9,0.2-1.8,0.3-2.7,0.3C126.5,33.4,124.9,33.1,123.4,32.6z"/>
	<path d="M153,33h-4.8v-8.8c0-2.3-0.8-3.4-2.5-3.4c-0.8,0-1.5,0.3-2.1,1c-0.5,0.6-0.8,1.4-0.8,2.4V33h-4.8V10.1h4.8v9.7h0.1
		c1.2-1.8,2.8-2.7,4.8-2.7c3.5,0,5.3,2.1,5.3,6.4V33z"/>
</g>
<path id="Rectangle_182" d="M8.6,4L8.6,4C9,4,9.3,4.3,9.3,4.7v40.7C9.3,45.7,9,46,8.6,46l0,0C8.3,46,8,45.7,8,45.3V4.7
	C8,4.3,8.3,4,8.6,4z"/>
<path id="Rectangle_183" d="M162,38.2L162,38.2c0,0.4-0.3,0.6-0.6,0.6H0.6c-0.4,0-0.6-0.3-0.6-0.6l0,0c0-0.4,0.3-0.7,0.6-0.7h160.7
	C161.7,37.5,162,37.8,162,38.2z"/>
</svg>
