<svg xmlns="http://www.w3.org/2000/svg" width="29.396" height="30.732" viewBox="0 0 29.396 30.732">
  <g id="noun-neural-network-4435488" transform="translate(-93.335 -11.662)">
    <path id="Path_453" data-name="Path 453" d="M108.032,11.662a3.341,3.341,0,0,1,2.693,5.317l6.844,7.247a3.34,3.34,0,1,1,0,5.6l-6.845,7.247a3.34,3.34,0,1,1-5.725.572l-5.988-4.226a3.34,3.34,0,1,1,0-4.773l2.3-1.622-2.3-1.622a3.34,3.34,0,1,1,0-4.773L105,16.407a3.342,3.342,0,0,1,3.032-4.745Zm0,25.387a2,2,0,1,0,2,2A2,2,0,0,0,108.032,37.049Zm-5.679-9.286-2.647,1.868a3.349,3.349,0,0,1,0,2.808l5.988,4.227a3.342,3.342,0,0,1,4.156-.417L116.7,29a3.349,3.349,0,0,1-.2-.314l-5.16,1.82a3.341,3.341,0,1,1-6.64.526,3.328,3.328,0,0,1,.309-1.4Zm-5.679,1.269a2,2,0,1,0,2,2A2,2,0,0,0,96.675,29.032Zm11.357,0a2,2,0,1,0,2,2A2,2,0,0,0,108.032,29.032Zm0-2.672a3.33,3.33,0,0,1-2.338-.954l-2.3,1.622,2.3,1.622a3.341,3.341,0,0,1,5.236.724l5.16-1.82a3.386,3.386,0,0,1,0-1.053l-5.16-1.82a3.339,3.339,0,0,1-2.9,1.679Zm11.357-1.336a2,2,0,1,0,2,2A2,2,0,0,0,119.389,25.023Zm-13.7-7.635-5.988,4.226a3.349,3.349,0,0,1,0,2.808l2.646,1.869L105,24.423a3.341,3.341,0,1,1,6.373-1.4,3.373,3.373,0,0,1-.041.526l5.16,1.82a3.321,3.321,0,0,1,.2-.314L109.851,17.8a3.342,3.342,0,0,1-4.157-.416Zm-9.02,3.627a2,2,0,1,0,2,2A2,2,0,0,0,96.674,21.015Zm11.357,0a2,2,0,1,0,2,2A2,2,0,0,0,108.032,21.015Zm0-8.017a2,2,0,1,0,2,2A2,2,0,0,0,108.032,13Z"/>
  </g>
</svg>
