<?xml version="1.0" encoding="utf-8"?>
<!-- Generator: Adobe Illustrator 26.0.1, SVG Export Plug-In . SVG Version: 6.00 Build 0)  -->
<svg version="1.1" id="Layer_1" xmlns="http://www.w3.org/2000/svg" xmlns:xlink="http://www.w3.org/1999/xlink" x="0px" y="0px"
	 viewBox="0 0 600 850" style="enable-background:new 0 0 600 850;" xml:space="preserve">
<style type="text/css">
	.st0{fill:#15314E;}
	.st1{fill:#D9505C;}
	.st2{fill:#54B2AE;}
	.st3{fill:#F8DD4B;}
	.st4{fill:none;stroke:#FFFFFF;stroke-width:1.0189;stroke-miterlimit:10;}
	.st5{fill:none;stroke:#D4A384;stroke-width:2;stroke-miterlimit:10;}
	.st6{fill:none;stroke:url(#SVGID_1_);stroke-width:2;stroke-miterlimit:10;}
	.st7{fill:none;stroke:url(#SVGID_00000157994056294269272970000018351431957846403713_);stroke-width:2;stroke-miterlimit:10;}
	.st8{fill:none;stroke:url(#SVGID_00000181085663896886534510000003178181944610365619_);stroke-width:2;stroke-miterlimit:10;}
	.st9{fill:none;stroke:url(#SVGID_00000168103653428972143380000010176968361746593429_);stroke-width:2;stroke-miterlimit:10;}
	.st10{fill:none;stroke:url(#SVGID_00000183944468106608475270000013189942548112378812_);stroke-width:2;stroke-miterlimit:10;}
	.st11{fill:none;stroke:url(#SVGID_00000053504456255082461800000013155662753640644280_);stroke-width:2;stroke-miterlimit:10;}
	
		.st12{fill:none;stroke:url(#SVGID_00000023264023377372026870000007982347516566289314_);stroke-width:2.0938;stroke-miterlimit:10;}
	
		.st13{fill:none;stroke:url(#SVGID_00000178892391320806692010000003527299942884424371_);stroke-width:2.0938;stroke-miterlimit:10;}
	.st14{fill:none;stroke:#D4A384;stroke-width:2.0938;stroke-miterlimit:10;}
	.st15{enable-background:new    ;}
	.st16{fill:none;stroke:#F8DD4B;stroke-width:2;stroke-miterlimit:10;}
</style>
<rect x="0.7" y="628.3" class="st0" width="599.3" height="221.3"/>
<path class="st1" d="M30.7,622.9c-10.4,0-20.6,1-30.5,2.9l2.8,3.3l-2.3-0.8v221.3h185.1c6.5-18.1,10.1-37.7,10.1-58.1
	C195.8,698.3,121.9,622.9,30.7,622.9z"/>
<path class="st2" d="M166,628.3H-1.3c-0.2,0-0.4-0.2-0.4-0.4V0.8c0-0.2,0.2-0.4,0.4-0.4H166c0.2,0,0.4,0.2,0.4,0.4v627
	C166.5,628.1,166.3,628.3,166,628.3z"/>
<rect x="159.7" y="0.4" class="st3" width="440.3" height="82"/>
<ellipse class="st3" cx="378.1" cy="631.7" rx="212.4" ry="217"/>
<polygon class="st1" points="600,628.3 165.7,628.3 600,82.4 600,553.7 "/>
<path class="st0" d="M600,82.4H224.5h-31.6c-3.6-0.2-7.1-0.3-10.8-0.3s-7.2,0.1-10.8,0.3H165v0.5C74.8,91.2,4.2,164.6,4.2,254
	S74.8,416.9,165,425.2v203L600,82.4z"/>
<line class="st4" x1="-1.8" y1="32.3" x2="160.7" y2="32.3"/>
<line class="st4" x1="-1.8" y1="53" x2="160.7" y2="53"/>
<ellipse transform="matrix(0.7071 -0.7071 0.7071 0.7071 -248.7839 587.1825)" class="st5" cx="584.4" cy="593.9" rx="73.4" ry="73.4"/>
<circle class="st5" cx="584.4" cy="593.9" r="51.4"/>
<circle class="st5" cx="584.4" cy="593.9" r="32.6"/>
<g>
	
		<linearGradient id="SVGID_1_" gradientUnits="userSpaceOnUse" x1="436.1" y1="706.5" x2="628" y2="706.5" gradientTransform="matrix(1 0 0 -1 0 850)">
		<stop  offset="9.986119e-09" style="stop-color:#E6E9DA"/>
		<stop  offset="1" style="stop-color:#CBB88C"/>
	</linearGradient>
	<line class="st6" x1="436.1" y1="143.5" x2="628" y2="143.5"/>
	
		<linearGradient id="SVGID_00000046334085306938780310000001072276769150929066_" gradientUnits="userSpaceOnUse" x1="424.6" y1="646" x2="627.5" y2="646" gradientTransform="matrix(1 0 0 -1 0 850)">
		<stop  offset="9.986119e-09" style="stop-color:#E6E9DA"/>
		<stop  offset="1" style="stop-color:#CBB88C"/>
	</linearGradient>
	
		<line style="fill:none;stroke:url(#SVGID_00000046334085306938780310000001072276769150929066_);stroke-width:2;stroke-miterlimit:10;" x1="424.6" y1="204" x2="627.5" y2="204"/>
	
		<linearGradient id="SVGID_00000097464676210301116920000015137713387948449215_" gradientUnits="userSpaceOnUse" x1="516.8" y1="556.6" x2="627.7" y2="556.6" gradientTransform="matrix(1 0 0 -1 0 850)">
		<stop  offset="9.986119e-09" style="stop-color:#E6E9DA"/>
		<stop  offset="1" style="stop-color:#CBB88C"/>
	</linearGradient>
	
		<line style="fill:none;stroke:url(#SVGID_00000097464676210301116920000015137713387948449215_);stroke-width:2;stroke-miterlimit:10;" x1="516.8" y1="293.4" x2="627.7" y2="293.4"/>
	
		<linearGradient id="SVGID_00000015339942303266583450000000482305851833112506_" gradientUnits="userSpaceOnUse" x1="515.7914" y1="562.1" x2="517.7914" y2="562.1" gradientTransform="matrix(1 0 0 -1 0 850)">
		<stop  offset="9.986119e-09" style="stop-color:#E6E9DA"/>
		<stop  offset="1" style="stop-color:#CBB88C"/>
	</linearGradient>
	
		<line style="fill:none;stroke:url(#SVGID_00000015339942303266583450000000482305851833112506_);stroke-width:2;stroke-miterlimit:10;" x1="516.8" y1="204" x2="516.8" y2="371.8"/>
	
		<linearGradient id="SVGID_00000160153386899846380760000012981441739477056157_" gradientUnits="userSpaceOnUse" x1="552.3" y1="550.7" x2="704.3" y2="550.7" gradientTransform="matrix(1 0 0 -1 0 850)">
		<stop  offset="9.986119e-09" style="stop-color:#E6E9DA"/>
		<stop  offset="1" style="stop-color:#CBB88C"/>
	</linearGradient>
	
		<circle style="fill:none;stroke:url(#SVGID_00000160153386899846380760000012981441739477056157_);stroke-width:2;stroke-miterlimit:10;" cx="628.3" cy="299.3" r="75"/>
	
		<linearGradient id="SVGID_00000114787984060764343780000004742018273951559338_" gradientUnits="userSpaceOnUse" x1="424.4" y1="643.9" x2="818.8" y2="643.9" gradientTransform="matrix(1 0 0 -1 0 850)">
		<stop  offset="9.986119e-09" style="stop-color:#E6E9DA"/>
		<stop  offset="1" style="stop-color:#CBB88C"/>
	</linearGradient>
	
		<circle style="fill:none;stroke:url(#SVGID_00000114787984060764343780000004742018273951559338_);stroke-width:2;stroke-miterlimit:10;" cx="621.6" cy="206.1" r="196.2"/>
</g>
<g>
	
		<linearGradient id="SVGID_00000116954411300844967330000006382735571369869742_" gradientUnits="userSpaceOnUse" x1="-65.7469" y1="214.6" x2="360.9469" y2="214.6" gradientTransform="matrix(1 0 0 -1 0 850)">
		<stop  offset="9.986119e-09" style="stop-color:#E6E9DA"/>
		<stop  offset="1" style="stop-color:#CBB88C"/>
	</linearGradient>
	
		<circle style="fill:none;stroke:url(#SVGID_00000116954411300844967330000006382735571369869742_);stroke-width:2.0938;stroke-miterlimit:10;" cx="147.6" cy="635.4" r="212.3"/>
	
		<linearGradient id="SVGID_00000160174575672406179920000016691164298037521085_" gradientUnits="userSpaceOnUse" x1="67.0531" y1="113.6" x2="228.1469" y2="113.6" gradientTransform="matrix(1 0 0 -1 0 850)">
		<stop  offset="9.986119e-09" style="stop-color:#E6E9DA"/>
		<stop  offset="1" style="stop-color:#CBB88C"/>
	</linearGradient>
	
		<circle style="fill:none;stroke:url(#SVGID_00000160174575672406179920000016691164298037521085_);stroke-width:2.0938;stroke-miterlimit:10;" cx="147.6" cy="736.4" r="79.5"/>
	<line class="st14" x1="150.3" y1="628.7" x2="150.3" y2="849.6"/>
	<line class="st14" x1="262.2" y1="641" x2="262.2" y2="814.1"/>
	<line class="st14" x1="262.2" y1="731.5" x2="150.3" y2="731.5"/>
	<line class="st14" x1="0.7" y1="628.3" x2="359.9" y2="627.9"/>
	<line class="st14" x1="150.3" y1="574.7" x2="351.1" y2="574.7"/>
	<line class="st14" x1="150.3" y1="508.4" x2="317.7" y2="508.4"/>
</g>
<g class="st15">
	<path class="st2" d="M80.7,161.1V182c0,3.4-1.1,5.9-3.3,7.7c-2.2,1.8-5,2.7-8.6,2.7c-3.4,0-6.1-0.9-8.3-2.7
		c-2.1-1.8-3.2-4.4-3.2-7.7v-20.9h4.2V182c0,2.3,0.7,4.1,2,5.3s3.1,1.8,5.3,1.8c2.3,0,4.1-0.6,5.5-1.8c1.4-1.2,2.1-3,2.1-5.3v-20.9
		H80.7z"/>
	<path class="st2" d="M90.4,169l0.3,3.4c0.8-1.2,1.7-2.2,2.9-2.8c1.2-0.7,2.5-1,3.9-1c2.5,0,4.4,0.7,5.7,2.2c1.4,1.4,2,3.7,2,6.7
		V192h-4.2v-14.4c0-2-0.4-3.5-1.2-4.3c-0.8-0.8-2-1.3-3.7-1.3c-1.2,0-2.3,0.3-3.2,0.9s-1.7,1.4-2.2,2.4V192h-4.2v-23H90.4z"/>
	<path class="st2" d="M110.4,180.9c0-3.7,0.8-6.7,2.4-8.9c1.6-2.3,3.8-3.4,6.6-3.4c1.3,0,2.5,0.2,3.6,0.7c1,0.5,1.9,1.2,2.7,2.2
		v-12.6h4.2V192h-3.4l-0.5-2.8c-0.7,1.1-1.7,1.9-2.8,2.4s-2.4,0.8-3.8,0.8c-2.8,0-5-1-6.6-3c-1.6-2-2.4-4.7-2.4-8V180.9z
		 M114.6,181.4c0,2.3,0.5,4.2,1.4,5.6c0.9,1.4,2.4,2.1,4.4,2.1c1.2,0,2.3-0.3,3.1-0.8c0.8-0.6,1.5-1.4,2.1-2.4v-10.7
		c-0.5-0.9-1.2-1.7-2.1-2.3c-0.9-0.6-1.9-0.8-3.1-0.8c-2,0-3.5,0.8-4.4,2.5s-1.4,3.8-1.4,6.4V181.4z"/>
	<path class="st2" d="M145.6,192.4c-3.2,0-5.7-1.1-7.6-3.2c-1.9-2.1-2.8-4.9-2.8-8.3V180c0-3.3,1-6,2.9-8.2c1.9-2.2,4.2-3.3,6.9-3.3
		c3.1,0,5.4,0.9,7,2.8c1.6,1.9,2.4,4.4,2.4,7.5v2.6h-14.9l-0.1,0.1c0,2.2,0.6,4,1.7,5.4c1.1,1.4,2.6,2.1,4.5,2.1
		c1.4,0,2.7-0.2,3.7-0.6c1.1-0.4,2-1,2.8-1.7l1.6,2.7c-0.8,0.8-1.9,1.5-3.2,2S147.5,192.4,145.6,192.4z M145,171.9
		c-1.4,0-2.6,0.6-3.6,1.8c-1,1.2-1.6,2.7-1.8,4.4l0,0.1h10.6v-0.5c0-1.6-0.4-3-1.3-4.1C148,172.4,146.7,171.9,145,171.9z"/>
	<path class="st2" d="M169.9,172.7l-2.1-0.1c-1.1,0-2,0.3-2.8,0.8c-0.8,0.5-1.3,1.3-1.8,2.2V192h-4.2v-23h3.7l0.4,3.4
		c0.7-1.2,1.5-2.1,2.4-2.8c1-0.7,2.1-1,3.3-1c0.3,0,0.6,0,0.9,0.1c0.3,0,0.5,0.1,0.7,0.2L169.9,172.7z"/>
	<path class="st2" d="M187.3,185.9c0-0.9-0.4-1.7-1-2.3c-0.7-0.6-2-1.1-4-1.5c-2.8-0.6-4.9-1.4-6.3-2.5c-1.4-1-2.1-2.5-2.1-4.2
		c0-1.9,0.8-3.5,2.4-4.8c1.6-1.3,3.6-2,6.2-2c2.7,0,4.8,0.7,6.4,2.1c1.6,1.4,2.3,3,2.3,5l0,0.1h-4c0-1-0.4-1.9-1.3-2.7
		s-2-1.2-3.3-1.2c-1.5,0-2.6,0.3-3.3,1s-1.1,1.4-1.1,2.4c0,0.9,0.3,1.6,1,2.1s1.9,1,3.9,1.4c2.9,0.6,5.1,1.5,6.5,2.5
		s2.1,2.5,2.1,4.3c0,2-0.8,3.7-2.5,4.9s-3.8,1.9-6.5,1.9c-2.9,0-5.2-0.7-6.9-2.2c-1.7-1.5-2.5-3.2-2.4-5.2l0-0.1h4
		c0.1,1.5,0.6,2.6,1.7,3.2c1,0.7,2.2,1,3.6,1c1.5,0,2.6-0.3,3.5-0.9C186.9,187.6,187.3,186.8,187.3,185.9z"/>
	<path class="st2" d="M202.2,163.5v5.5h4.3v3.1h-4.3v13.9c0,1.1,0.2,1.8,0.7,2.3s1,0.7,1.8,0.7c0.2,0,0.5,0,0.8-0.1s0.5-0.1,0.8-0.2
		l0.6,2.9c-0.3,0.3-0.8,0.5-1.4,0.6c-0.6,0.2-1.2,0.2-1.8,0.2c-1.7,0-3-0.5-4.1-1.5c-1-1-1.5-2.6-1.5-4.8v-13.9h-3.6V169h3.6v-5.5
		H202.2z"/>
	<path class="st2" d="M225.8,192c-0.1-0.7-0.3-1.3-0.3-1.8c-0.1-0.5-0.1-1.1-0.1-1.6c-0.8,1.1-1.8,2-3,2.8s-2.6,1.1-4,1.1
		c-2.4,0-4.2-0.6-5.5-1.8c-1.3-1.2-1.9-2.9-1.9-5.1c0-2.2,0.9-3.9,2.7-5.1c1.8-1.2,4.2-1.9,7.2-1.9h4.5v-2.3c0-1.3-0.4-2.4-1.2-3.2
		c-0.8-0.8-2-1.2-3.5-1.2c-1.3,0-2.4,0.3-3.3,1c-0.8,0.7-1.3,1.5-1.3,2.5h-4l0-0.1c-0.1-1.7,0.7-3.2,2.4-4.6s3.8-2.1,6.4-2.1
		c2.6,0,4.7,0.7,6.3,2c1.6,1.3,2.4,3.2,2.4,5.7v11.1c0,0.8,0,1.6,0.1,2.4s0.2,1.5,0.5,2.2H225.8z M218.9,188.9
		c1.5,0,2.9-0.4,4.1-1.2c1.2-0.8,2-1.7,2.4-2.7v-3.7h-4.7c-1.7,0-3,0.4-4,1.3c-1,0.8-1.5,1.8-1.5,3c0,1,0.3,1.8,1,2.4
		C216.7,188.6,217.6,188.9,218.9,188.9z"/>
	<path class="st2" d="M239.3,169l0.3,3.4c0.8-1.2,1.7-2.2,2.9-2.8c1.2-0.7,2.5-1,3.9-1c2.5,0,4.4,0.7,5.7,2.2c1.4,1.4,2,3.7,2,6.7
		V192H250v-14.4c0-2-0.4-3.5-1.2-4.3c-0.8-0.8-2-1.3-3.7-1.3c-1.2,0-2.3,0.3-3.2,0.9s-1.7,1.4-2.2,2.4V192h-4.2v-23H239.3z"/>
	<path class="st2" d="M259.3,180.9c0-3.7,0.8-6.7,2.4-8.9c1.6-2.3,3.8-3.4,6.6-3.4c1.3,0,2.5,0.2,3.6,0.7c1,0.5,1.9,1.2,2.7,2.2
		v-12.6h4.2V192h-3.4l-0.5-2.8c-0.7,1.1-1.7,1.9-2.8,2.4s-2.4,0.8-3.8,0.8c-2.8,0-5-1-6.6-3c-1.6-2-2.4-4.7-2.4-8V180.9z
		 M263.5,181.4c0,2.3,0.5,4.2,1.4,5.6c0.9,1.4,2.4,2.1,4.4,2.1c1.2,0,2.3-0.3,3.1-0.8c0.8-0.6,1.5-1.4,2.1-2.4v-10.7
		c-0.5-0.9-1.2-1.7-2.1-2.3c-0.9-0.6-1.9-0.8-3.1-0.8c-2,0-3.5,0.8-4.4,2.5s-1.4,3.8-1.4,6.4V181.4z"/>
	<path class="st2" d="M289.5,163.2h-4.2v-4.3h4.2V163.2z M289.5,192h-4.2v-23h4.2V192z"/>
	<path class="st2" d="M299.6,169l0.3,3.4c0.8-1.2,1.7-2.2,2.9-2.8c1.2-0.7,2.5-1,3.9-1c2.5,0,4.4,0.7,5.7,2.2c1.4,1.4,2,3.7,2,6.7
		V192h-4.2v-14.4c0-2-0.4-3.5-1.2-4.3c-0.8-0.8-2-1.3-3.7-1.3c-1.2,0-2.3,0.3-3.2,0.9c-0.9,0.6-1.7,1.4-2.2,2.4V192h-4.2v-23H299.6z
		"/>
	<path class="st2" d="M319.7,180.9c0-3.7,0.8-6.7,2.4-8.9c1.6-2.3,3.8-3.4,6.7-3.4c1.5,0,2.7,0.3,3.8,0.9c1.1,0.6,2,1.4,2.8,2.5
		l0.5-3h3.3v23.1c0,2.9-0.9,5.2-2.6,6.8c-1.7,1.6-4.2,2.4-7.4,2.4c-1.1,0-2.3-0.2-3.6-0.5c-1.3-0.3-2.4-0.7-3.4-1.2l1.1-3.2
		c0.7,0.4,1.7,0.8,2.7,1s2.1,0.4,3.1,0.4c2,0,3.5-0.5,4.4-1.4c0.9-0.9,1.4-2.3,1.4-4.2v-2.6c-0.8,1-1.6,1.7-2.7,2.2
		c-1,0.5-2.2,0.7-3.6,0.7c-2.8,0-5-1-6.6-3.1c-1.6-2-2.4-4.7-2.4-8V180.9z M323.8,181.4c0,2.3,0.5,4.2,1.5,5.6
		c1,1.4,2.5,2.1,4.5,2.1c1.3,0,2.3-0.3,3.2-0.9c0.8-0.6,1.5-1.4,2.1-2.4v-10.6c-0.5-1-1.2-1.7-2.1-2.3c-0.9-0.6-1.9-0.9-3.1-0.9
		c-2,0-3.5,0.8-4.5,2.5c-1,1.7-1.5,3.8-1.5,6.4V181.4z"/>
</g>
<g class="st15">
	<path class="st3" d="M58.1,244.1v-30.9h9.5c4,0,7.3,1.2,9.7,3.7c2.4,2.5,3.7,5.7,3.7,9.6v4.2c0,3.9-1.2,7.2-3.7,9.6
		c-2.4,2.5-5.7,3.7-9.7,3.7H58.1z M62.3,216.5v24.3h5.3c2.9,0,5.1-0.9,6.8-2.8c1.6-1.9,2.5-4.3,2.5-7.2v-4.3c0-2.9-0.8-5.3-2.5-7.2
		c-1.6-1.9-3.9-2.8-6.8-2.8H62.3z"/>
	<path class="st3" d="M100,244.1c-0.1-0.7-0.3-1.3-0.3-1.8c-0.1-0.5-0.1-1.1-0.1-1.6c-0.8,1.1-1.8,2-3,2.8s-2.6,1.1-4,1.1
		c-2.4,0-4.2-0.6-5.5-1.8c-1.3-1.2-1.9-2.9-1.9-5.1c0-2.2,0.9-3.9,2.7-5.1c1.8-1.2,4.2-1.9,7.2-1.9h4.5v-2.3c0-1.3-0.4-2.4-1.2-3.2
		c-0.8-0.8-2-1.2-3.5-1.2c-1.3,0-2.4,0.3-3.3,1c-0.8,0.7-1.3,1.5-1.3,2.5h-4l0-0.1c-0.1-1.7,0.7-3.2,2.4-4.6s3.8-2.1,6.4-2.1
		c2.6,0,4.7,0.7,6.3,2c1.6,1.3,2.4,3.2,2.4,5.7v11.1c0,0.8,0,1.6,0.1,2.4s0.2,1.5,0.5,2.2H100z M93.1,241c1.5,0,2.9-0.4,4.1-1.2
		c1.2-0.8,2-1.7,2.4-2.7v-3.7h-4.7c-1.7,0-3,0.4-4,1.3c-1,0.8-1.5,1.8-1.5,3c0,1,0.3,1.8,1,2.4C90.9,240.7,91.8,241,93.1,241z"/>
	<path class="st3" d="M115.3,215.6v5.5h4.3v3.1h-4.3v13.9c0,1.1,0.2,1.8,0.7,2.3s1,0.7,1.8,0.7c0.2,0,0.5,0,0.8-0.1s0.5-0.1,0.8-0.2
		l0.6,2.9c-0.3,0.3-0.8,0.5-1.4,0.6c-0.6,0.2-1.2,0.2-1.8,0.2c-1.7,0-3-0.5-4.1-1.5c-1-1-1.5-2.6-1.5-4.8v-13.9h-3.6v-3.1h3.6v-5.5
		H115.3z"/>
	<path class="st3" d="M138.9,244.1c-0.1-0.7-0.3-1.3-0.3-1.8c-0.1-0.5-0.1-1.1-0.1-1.6c-0.8,1.1-1.8,2-3,2.8s-2.6,1.1-4,1.1
		c-2.4,0-4.2-0.6-5.5-1.8c-1.3-1.2-1.9-2.9-1.9-5.1c0-2.2,0.9-3.9,2.7-5.1c1.8-1.2,4.2-1.9,7.2-1.9h4.5v-2.3c0-1.3-0.4-2.4-1.2-3.2
		c-0.8-0.8-2-1.2-3.5-1.2c-1.3,0-2.4,0.3-3.3,1c-0.8,0.7-1.3,1.5-1.3,2.5h-4l0-0.1c-0.1-1.7,0.7-3.2,2.4-4.6s3.8-2.1,6.4-2.1
		c2.6,0,4.7,0.7,6.3,2c1.6,1.3,2.4,3.2,2.4,5.7v11.1c0,0.8,0,1.6,0.1,2.4s0.2,1.5,0.5,2.2H138.9z M132,241c1.5,0,2.9-0.4,4.1-1.2
		c1.2-0.8,2-1.7,2.4-2.7v-3.7h-4.7c-1.7,0-3,0.4-4,1.3c-1,0.8-1.5,1.8-1.5,3c0,1,0.3,1.8,1,2.4C129.8,240.7,130.7,241,132,241z"/>
	<path class="st3" d="M169.5,236.4l0.7,2.4h0.1l0.7-2.4l8-23.2h4.5L172,244.1h-3.6l-11.5-30.9h4.5L169.5,236.4z"/>
	<path class="st3" d="M191.5,215.3h-4.2V211h4.2V215.3z M191.5,244.1h-4.2v-23h4.2V244.1z"/>
	<path class="st3" d="M211.3,238c0-0.9-0.4-1.7-1-2.3c-0.7-0.6-2-1.1-4-1.5c-2.8-0.6-4.9-1.4-6.3-2.5c-1.4-1-2.1-2.5-2.1-4.2
		c0-1.9,0.8-3.5,2.4-4.8c1.6-1.3,3.6-2,6.2-2c2.7,0,4.8,0.7,6.4,2.1c1.6,1.4,2.3,3,2.3,5l0,0.1h-4c0-1-0.4-1.9-1.3-2.7
		s-2-1.2-3.3-1.2c-1.5,0-2.6,0.3-3.3,1s-1.1,1.4-1.1,2.4c0,0.9,0.3,1.6,1,2.1s1.9,1,3.9,1.4c2.9,0.6,5.1,1.5,6.5,2.5
		s2.1,2.5,2.1,4.3c0,2-0.8,3.7-2.5,4.9s-3.8,1.9-6.5,1.9c-2.9,0-5.2-0.7-6.9-2.2c-1.7-1.5-2.5-3.2-2.4-5.2l0-0.1h4
		c0.1,1.5,0.6,2.6,1.7,3.2c1,0.7,2.2,1,3.6,1c1.5,0,2.6-0.3,3.5-0.9C210.8,239.7,211.3,238.9,211.3,238z"/>
	<path class="st3" d="M235.2,240.7c-0.7,1.2-1.6,2.2-2.8,2.8c-1.1,0.7-2.4,1-3.9,1c-2.5,0-4.5-0.8-5.9-2.4s-2.1-4.1-2.1-7.5v-13.5
		h4.2v13.6c0,2.4,0.4,4.1,1.1,5s1.8,1.4,3.4,1.4c1.5,0,2.7-0.3,3.7-0.9c1-0.6,1.7-1.5,2.2-2.6v-16.5h4.2v23h-3.8L235.2,240.7z"/>
	<path class="st3" d="M259.4,244.1c-0.1-0.7-0.3-1.3-0.3-1.8c-0.1-0.5-0.1-1.1-0.1-1.6c-0.8,1.1-1.8,2-3,2.8s-2.6,1.1-4,1.1
		c-2.4,0-4.2-0.6-5.5-1.8c-1.3-1.2-1.9-2.9-1.9-5.1c0-2.2,0.9-3.9,2.7-5.1c1.8-1.2,4.2-1.9,7.2-1.9h4.5v-2.3c0-1.3-0.4-2.4-1.2-3.2
		c-0.8-0.8-2-1.2-3.5-1.2c-1.3,0-2.4,0.3-3.3,1c-0.8,0.7-1.3,1.5-1.3,2.5h-4l0-0.1c-0.1-1.7,0.7-3.2,2.4-4.6s3.8-2.1,6.4-2.1
		c2.6,0,4.7,0.7,6.3,2c1.6,1.3,2.4,3.2,2.4,5.7v11.1c0,0.8,0,1.6,0.1,2.4s0.2,1.5,0.5,2.2H259.4z M252.5,241c1.5,0,2.9-0.4,4.1-1.2
		c1.2-0.8,2-1.7,2.4-2.7v-3.7h-4.7c-1.7,0-3,0.4-4,1.3c-1,0.8-1.5,1.8-1.5,3c0,1,0.3,1.8,1,2.4C250.3,240.7,251.2,241,252.5,241z"/>
	<path class="st3" d="M273.7,244.1h-4.2V211h4.2V244.1z"/>
	<path class="st3" d="M284.7,215.3h-4.2V211h4.2V215.3z M284.7,244.1h-4.2v-23h4.2V244.1z"/>
	<path class="st3" d="M295,240.8h13.3v3.3h-18.2v-2.9l12.4-16.7h-12.3v-3.3h17.4v2.8L295,240.8z"/>
	<path class="st3" d="M327.1,244.1c-0.1-0.7-0.3-1.3-0.3-1.8s-0.1-1.1-0.1-1.6c-0.8,1.1-1.8,2-3,2.8c-1.3,0.7-2.6,1.1-4,1.1
		c-2.4,0-4.2-0.6-5.5-1.8c-1.3-1.2-1.9-2.9-1.9-5.1c0-2.2,0.9-3.9,2.7-5.1s4.2-1.9,7.2-1.9h4.5v-2.3c0-1.3-0.4-2.4-1.2-3.2
		c-0.8-0.8-2-1.2-3.5-1.2c-1.3,0-2.4,0.3-3.3,1c-0.8,0.7-1.3,1.5-1.3,2.5h-4l0-0.1c-0.1-1.7,0.7-3.2,2.4-4.6
		c1.7-1.4,3.8-2.1,6.4-2.1c2.6,0,4.7,0.7,6.3,2s2.4,3.2,2.4,5.7v11.1c0,0.8,0,1.6,0.1,2.4s0.2,1.5,0.5,2.2H327.1z M320.1,241
		c1.5,0,2.9-0.4,4.1-1.2s2-1.7,2.4-2.7v-3.7h-4.7c-1.7,0-3,0.4-4,1.3c-1,0.8-1.5,1.8-1.5,3c0,1,0.3,1.8,1,2.4
		C317.9,240.7,318.9,241,320.1,241z"/>
	<path class="st3" d="M342.3,215.6v5.5h4.3v3.1h-4.3v13.9c0,1.1,0.2,1.8,0.7,2.3s1,0.7,1.8,0.7c0.2,0,0.5,0,0.8-0.1s0.5-0.1,0.8-0.2
		l0.6,2.9c-0.3,0.3-0.8,0.5-1.4,0.6c-0.6,0.2-1.2,0.2-1.8,0.2c-1.7,0-3-0.5-4.1-1.5c-1-1-1.5-2.6-1.5-4.8v-13.9h-3.6v-3.1h3.6v-5.5
		H342.3z"/>
	<path class="st3" d="M356.4,215.3h-4.2V211h4.2V215.3z M356.4,244.1h-4.2v-23h4.2V244.1z"/>
	<path class="st3" d="M361.8,232.4c0-3.4,0.9-6.2,2.8-8.4c1.8-2.2,4.3-3.3,7.5-3.3c3.2,0,5.7,1.1,7.5,3.3c1.8,2.2,2.8,5,2.8,8.4v0.5
		c0,3.4-0.9,6.2-2.8,8.4s-4.3,3.3-7.5,3.3s-5.7-1.1-7.5-3.3c-1.8-2.2-2.8-5-2.8-8.4V232.4z M366,232.8c0,2.4,0.5,4.4,1.5,6
		c1,1.6,2.5,2.4,4.6,2.4c2,0,3.5-0.8,4.5-2.4s1.5-3.6,1.5-6v-0.5c0-2.4-0.5-4.4-1.6-6c-1-1.6-2.6-2.4-4.6-2.4c-2,0-3.5,0.8-4.5,2.4
		c-1,1.6-1.5,3.6-1.5,6V232.8z"/>
	<path class="st3" d="M391.2,221.1l0.3,3.4c0.8-1.2,1.7-2.2,2.9-2.8s2.5-1,3.9-1c2.5,0,4.4,0.7,5.7,2.2c1.4,1.4,2,3.7,2,6.7v14.5
		h-4.2v-14.4c0-2-0.4-3.5-1.2-4.3c-0.8-0.8-2-1.3-3.7-1.3c-1.2,0-2.3,0.3-3.2,0.9c-0.9,0.6-1.7,1.4-2.2,2.4v16.7h-4.2v-23H391.2z"/>
</g>
<line class="st16" x1="58.1" y1="257" x2="227.5" y2="257"/>
</svg>
