<svg xmlns="http://www.w3.org/2000/svg" width="30.406" height="29.597" viewBox="0 0 30.406 29.597">
  <g id="noun-machine-learning-1870321" transform="translate(-78.472 -16.124)">
    <path id="Path_461" data-name="Path 461" d="M107.737,29.949V22.917a1.625,1.625,0,1,0-2.09-1.568,1.686,1.686,0,0,0,1.14,1.568v6.841L105.6,30.9a2.749,2.749,0,0,0-.95-1.473,3.228,3.228,0,0,0-1.758-.855l1.188-1.188a.432.432,0,0,0,.143-.332V19.829a1.625,1.625,0,1,0-2.09-1.568,1.686,1.686,0,0,0,1.14,1.568v6.984l-1.33,1.33A3.727,3.727,0,0,0,97,26.29V19.734a1.625,1.625,0,1,0-2.09-1.568,1.686,1.686,0,0,0,1.14,1.568V25.72a3.325,3.325,0,0,0-3.706-.428V19.734a1.625,1.625,0,1,0-2.09-1.568,1.686,1.686,0,0,0,1.14,1.568v5.321a4.036,4.036,0,0,0-6.319,2.233l-1.093-1.14V19.307a1.686,1.686,0,0,0,1.14-1.568,1.6,1.6,0,0,0-1.615-1.615,1.643,1.643,0,0,0-1.663,1.615,1.686,1.686,0,0,0,1.14,1.568v7.031a.43.43,0,0,0,.143.332l1.188,1.188a3.274,3.274,0,0,0-2.755,2.8l-1-1V22.822a1.629,1.629,0,0,0-.475-3.183A1.643,1.643,0,0,0,78.472,21.3a1.686,1.686,0,0,0,1.14,1.568V29.9a.43.43,0,0,0,.143.332l1.425,1.425a3.347,3.347,0,0,0,1.33,6.414h3.9v1.615a.463.463,0,0,0,.38.475l1.045.19a5.8,5.8,0,0,0,.475,1.14l-.57.808a.5.5,0,0,0,.047.618l1.425,1.473a.5.5,0,0,0,.618.047l.855-.618a8.207,8.207,0,0,0,1.14.475l.19,1.045a.463.463,0,0,0,.475.38h2.043a.463.463,0,0,0,.475-.38l.19-1.045a5.8,5.8,0,0,0,1.14-.475l.855.618a.5.5,0,0,0,.618-.047l1.473-1.473a.5.5,0,0,0,.047-.618l-.618-.855a8.206,8.206,0,0,0,.475-1.14l1.045-.19a.463.463,0,0,0,.38-.475V38.025h3.9a3.318,3.318,0,0,0,3.326-2.9,3.281,3.281,0,0,0-1.71-3.421l1.52-1.52c.048,0,.1-.143.1-.238Zm-4.656-11.64a.665.665,0,1,1,.665.665A.649.649,0,0,1,103.082,18.309ZM82.8,17.739a.665.665,0,1,1,.665.665A.679.679,0,0,1,82.8,17.739ZM79.423,21.3a.665.665,0,1,1,.665.665A.68.68,0,0,1,79.423,21.3Zm16.486-3.136a.665.665,0,1,1,.665.665A.649.649,0,0,1,95.908,18.166Zm-4.656,0a.665.665,0,1,1,.665.665A.623.623,0,0,1,91.253,18.166ZM99.614,39.26l-.95.143a.516.516,0,0,0-.38.38,4.473,4.473,0,0,1-.57,1.425.515.515,0,0,0,0,.523l.523.76-.9.9-.76-.523a.515.515,0,0,0-.523,0,3.753,3.753,0,0,1-1.425.57.516.516,0,0,0-.38.38l-.143.95H92.868l-.143-.95a.516.516,0,0,0-.38-.38,6.373,6.373,0,0,1-1.425-.57.515.515,0,0,0-.523,0l-.76.523-.9-.9.523-.76a.515.515,0,0,0,0-.523,3.753,3.753,0,0,1-.57-1.425.516.516,0,0,0-.38-.38l-.95-.143V38.025l.95-.19a.516.516,0,0,0,.38-.38,5.255,5.255,0,0,1,.57-1.425.515.515,0,0,0,0-.523l-.523-.76.9-.9.76.523a.513.513,0,0,0,.523,0,3.753,3.753,0,0,1,1.425-.57.516.516,0,0,0,.38-.38l.143-.95h1.283l.143.95a.516.516,0,0,0,.38.38,6.372,6.372,0,0,1,1.425.57.515.515,0,0,0,.523,0l.76-.523.9.9-.523.76a.515.515,0,0,0,0,.523,3.753,3.753,0,0,1,.57,1.425.516.516,0,0,0,.38.38l.95.19V39.26Zm7.221-4.181a2.345,2.345,0,0,1-2.376,2.09H99.994l-.855-.143a5.8,5.8,0,0,0-.475-1.14l.618-.855a.5.5,0,0,0-.047-.618l-1.473-1.425a.5.5,0,0,0-.618-.047l-.855.57a6.33,6.33,0,0,0-1.14-.475l-.19-1.045a.463.463,0,0,0-.475-.38H92.441a.463.463,0,0,0-.475.38l-.19,1.045a5.8,5.8,0,0,0-1.14.475l-.76-.618a.5.5,0,0,0-.618.047l-1.425,1.425a.5.5,0,0,0-.047.618l.618.855a8.206,8.206,0,0,0-.475,1.14l-.95.19c-.19-.047.38,0-4.371,0a2.3,2.3,0,0,1-2.376-2.233c-.285-3.468,4.751-3.373,4.751-.19a.475.475,0,0,0,.95,0,3.333,3.333,0,0,0-3.373-3.326,2.412,2.412,0,0,1,2.9-2.613.51.51,0,0,0,.57-.523A3.083,3.083,0,0,1,91.4,26.243a.046.046,0,0,0,.047.047,3.065,3.065,0,0,1-2.328,5.036.475.475,0,0,0,0,.95,4.013,4.013,0,0,0,3.516-5.938,2.327,2.327,0,0,1,1.853-.428c1.805.332,1.52,1.9,2.328,1.663a3.024,3.024,0,0,1,2.851-.475,2.67,2.67,0,0,1,1.615,1.663,3.25,3.25,0,0,0-2.09,3.088.475.475,0,0,0,.95,0,2.33,2.33,0,0,1,3.991-1.663,2.278,2.278,0,0,1,.76,1.758.479.479,0,0,0,.332.523,2.279,2.279,0,0,1,1.615,2.613Zm-.285-13.73a.665.665,0,1,1,.665.665A.679.679,0,0,1,106.55,21.35Z"/>
    <path id="Path_462" data-name="Path 462" d="M285.776,352.97a3.658,3.658,0,1,0,3.658,3.658A3.69,3.69,0,0,0,285.776,352.97Zm0,6.366a2.708,2.708,0,1,1,2.708-2.708A2.707,2.707,0,0,1,285.776,359.336Z" transform="translate(-192.244 -317.986)"/>
  </g>
</svg>
