<svg xmlns="http://www.w3.org/2000/svg" width="230.431" height="149.429" viewBox="0 0 230.431 149.429">
  <g id="Group_254" data-name="Group 254" transform="matrix(0.946, -0.326, 0.326, 0.946, 0.994, 62.087)">
    <path id="Path_177" data-name="Path 177" d="M-11181.553-13181.653s54.576-56.711,76.8-14.105-28.99,40.084-36.92,29.072-16.246-40.746,32.656-54.244,4.137,78.713,43.637,87.336,71.25-8.66,71.25-8.66" transform="translate(11181.554 13222.279)" fill="none" stroke="#000" stroke-width="2" stroke-dasharray="4"/>
    <g id="Group_255" data-name="Group 255" transform="translate(8.674 14.311)">
      <path id="Path_179" data-name="Path 179" d="M14.02,31.049,37.256,2.457,0,0,10.985,13.84Z" transform="translate(158.397 56.319) rotate(-19)" fill="#e5da39"/>
      <g id="noun_sent_3849596" transform="translate(156.249 55.813) rotate(-42)">
        <g id="Group_159" data-name="Group 159" transform="translate(0 0)">
          <path id="Path_178" data-name="Path 178" d="M35.789,19.887,1.564,37.64A1.059,1.059,0,0,1,.43,37.507a1.177,1.177,0,0,1-.406-1.132L4.3,18.888.024,1.4A1.178,1.178,0,0,1,.409.269,1.066,1.066,0,0,1,1.093.025a1.114,1.114,0,0,1,.471,0L35.789,17.779a1.128,1.128,0,0,1,0,2ZM2.7,3.2l3.508,14.58H22.484a1.11,1.11,0,0,1,0,2.219H6.206L2.7,34.578l30.225-15.69Z" transform="translate(0 0)"/>
        </g>
      </g>
    </g>
  </g>
</svg>
