<svg xmlns="http://www.w3.org/2000/svg" width="37" height="37" viewBox="0 0 37 37"><defs><style>.a{fill:#3d4562;}.b{fill:#fe6205;}</style></defs><g transform="translate(-1 -1)"><path class="a" d="M10.364,21.182a1.682,1.682,0,1,1-3.364,0V17.818a5.045,5.045,0,0,1,5.045-5.045h5.045a5.045,5.045,0,0,1,5.045,5.045V32.955A5.045,5.045,0,0,1,17.091,38H13.727a1.682,1.682,0,1,1,0-3.364h3.364a1.682,1.682,0,0,0,1.682-1.682V17.818a1.682,1.682,0,0,0-1.682-1.682H12.045a1.682,1.682,0,0,0-1.682,1.682ZM22.136,9.409a1.682,1.682,0,1,1-3.364,0V6.045A5.045,5.045,0,0,1,23.818,1h5.045a5.045,5.045,0,0,1,5.045,5.045V32.955A5.045,5.045,0,0,1,28.864,38H25.5a1.682,1.682,0,1,1,0-3.364h3.364a1.682,1.682,0,0,0,1.682-1.682V6.045a1.682,1.682,0,0,0-1.682-1.682H23.818a1.682,1.682,0,0,0-1.682,1.682Z" transform="translate(4.091)"/><path class="b" d="M6.045,15H9.409a5.045,5.045,0,0,1,5.045,5.045v3.364a5.045,5.045,0,0,1-5.045,5.045H6.045A5.045,5.045,0,0,1,1,23.409V20.045A5.045,5.045,0,0,1,6.045,15Zm0,3.364a1.682,1.682,0,0,0-1.682,1.682v3.364a1.682,1.682,0,0,0,1.682,1.682H9.409a1.682,1.682,0,0,0,1.682-1.682V20.045a1.682,1.682,0,0,0-1.682-1.682Z" transform="translate(0 9.545)"/></g></svg>