<svg xmlns="http://www.w3.org/2000/svg" width="44.4" height="37" viewBox="0 0 44.4 37"><defs><style>.a{fill:#3d4562;}.b{fill:#fe6205;}</style></defs><g transform="translate(0 -2)"><path class="a" d="M29.6,33.45a1.85,1.85,0,1,1,0-3.7H42.55A1.85,1.85,0,0,1,44.4,31.6,7.4,7.4,0,0,1,37,39H7.4A7.4,7.4,0,0,1,0,31.6a1.85,1.85,0,0,1,1.85-1.85H14.8a1.85,1.85,0,1,1,0,3.7H4.195A3.7,3.7,0,0,0,7.4,35.3H37a3.7,3.7,0,0,0,3.205-1.85ZM5.55,26.05a1.85,1.85,0,1,1-3.7,0V9.4A7.4,7.4,0,0,1,9.25,2h25.9a7.4,7.4,0,0,1,7.4,7.4V26.05a1.85,1.85,0,1,1-3.7,0V9.4a3.7,3.7,0,0,0-3.7-3.7H9.25a3.7,3.7,0,0,0-3.7,3.7Z" transform="translate(0 0)"/><path class="b" d="M8.244,20.644a1.9,1.9,0,0,1-2.687-2.687l11.4-11.4a1.9,1.9,0,0,1,2.687,2.687Zm0-9.5A1.9,1.9,0,0,1,5.556,8.456l1.9-1.9a1.9,1.9,0,0,1,2.687,2.687Z" transform="translate(4.125 3.267)"/></g></svg>