<svg xmlns="http://www.w3.org/2000/svg" width="314.79" height="117.977" viewBox="0 0 314.79 117.977"><defs><style>.a{fill:#fff;}</style></defs><path class="a" d="M1398.074,255.687c.353,6.624.913,12.336.908,18.048q-.017,18.728-.547,37.451a69.743,69.743,0,0,1-1.456,12.863c-1.274,5.846-6.45,7.236-10.286,2.647a18.077,18.077,0,0,1-3.632-8.5c-1.22-7.883-2.1-15.842-2.6-23.8-.255-4.114-2.093-6.521-5.8-6.77-5.588-.375-11.4-.883-16.8.217-13.032,2.652-25.791,6.649-38.824,9.294-22.21,4.509-44.767,3.717-67.236,2.878-9.948-.371-19.862-1.85-29.772-2.989-5.3-.609-7.247.47-8.6,5.806-1.634,6.458-2.951,13-4.689,19.43-1.153,4.266-2.8,8.4-4.23,12.589l-1.8-.022c-.318-2.019-1.154-4.115-.863-6.042,1.139-7.562,2.582-15.079,4.024-22.591a37.248,37.248,0,0,1,1.975-7.184c2.414-5.847,4.748-7.117,10.843-5.878,24.067,4.894,48.361,3.894,72.7,3.411,21.111-.418,40.977-6.807,61.335-10.935a124.611,124.611,0,0,1,20.261-2.354c8.3-.295,11.161,2.875,11.094,11.066-.074,9.008-.387,18.065,3.231,26.571.816,1.918,2.7,3.381,4.095,5.053,1.132-1.882,2.919-3.654,3.26-5.671a86.174,86.174,0,0,0,.8-12.45c.266-12.147.349-24.3.672-36.442.136-5.141-.272-9.976-3.941-14.02a5.119,5.119,0,0,1-.8-2.1c6.869-2.119,13.733-3.541,19.981-6.338,8.081-3.617,13.916-10.183,18.545-17.681.7-1.128.625-2.732.908-4.115-1.547-.268-3.125-.858-4.631-.71a9.866,9.866,0,0,0-4.139,1.658c-17.054,10.974-36.543,14.787-55.83,19.4a291.318,291.318,0,0,1-98.772,6.4c-20.054-2.113-40.356-4.745-59.375-12.714-4.974-2.084-10.464-2.936-16.9-4.672.816,6.722,1.382,12.413,2.223,18.062,1.079,7.242,3.042,14.42,3.378,21.683a61.233,61.233,0,0,1-2.2,18.015,8.985,8.985,0,0,1-8.934,6.82c-4.832.007-8.054-2.638-10.349-6.67a46.157,46.157,0,0,1-6.293-24.864c.166-4.5-1.537-5.568-5.737-5.749a91.72,91.72,0,0,0-36.666,6.084c-1.628.612-4.33-.334-5.985-1.407-2.453-1.589-2.047-4.214-.121-6.007,4.217-3.926,8.306-8.188,13.138-11.2,6.615-4.129,14.236-6.674,20.743-10.939,5.447-3.57,10-8.547,14.786-13.069,3-2.832,5.345-6.466,8.625-8.861,4.661-3.4,10.155-.77,11.378,4.89a1.649,1.649,0,0,1,.063.5c-.891,9.1,4.572,11.1,12.268,13.465a376.539,376.539,0,0,0,61.832,13.7c39.283,5.115,78.086,1.84,116.331-8.591,14.347-3.914,28.48-8.165,41.3-15.981a18.217,18.217,0,0,1,6.443-2.6c1.83-.283,4.645-.036,5.55,1.124.974,1.25.993,4.283.12,5.772-7.736,13.2-18.033,23.076-34.173,24.791C1398.291,255.511,1397.7,255.8,1398.074,255.687Zm-227.427,9.964c2.016,8.236,3.68,17.211,6.591,25.762,1.032,3.03,4.832,6.613,7.846,7.122,4.54.768,6.275-4.116,7.624-7.857a19.647,19.647,0,0,0,1.238-7.3,140.373,140.373,0,0,0-1.475-14.834c-1.323-8.855-2.831-17.683-4.4-26.5a45.287,45.287,0,0,0-1.991-6.141c-2.444.84-5.278,1.173-7.218,2.667a11.9,11.9,0,0,0-3.884,6.155C1173.316,251.276,1172.193,257.961,1170.647,265.651Zm-10.52-5.564.261,1.339a15.344,15.344,0,0,1,2.974.269c4.634,1.34,6.086-.613,6.324-5.12a55.417,55.417,0,0,1,2.235-11.713c1.728-6.231,5.247-10.647,12.376-11.141,1.035-.072,2.725-1.527,2.805-2.454a22.722,22.722,0,0,0-.6-7.4c-1-3.931-4.45-5.223-7.661-2.717a38.965,38.965,0,0,0-6.847,7.144,52.9,52.9,0,0,1-19.741,16.376c-4.96,2.33-10.021,4.524-14.713,7.322a88.948,88.948,0,0,0-12.374,9.073c-1.2,1.037-1.2,3.476-1.754,5.273a29.3,29.3,0,0,0,5.094-.086C1139.06,264.261,1149.59,262.154,1160.127,260.087Z" transform="translate(-1118.924 -216.867)"/></svg>