<svg id="Layer_1" data-name="Layer 1" xmlns="http://www.w3.org/2000/svg" viewBox="0 0 485.9 529.8"><defs><style>.cls-1{fill:#f7f7f7;}.cls-2,.cls-3{fill:none;}.cls-3,.cls-4,.cls-5{stroke:#000;stroke-miterlimit:10;}.cls-3{stroke-linecap:round;stroke-width:6.27px;}.cls-4{fill:#e5da39;}.cls-4,.cls-5{stroke-width:1.58px;}.cls-5{fill:#c4b526;}.cls-6{fill:#474747;}</style></defs><circle class="cls-1" cx="242.9" cy="264.9" r="242.9"/><g id="Path_2-3" data-name="Path 2-3"><path id="Path_2-4" data-name="Path 2-4" class="cls-2" d="M267.9,329.9s-15.7,26.5-15.7,69.1-19.5,83.8-55.7,56.7-66.8-71.8-101.9-57C47.5,418.4,53.6,507.1,16,527.5" transform="translate(-7.1 -0.9)"/><path id="Path_2-5" data-name="Path 2-5" class="cls-3" d="M267.9,329.9s-15.7,26.5-15.7,69.1-19.5,83.8-55.7,56.7-66.8-71.8-101.9-57C47.5,418.4,53.6,507.1,16,527.5" transform="translate(-7.1 -0.9)"/></g><path id="Combined_Shape" data-name="Combined Shape" class="cls-4" d="M289.8,312.5V336a37.1,37.1,0,0,1-23.6,34.1l-2.2,8.6a31.8,31.8,0,0,1-12.1,3.1,27.4,27.4,0,0,1-11.5-3.1l-2.9-8.1A37.1,37.1,0,0,1,212.6,336c0-8.4-.1-22.3-.1-22.3Z" transform="translate(-7.1 -0.9)"/><ellipse id="Oval_2" data-name="Oval 2" class="cls-5" cx="244.1" cy="312.4" rx="38.6" ry="16.5"/><path id="Rectangle_6" data-name="Rectangle 6" class="cls-6" d="M269.3,278.6v33.1a5.4,5.4,0,0,1-5.5,5.5h0a5.5,5.5,0,0,1-5.5-5.5V278.6a5.5,5.5,0,0,1,5.5-5.5h0A5.5,5.5,0,0,1,269.3,278.6Z" transform="translate(-7.1 -0.9)"/><path id="Rectangle_6_Copy" data-name="Rectangle 6 Copy" class="cls-6" d="M244.1,278.6v33.1a5.5,5.5,0,0,1-5.5,5.5h0a5.4,5.4,0,0,1-5.5-5.5V278.6a5.5,5.5,0,0,1,5.5-5.5h0A5.5,5.5,0,0,1,244.1,278.6Z" transform="translate(-7.1 -0.9)"/><g id="Path_2-6" data-name="Path 2-6"><path id="Path_2-7" data-name="Path 2-7" class="cls-2" d="M232.1,201.7s15.7-26.5,15.7-69.1,19.5-83.8,55.7-56.7,66.8,71.7,101.9,57C452.5,113.1,446.4,24.5,484,4" transform="translate(-7.1 -0.9)"/><path id="Path_2-8" data-name="Path 2-8" class="cls-3" d="M232.1,201.7s15.7-26.5,15.7-69.1,19.5-83.8,55.7-56.7,66.8,71.7,101.9,57C452.5,113.1,446.4,24.5,484,4" transform="translate(-7.1 -0.9)"/></g><path id="Combined_Shape-2" data-name="Combined Shape-2" class="cls-4" d="M211.1,204.4V180.9a37.1,37.1,0,0,1,23.6-34.1l2.3-8.6a31.8,31.8,0,0,1,12-3.1,27,27,0,0,1,11.5,3.1l2.9,8.1a37.1,37.1,0,0,1,25,34.6v22.4Z" transform="translate(-7.1 -0.9)"/><ellipse id="Oval_2-2" data-name="Oval 2-2" class="cls-5" cx="242.7" cy="202.7" rx="38.6" ry="16.5"/><path id="Rectangle_6-2" data-name="Rectangle 6-2" d="M232.1,204v-.8a5.1,5.1,0,0,1,5.1-5.1h0a5.1,5.1,0,0,1,5.1,5.1v.8a5.1,5.1,0,0,1-5.1,5.1h0A5.1,5.1,0,0,1,232.1,204Z" transform="translate(-7.1 -0.9)"/><path id="Rectangle_6_Copy-2" data-name="Rectangle 6 Copy-2" d="M257.3,204v-.8a5.1,5.1,0,0,1,5.1-5.1h0a5.1,5.1,0,0,1,5.1,5.1v.8a5.1,5.1,0,0,1-5.1,5.1h0A5.1,5.1,0,0,1,257.3,204Z" transform="translate(-7.1 -0.9)"/><rect x="146" y="221.5" width="22" height="4" rx="0.8"/><rect x="179.5" y="197" width="22" height="4" rx="0.8" transform="translate(382.4 7.6) rotate(90)"/><rect x="159.4" y="203.2" width="22" height="4" rx="0.8" transform="translate(188 -61.2) rotate(45)"/><rect x="301.2" y="324" width="22" height="4" rx="0.8" transform="translate(-20.8 637.3) rotate(-90)"/><rect x="326.7" y="297.5" width="22" height="4" rx="0.8" transform="translate(668.3 598.2) rotate(-180)"/><rect x="320.4" y="317.7" width="22" height="4" rx="0.8" transform="translate(332.6 779.1) rotate(-135)"/></svg>