<svg xmlns="http://www.w3.org/2000/svg" width="323.982" height="300.858" viewBox="0 0 323.982 300.858">
  <g id="Group_116" data-name="Group 116" transform="translate(0 0)">
    <rect id="Rectangle_133" data-name="Rectangle 133" width="45.097" height="45.097" transform="translate(150.061 146.408)" fill="#e5da39"/>
    <rect id="Rectangle_134" data-name="Rectangle 134" width="44.937" height="44.937" transform="translate(238.734 101.463)" fill="#e5da39"/>
    <g id="Group_115" data-name="Group 115" transform="translate(0 56.44)">
      <rect id="Rectangle_135" data-name="Rectangle 135" width="245.59" height="0.902" transform="translate(77.603 223.568)"/>
      <rect id="Rectangle_136" data-name="Rectangle 136" width="170.16" height="0.902" transform="translate(152.356 178.584)"/>
      <rect id="Rectangle_137" data-name="Rectangle 137" width="234.964" height="0.902" transform="translate(89.019 134.502)"/>
      <rect id="Rectangle_138" data-name="Rectangle 138" width="286.664" height="0.902" transform="translate(36.529 89.518)"/>
      <rect id="Rectangle_139" data-name="Rectangle 139" width="323.531" height="0.902" transform="translate(0 44.984)"/>
      <rect id="Rectangle_140" data-name="Rectangle 140" width="286.326" height="0.902" transform="translate(36.529 0)"/>
    </g>
    <rect id="Rectangle_150" data-name="Rectangle 150" width="250.883" height="0.902" transform="translate(283.273 280.448) rotate(-90)"/>
    <rect id="Rectangle_151" data-name="Rectangle 151" width="271.972" height="0.902" transform="translate(238.235 280.157) rotate(-90)"/>
    <rect id="Rectangle_152" data-name="Rectangle 152" width="250.883" height="0.902" transform="translate(193.836 279.841) rotate(-90)"/>
    <rect id="Rectangle_153" data-name="Rectangle 153" width="280.405" height="0.902" transform="translate(148.733 280.405) rotate(-90)"/>
    <rect id="Rectangle_154" data-name="Rectangle 154" width="250.883" height="0.902" transform="translate(104.824 280.179) rotate(-90)"/>
    <rect id="Rectangle_155" data-name="Rectangle 155" width="250.883" height="0.902" transform="translate(59.785 279.775) rotate(-90)"/>
    <rect id="Rectangle_162" data-name="Rectangle 162" width="45.886" height="45.886" transform="translate(60.205 145.957)"/>
    <rect id="Rectangle_163" data-name="Rectangle 163" width="34.161" height="28.073" transform="translate(194.706 255.091)" fill="#fff"/>
    <rect id="Rectangle_164" data-name="Rectangle 164" width="44.308" height="40.475" transform="translate(106.398 52.939)" fill="#fff"/>
    <rect id="Rectangle_165" data-name="Rectangle 165" width="45.886" height="45.886" transform="matrix(0.679, -0.734, 0.734, 0.679, 207, 269.715)"/>
    <rect id="Rectangle_166" data-name="Rectangle 166" width="45.885" height="45.885" transform="translate(109.929 78.519) rotate(-59.999)"/>
  </g>
</svg>
