<?xml version="1.0" encoding="utf-8"?>
<!-- Generator: Adobe Illustrator 26.0.1, SVG Export Plug-In . SVG Version: 6.00 Build 0)  -->
<svg version="1.1" id="Layer_1" xmlns="http://www.w3.org/2000/svg" xmlns:xlink="http://www.w3.org/1999/xlink" x="0px" y="0px"
	 viewBox="0 0 600 850" style="enable-background:new 0 0 600 850;" xml:space="preserve">
<style type="text/css">
	.st0{fill:#FFFFFF;stroke:#000000;stroke-miterlimit:10;}
	.st1{display:none;fill:#FFFFFF;}
	.st2{fill:#FFFFFF;}
	.st3{fill:none;}
	.st4{enable-background:new    ;}
	.st5{fill:#010101;}
</style>
<rect x="1.6" class="st0" width="598.4" height="850"/>
<g>
	<path class="st1" d="M589.2,851.3c-206.9,0-413.7,0-620.6,0c0-300.6,0-601.1,0-901.7c206.9,0,413.7,0,620.6,0
		C589.2,250.2,589.2,550.8,589.2,851.3z M15.1,651.1c1-2.3,2.1-3.6,2.2-5.1c0.4-3.4,0.4-6.8,0.4-10.2c0-2.8,1.2-3.2,3.7-2.7
		c3.7,0.7,7.4,1.5,11.1,1.5c72.7,0,145.4,0,218.1-0.3c7.7,0,15.9-1.4,23.1-4.1c12.3-4.4,24.2-10.1,36-15.6
		c13.6-6.4,26.9-13.5,41.7-17c15.3-3.6,28.3,0.7,37,13.6c4,5.9,6.8,12.5,9.5,19.1c1.4,3.3,3,4.3,6.4,4.3c28.6-0.2,57.3-0.3,85.9-0.4
		c27.6-0.1,55.1-0.3,82.7-0.4c2.7,0,4.6-0.3,4.6-3.8c-0.2-13.5-0.3-26.9-0.3-40.4c0-2.7-1-3.5-3.7-3.5c-27.6,0.2-55.1,0.3-82.7,0.4
		c-14,0.1-27.9,0.1-41.9,0.2c-1.6,0-3.4,0.6-3.7-2.2c-0.5-4.5-2.3-6-6.9-6.3c-2.3-0.1-4.6,0.1-6.9-0.1c-1.3-0.1-2.6-0.6-4.2-1
		c2-2.3,2-2.3,6.8-2.5c7.1-0.2,10.3-4.6,8.4-11.3c-0.1-0.4,0.1-0.8,0.1-0.8c1.6,0.1,2.9,0.4,4.2,0.2c0.2,0,0.7-2,0.3-2.5
		c-0.7-0.8-1.9-1.2-2.9-1.6c-0.4-0.1-0.9,0.3-1.4,0.3c-1.9,0.2-3.9,0.7-5.8,0.3c-4.2-0.9-8.5,0.1-10.9,3.2c-2.3,2.9-2.1,5.5,0.7,10
		c0.1,0.2,0.1,0.5,0.1,0.7c-3.3,4.1-3.4,4.5,0,9.5c-2.2,1.4-4.4,3.9-6.6,4c-13.5,0.4-26.9,0.2-40.4,0.3c-2.9,0-3.9-1.2-3.3-4
		c0.5-0.1,0.9-0.2,1.2-0.3c0.9-0.4,1.8-0.8,2.7-1.2c-0.8-0.6-1.8-1-2.3-1.7c-1.1-1.6-2.5-3.2-2.8-5c-0.5-3.1-0.1-6.3-0.1-9.4
		c0-3,0-6.1,0-9.1c1.8,0.9,2.7,2,3.6,3.1c5.4,7,10.8,14.1,16.3,21c0.7,0.9,2,1.4,3.1,2.1c0.5-1.2,1.4-2.5,1.4-3.7
		c0.1-7.6,0-15.3,0.1-22.9c0-2.6,0.1-5.2,3.3-6.2c0.5-0.2,0.8-1,1.2-1.6c-0.6-0.3-1.1-1-1.7-1c-2.8-0.1-5.6-0.1-8.4,0
		c-0.6,0-1.2,0.6-1.7,0.9c0.4,0.5,0.7,1.1,1.1,1.6c1,1.1,2.9,2.1,3,3.3c0.3,6.4,0.1,12.9,0.1,20.4c-1.4-1.7-2.2-2.5-2.9-3.4
		c-5.3-6.8-10.5-13.6-15.9-20.4c-2.3-3-7.1-3.5-10.6-0.7c6.9,1.1,5.3,6.1,5.3,10.4c0,1.7,0,3.4,0,5.1c0,2.8,0,5.6,0,8.8
		c-0.9-0.4-1.2-0.5-1.3-0.6c-0.7-1.1-1.4-2.3-2.1-3.4c-7.7-12.4-18.5-19.2-33.6-18.2c-10,0.6-19.4,3.5-28.3,7.6
		c-14,6.3-27.8,13.2-41.8,19.6c-11.6,5.3-23.4,10.4-36.5,10.4c-64.9,0.1-129.9,0.2-194.8,0.2c-3.7,0-7.5-0.5-11.2-0.9
		c-2.9-0.3-4.5-1.6-4.5-4.9c0-7.1-0.5-14.3-0.6-21.4c-0.1-6.4,0.2-12.8,0.3-19.3c5,0.3,9.2,0.9,13.4,0.9
		c54.4-0.1,108.8-0.3,163.1-0.4c8.9,0,17.8-0.9,26-4.4c13.9-5.9,27.7-12.3,41.4-18.7c11.7-5.4,23.1-11.3,35.9-13.9
		c16.3-3.4,29,1.6,37.9,15.7c3.1,5,5.7,10.5,7.7,16c1.5,4.1,3.4,5.5,7.8,5.5c36.4-0.3,72.8-0.4,109.2-0.6
		c37.4-0.1,74.8-0.2,112.2-0.2c3.4,0,4.3-1.2,4.2-4.5c-0.2-12.7-0.3-25.5-0.2-38.2c0-2.7-0.6-3.8-3.6-3.8
		c-58.8,0.2-117.5,0.4-176.3,0.5c-22.8,0.1-45.6,0.1-68.5,0.1c-2.6,0-5-0.1-4.5-3.7c1.5-0.6,2.9-1.2,4.2-1.7
		c0.1-0.3,0.1-0.6,0.2-0.9c-4.7-0.3-4.4-3.3-4.3-6.5c0.2-3.3,0.1-6.6-0.1-9.8c-0.1-1.6-0.7-4.4-1.5-4.6c-2.3-0.5-4.9,0.1-7.3,0.2
		c4.7,3.9,5.6,6.5,3.8,12.2c-0.2-0.1-0.4-0.2-0.5-0.4c-0.8-1.2-1.6-2.4-2.4-3.7c-8.4-13.2-20.2-19.4-35.8-17.1
		c-6.6,0.9-13.3,2.3-19.3,4.8c-16.2,6.9-32,14.6-48,21.9c-13.3,6.1-26.8,10.8-41.9,10.7c-36.2-0.3-72.3,0.1-108.5,0.1
		c-13.1,0-26.2-0.4-39.3-0.6c-3,0-5.1-0.8-5.3-4.5c-0.4-12.9-1.6-25.9-0.2-38.8c0.2-2.2,0.9-3,3.1-2.8c2.3,0.3,4.6,0.4,6.9,0.4
		c39,0.1,77.9,0.3,116.9,0c7-0.1,14.5-1.1,21-3.6c14.8-5.7,29-12.8,43.6-19.1c11-4.7,22-9.9,33.4-13.3c18.4-5.5,32.7,0.8,42.1,17.5
		c2.7,4.7,4.8,9.8,6.6,14.9c1.1,3.1,2.8,3.9,5.9,3.9c91.6-0.3,183.3-0.5,274.9-0.6c3.3,0,4.5-0.9,4.5-4.3
		c-0.2-13.2-0.2-26.5-0.1-39.7c0-2.8-0.8-4.1-3.7-3.8c-2.1,0.2-4.1,0.2-6.2,0.2c-97.1,0.1-194.2,0.3-291.3,0.4
		c-4.1,0-5.8-1.9-4.1-5.7c4.9-11.2,6.3-24,15.2-34c-4.3-0.1-8.4-0.7-13.3,0.6c1.1,0.9,1.4,1.3,1.8,1.4c3.8,0.5,4.2,2.6,2.9,5.7
		c-1.3,3.3-2.4,6.6-3.6,9.9c-1.1,3-2.3,5.9-3.4,8.9c-3.5-6.3-6-12.4-8.4-18.6c-1.9-4.7-1.9-4.7,2.9-6.3c0.1,0,0.2-0.4,0.5-1.2
		c-5,0-9.7,0-14.5,0c5.8,3,5.5,9,7.6,13.6c-0.7-0.1-1.3-0.3-1.7-0.7c-8.4-8.6-18.9-11.5-30.4-9.3c-8.8,1.7-17.6,4-25.8,7.4
		c-16.1,6.8-31.7,14.7-47.5,22c-11.4,5.2-23.3,8.3-36,7.7c-5.9-0.3-11.9,0-17.8,0c-25.2,0-50.5-0.1-75.7-0.2c-6,0-6.3-0.3-6.2-6.1
		c0-4.3,0.4-8.7,0.4-13c0-7.4-0.1-14.7-0.3-22.1c-0.1-3.4,1-4.6,4.6-4.6c22.5,0.1,44.9-0.1,67.4,0c9.5,0,18.8-1.4,27.4-5
		c14.9-6.4,29.6-13.4,44.3-20.2c11.2-5.2,22.4-10.5,34.9-12.2c11.9-1.6,22.1,1.6,30.1,10.8c5.9,6.8,9.6,14.8,12.4,23.3
		c0.9,2.7,2.3,3.5,5,3.5c23.3-0.1,46.6,0,69.9-0.1c86.3-0.1,172.6-0.3,258.9-0.4c2.8,0,3.6-0.9,3.6-3.6c-0.1-14.2-0.1-28.4,0-42.6
		c0-2.7-1-3.5-3.7-3.5c-48.6,0.1-97.1,0.1-145.7,0.1c-68.7,0-137.4,0.1-206.1,0.2c-2.8,0-4.4-0.6-5.3-3.6c-1.1-3.6-3.1-6.9-4.3-10.4
		s-2-7.2-3-10.8c-0.3-1.1-0.7-2.2-1.1-3.3c-0.5,1.2-0.9,2.3-1.4,3.5c-0.1,0.2-0.3,0.3-0.7,0.7c-0.7-0.7-1.5-1.4-2.2-2.1
		c-6-6.3-13.2-9.7-21.9-10.2c-9.5-0.6-18.7,1.3-27.4,5c-15.4,6.6-30.6,13.6-45.7,20.9c-16.3,7.9-33.1,12.8-51.5,11.7
		c-11.2-0.7-22.6-0.2-33.9,0c-3.5,0.1-4.8-1.1-4.7-4.6c0.3-11.9,0.3-23.8,0.5-35.7c0.1-4.7,0.5-4.8,5.4-5.3
		c10.1-0.9,20.4-0.9,30.3-3.1c16.6-3.6,31.3-12.3,46.5-19.6c11.7-5.7,23.3-11.5,36.1-14.3c17.6-3.9,30.7,1.4,39.9,16.9
		c2.9,5,5.3,10.4,7.3,15.8c1.1,3.2,2.7,3.9,5.8,3.9c70.9-0.1,141.8-0.2,212.7-0.2c56.7,0,113.4,0,170.1,0c2.9,0,3.8-1.1,3.7-3.9
		c-0.1-13.8-0.2-27.7-0.1-41.5c0-3.1-1-4.2-4.2-4.2c-17.6,0.1-35.2,0-52.8,0c-95.8,0-191.5-0.1-287.3-0.1c-22,0-43.9,0-65.9,0
		c-2.7,0-4.9-0.3-4.7-3.8c1.2-0.4,2.4-0.8,3.8-1.3c-0.6-0.7-0.8-1.3-1.2-1.4c-4.2-0.9-4.6-4-4.5-7.5c0.1-5.3,0-10.7,0.1-16
		c0-1,0.2-1.9,0.4-2.9c3.8,7.8,6.7,15.6,9.7,23.3c0.7,1.8,2,3.3,3.1,4.9c0.9-1.7,2.1-3.4,2.8-5.2c2.8-7.6,5.5-15.2,8.2-22.8
		c0.9,1.2,1.1,2.3,1.1,3.5c0,5.5-0.2,10.9,0.1,16.4c0.2,3.7-0.2,6.5-4.7,6.7c-0.2,0-0.3,0.6-0.6,1.3c5.5,0,10.6,0,15.8,0
		c-0.3-1.1-0.8-1.6-1.2-1.6c-3.6,0-3.9-2.2-3.8-5.1c0.2-6.3,0.2-12.6,0-18.9c-0.1-3.8-0.1-7,4.9-7.3c0.1,0,0.1-0.4,0.5-1.7
		c-3.1,0-5.9,0.2-8.6,0c-2.7-0.2-4,1-4.8,3.4c-2.1,6.3-4.4,12.6-6.6,18.9c-0.4,1.1-1,2.2-1.9,4c-3.1-8.1-5.9-15.2-8.6-22.3
		c-1.6-4.2-9.6-5.8-13.5-2.1c7-0.2,5.4,4.6,5.4,8.5c0,1.9,0,3.9,0,5.8c0,2.7,0,5.4,0,8.1c-2.3-1.8-3.6-3.9-5-5.8
		c-5.4-7.4-12.1-12.7-21.5-14.4c-9.3-1.7-18.4-0.5-26.8,2.9c-14.8,5.9-29.3,12.9-44,19.2c-11.8,5.1-23.7,9.9-35.7,14.6
		c-5,1.9-5.9,0.9-5.8-4.4c0.1-10.3,0.3-20.6-0.1-30.9c-0.3-10.8,3.6-19.2,13.2-24.5c8.8-4.9,17.6-9.9,26.8-13.9
		c8.6-3.7,17.7-6.9,26.8-8.9c13.2-2.9,25.1,0.6,33.2,12c4.5,6.4,7.7,13.7,10.9,20.8c1.3,3,2.6,4.4,6,4.3
		c43.2-0.1,86.4-0.1,129.6-0.1c102.7,0,205.4,0,308.1,0c2.4,0,3.3-0.8,3.3-3.1c-0.1-14.1-0.2-28.2-0.2-42.2c0-2.8-1.1-3.8-3.9-3.8
		c-10.8,0-21.6-0.2-32.4-0.2c-126.1-0.1-252.2-0.2-378.4-0.2c-17.1,0-34.2,0-51.3,0.1c-2.8,0-5.1-0.3-4.8-4c2.3,0,4.5,0.1,6.6,0
		c5.1-0.4,9.2-4.2,9.9-9.1c0.7-5-1.8-8.9-7.2-10.8c-3.2-1.1-6.6-1.7-9.8-2.7c-3-0.9-5-2.9-4.5-6.1c0.4-3.3,2.8-5,6-5.4
		c4.4-0.6,8.2,2.1,10.4,7c0.5,1.2,1.1,2.5,1.7,3.7c0.3-0.1,0.7-0.2,1-0.2c0-4,0-8,0-13.1c-2.9,3.5-5.1,2.5-7.8,1.2
		c-5.6-2.6-12.1,0.4-14.2,5.8c-2.2,5.9,0.3,10.7,6.8,12.9c1.4,0.5,2.8,0.8,4.2,1.2c1.9,0.5,3.8,0.9,5.6,1.6c2.6,1,4.2,2.9,4,5.9
		c-0.2,2.8-1.8,4.6-4.5,5.5c-5,1.7-9.5-0.2-11.9-4.8c-1-1.9-1.9-3.9-3-5.8c-7.4-13.2-18-20.1-33.1-19.3
		c-12.3,0.7-23.4,4.9-34.3,10.2c-5.2,2.5-8.6,6.6-10.3,12.1c-0.3,1.1-0.8,2.1-1.3,3.1c-0.8-0.9-1.1-1.7-1-2.5c0.3-16,0.5-32,0.9-48
		c0.1-4,0.8-8,1.7-11.8c0.9-4,3.7-6.4,7.6-7.6c9.3-2.9,18-1.8,26.1,3.6c9.6,6.4,14.2,16.3,18.2,26.6c2.2,5.6,2.1,5.6,8.1,5.6
		c69.9,0,139.8-0.1,209.8,0c94,0.2,187.9,0.5,281.9,0.8c2.2,0,3.1-0.7,3.1-2.9c-0.1-14.1,0-28.2-0.4-42.2
		c-0.3-9.3-1.5-10.2-10.8-10.3c-31.2-0.1-62.4-0.2-93.6-0.3c-27.9-0.1-55.8-0.4-83.7-0.5c-60.2-0.1-120.4-0.1-180.6-0.1
		c-32.3,0-64.6-0.1-96.9-0.3c-18.7-0.1-37.4-0.8-56-0.7c-8.9,0-17.8,1.2-26.7,1.7c-4,0.2-5.9,1.8-6.3,5.9c-0.2,2.7-0.4,5.3-1,7.9
		c-0.4,1.8-1.2,3.9-2.5,5.1c-1.7,1.6-4.2,2.2-6,3.7C5,48.7-0.9,53.3-2.4,61.2c-0.9,4.6-1.9,9.3-1.9,14c0,7,1.2,14,1.3,21
		c0.2,12.5-0.5,24.9-1.8,37.3c-2.1,19.7,1.1,39.4,2.3,59.1c0.3,5.4,0.3,10.9,0.1,16.4c-0.5,8.9-1.9,17.9-1.7,26.8
		c0.3,13.8,1.6,27.6,2.6,41.3c0.3,4.3,1.7,8.6,1.4,12.9c-0.4,9.4-1.8,18.8-2.4,28.2c-0.5,8-1.1,16-0.6,23.9c0.5,9.5,2.6,19,2.9,28.5
		c0.3,10.4-0.5,20.8-1,31.2c-0.4,8.3-1.8,16.6-1.5,24.9c0.4,10.7,2.4,21.4,3,32.1c0.5,9.5,0.4,19.1-0.1,28.7
		c-0.4,9-2.5,18.1-2.2,27.1c0.5,13,2.8,26,3.7,39c0.5,6.6,0.6,13.5-0.9,19.8c-2.8,11.5-3,23.2-2.6,34.6c0.5,13,3.2,25.9,5,38.9
		c0.1,1,0.4,2,0.2,2.9c-2.8,9.4-2.1,19.3-3.7,28.8c-2.6,15.3-0.3,30.3,2.3,45.1c2,11.6,2.3,22.8-0.6,34.2c-1.3,4.9-2.5,9.9-2.8,14.9
		c-0.5,8-0.4,16,0,23.9c0.5,10.3,1.4,20.5,2.2,30.8c0.3,3.8,3.8,6.8,6.8,6.8c7.3,0.1,14.7,0.3,22,0.6c3.9,0.1,7.9,0.4,11.8,0.7
		c2.5,0.2,5.1,0,7.3,0.9c6,2.1,12,3.6,18.5,2.8c2.2-0.3,4.6,0.7,7,1.1c1.3,0.2,2.6,0.6,3.9,0.7c9.1,0.3,18.2,0.6,27.3,0.7
		c17.8,0.3,35.6,0.7,53.4,0.7c22.4,0,44.8-0.4,67.2-0.6c10.3-0.1,20.6-0.1,30.9,0c20.9,0.2,41.7,0.5,62.6,0.7c0.5,0,1,0,1.5,0.1
		c15.6,0.7,31.2,1.5,46.8,2c7.5,0.3,15,0,22.5,0.1c7.1,0.1,14.3,0.5,21.4,0.7c6.5,0.2,13,0.1,19.5,0.8c6.8,0.7,13.4,1.7,20.2,0.1
		c1-0.2,2.2-0.1,3.3-0.1c8.5,0,17,0.5,25.4-0.3c10.6-1,20.8-4,29.5-10.5c5.4-4.1,11.3-5.4,17.8-5.4c13.2-0.1,26.5-0.4,39.7-0.7
		c2.1,0,4.2-0.1,6.1-0.8c1.4-0.5,2.8-1.9,3.4-3.2c0.8-1.8,1-4,1.1-6.1c0.1-14.9,0.1-29.9,0.2-44.8c0-2.5-0.9-3.4-3.4-3.3
		c-9,0.2-18,0.3-26.9,0.3c-18.1,0.1-36.2,0.1-54.3,0.4c-3.9,0.1-5.6-1.2-7-4.8c-2.2-5.6-4.8-11.2-8.1-16.2
		c-7.6-11.5-18.6-16.6-32.4-15.4c-10.8,0.9-20.9,4.4-30.6,8.9c-13.1,6-26.2,12.2-39.1,18.5c-15.3,7.5-31.3,10.8-48.5,10.6
		c-41.9-0.5-83.8,0.1-125.6,0.1c-55.1,0.1-110.2,0-165.3,0c-3.7,0-7.5-0.5-11.2-1.2c-4.9-0.9-5.9-2.4-6.1-7.4
		c-0.1-4.1-0.4-8.2-0.7-12.4c-0.3-4-0.6-8-0.9-11.9c-0.8,4.8-1.1,5-4.1,3.8c2.6-5.7,2.6-6.1-2.2-11.1c2.3-0.7,4.2-1.3,6.4-2.1
		c-0.5-0.9-1.3-2.2-2.1-3.4c2.3-3.2,4.7-3.5,8.2-1.7c2.1,1.1,5,1.1,7.5,1.1c9.5,0.2,18.9,0.2,28.4,0.2c80.8-0.1,161.7-0.3,242.5-0.2
		c13.4,0,26.1-2.3,38.2-7.8c13.8-6.2,27.4-13,41.1-19.5c10.6-5,21.2-9.7,33-10.8c9.2-0.9,17.6,1.1,24.7,7.4
		c7.8,6.9,12.3,15.8,15.5,25.5c1.2,3.5,2.8,4.9,6.7,4.8c16-0.3,32-0.2,48.1-0.2c21.4-0.1,42.7-0.3,64.1-0.3c3.2,0,4.5-1.1,4.5-4.5
		c-0.1-13.2-0.1-26.5,0.1-39.7c0-3.4-1.1-4.2-4.4-4.2c-46.1,0.4-92.2,0.6-138.4,0.9c-2.6,0-3.7-1-4.7-3.5
		c-2.4-6.3-4.7-12.6-8.9-18.1c-8-10.7-18.4-16.3-31.7-14.8c-7.2,0.8-14.6,2.1-21.1,4.9c-17,7.1-33.6,15.2-50.3,22.9
		c-13.5,6.1-27.3,10.1-42.4,10c-42.7-0.3-85.5,0.2-128.2,0.3c-37.5,0.1-75,0.1-112.5,0c-4.1,0-8.2-0.7-12.3-1.4
		c-2.9-0.5-4.6-2.4-4.6-5.6c0.1-3.3-0.4-6.6,0-9.8C18.7,658.9,17.9,654.2,15.1,651.1z M476.3,581.6c0.1-0.4,0.3-0.8,0.4-1.3
		c-4.3-0.5-3.9-3.4-3.9-6.2s0.1-5.6-0.2-8.4c-0.7-6.1-5.7-8.6-11.2-5.9c-1,0.5-2,1-3.8,1.9c0-4.6,0.1-8.4-0.1-12.2
		c0-1-0.8-2.9-1.3-2.9c-2.4-0.2-4.8,0.1-6.8,0.2c1.3,2.5,3.3,4.5,3.4,6.6c0.4,7.6,0.2,15.3,0.1,22.9c0,1-0.4,2.1-0.9,3
		c-0.5,0.8-1.3,1.4-2,2.1c1.1,0.3,2.1,0.8,3.2,0.9c1.9,0.2,3.9,0.2,5.8,0c0.8-0.1,1.5-0.6,2.4-1.1c-1.5-1.4-3.5-2.3-3.5-3.3
		c-0.3-3.8-0.3-7.8,0.3-11.6c0.5-2.8,2.9-4.5,6-4.1c2.9,0.4,3.8,2.7,3.9,5.4c0.1,3,0.2,6.1-0.1,9.1c-0.1,1-1.2,2-2,2.9
		c-0.5,0.5-1.1,0.9-2.5,1.9C468.7,581.6,472.5,581.6,476.3,581.6z M426.2,490.5c0.2-0.4,0.3-0.7,0.5-1.1c-4.7-0.5-4.1-3.8-4.1-6.8
		c0-2.4,0.1-4.9-0.1-7.3c-0.5-6.6-5.9-9.5-11.7-6.4c-1,0.5-2,1-3.5,1.8c0-4.6,0.1-8.5-0.1-12.4c0-1-0.8-2.9-1.3-2.9
		c-2.3-0.1-4.7,0.3-8,0.6c5,3.5,5,3.5,5,8.9c0,6.1-0.1,12.1,0.1,18.2c0.1,2.9,0.3,5.7-3.6,6.3c2.5,2.4,9.6,2.4,11.6,0.2
		c-1.1-0.8-3.1-1.6-3.2-2.4c0-4.4,0.1-8.9,1-13.2c0.3-1.3,3.1-2.5,4.9-2.8c1-0.2,3.3,1.5,3.4,2.5c0.6,4.2,0.9,8.4,0.7,12.6
		c-0.1,1.3-2.1,2.4-3.7,4.2C418.5,490.5,422.3,490.5,426.2,490.5z M278.6,209.9c0.3-0.3,0.7-0.5,1-0.8c-5.4-1.2-4.3-4.9-4.3-8.1
		c0-1.8,0.1-3.6,0-5.5c-0.5-7.5-6-10.4-12.5-6.6c-0.7,0.4-1.4,0.8-2.8,1.4c0-4,0.1-7.5-0.1-10.9c-0.1-1.5-0.6-4.2-1.3-4.3
		c-2.2-0.4-4.6,0.2-6.9,0.4c-0.1,0.4-0.2,0.8-0.4,1.3c5,0.5,4.3,4,4.3,7.1c0,5.1,0.1,10.2,0,15.3c-0.1,3.8,1.5,8.1-3.6,10.5
		c4.1,1,7.8,1,11.7-0.1c-4.4-1.5-3.9-4.8-3.8-7.9c0.1-1.6-0.3-3.3,0.2-4.7c0.8-2,1.9-4.2,3.5-5.6c2.3-1.9,6.1-0.8,6.4,2.1
		c0.5,5.5,3.2,11.6-3.4,16.5C271,209.9,274.8,209.9,278.6,209.9z M344.8,489.8c-1.1-0.8-3.2-1.6-3.2-2.3c0-4.4-0.2-9,1.1-13.1
		c1.2-3.7,7.1-4.1,8-0.8c1.1,4.1,1.1,8.6,1,12.9c0,1.3-1.9,2.5-3,3.8c2.3,2,9.5,1.8,11.5-0.7c-4.2-0.3-3.7-3.4-3.7-6.1
		c0-2.3-0.1-4.6-0.1-6.9c0.1-8.6-7.8-10.2-13.2-6.1c-0.4,0.3-0.9,0.6-1.4,1c-2.3-3.6-5.8-4.2-8.7-1.4c5.4,1.9,3.6,6.5,3.5,10.1
		c0,3.6,2.1,8.2-3.6,9.8C335.8,492.1,342.9,491.9,344.8,489.8z M232.1,115.1c-1.2-1-3.1-1.7-3.1-2.5c0-4.3,0.1-8.7,1-12.8
		c0.3-1.3,3.1-2.6,4.9-2.9c1.2-0.2,3.1,1.3,3.7,2.6c0.8,1.6,0.8,3.7,0.9,5.6c0.1,2,0.4,4.2-0.1,6.1c-0.4,1.6-1.9,2.8-3.2,4.6
		c3.8,0,7.5,0,11.2,0c0.2-0.3,0.4-0.6,0.5-0.9c-4.9-0.6-3.9-4-4-6.9c0-2.2,0.1-4.4,0-6.5c-0.3-6.7-6.2-10-12.1-6.6
		c-0.9,0.5-1.8,1.1-2.7,1.7c-2.3-3.6-5-4.1-8.3-1.4c5.4,1.8,3.3,6.4,3.3,9.9c0,3.6,2.1,8.1-3.5,10
		C223.9,117,229.8,116.9,232.1,115.1z M307.7,189c5,1.6,3.8,5.4,3.9,8.8c0.1,2.1-0.1,4.1,0.2,6.2c0.7,5.3,4.7,7.9,9.7,6.2
		c1.7-0.6,3.1-1.7,4.7-2.5c2.6,3.1,4.9,3.5,8.8,1.4c-4.3-1.3-3.8-4.5-3.8-7.7c0-2.9,0.1-5.8-0.1-8.7c-0.1-1.6-0.3-4.2-1.1-4.5
		c-1.9-0.7-4.2-0.2-6.3-0.2c0,0.4-0.1,0.8-0.1,1.2c1,0.9,2.9,1.8,2.9,2.7c0,4.3,0,8.7-0.9,12.8c-0.5,2.5-3.5,3.9-5.9,2.8
		c-1.6-0.7-3-3-3.4-4.9c-0.6-3.2-0.2-6.5-0.3-9.8C315.9,187.4,313.5,186.1,307.7,189z M306.2,208.7c-4.8-0.5-4.5-3.8-4.4-7
		c0.1-2.7,0.5-5.4-0.1-8c-0.5-2-1.8-4.3-3.5-5.4c-3-2.1-9.6-1-12.3,1.4c-0.9,0.9-1.9,2.1-2,3.3c-0.1,0.9,0.6,2.3,1.4,3
		c0.5,0.5,2.1,0.4,2.6,0c0.7-0.6,1.3-2,1-2.7c-1-2.8,0.7-3.6,2.8-3.8c2.9-0.4,5,0.8,5.7,3.8c0.5,2.4-0.7,3.2-3,3.9
		c-3.5,1.1-7.1,2.5-10,4.7c-3.4,2.6-2.2,7.6,2,8.4c2.7,0.6,6,0,8.6-1c1.9-0.7,2.9-1.1,4.6,0.4C301.6,211.5,303.9,211.5,306.2,208.7z
		 M304.4,387.5c0-6.9-4.4-11.8-10.6-11.8c-6.4,0-10.9,5-10.9,11.9c0,7,4.6,12,10.8,12C299.9,399.6,304.4,394.5,304.4,387.5z
		 M369.1,392.6c-0.4-0.2-0.7-0.4-1.1-0.6c-0.7,0.8-1.4,1.5-2.2,2.3c-2,2.1-4.6,3.4-7.1,2.1c-2-1-3.6-3.3-4.8-5.3
		c-1.2-2-0.1-3.1,2.3-3.1c3.5,0,7,0.2,10.5-0.1c0.9-0.1,2.4-1.6,2.5-2.5c0.2-5.1-4.2-9.5-9.3-9.8c-6.4-0.3-11,4.5-11.4,11.8
		c-0.3,5.1,2.7,9.7,7.3,11.4c4.6,1.7,9.2,0.3,12.2-3.8C368.5,394.4,368.7,393.4,369.1,392.6z M448,484.2c-1,0.9-2,1.9-3,2.8
		c-4.1,3.6-9.8,2-11.3-3.1c-0.6-2.3-0.2-3.8,2.6-3.7c3.4,0.1,6.8,0.1,10.2-0.2c0.9-0.1,2.4-1.3,2.5-2.1c0.4-5.1-4.5-10.2-9.7-10.1
		c-6,0.1-10.1,4.2-10.9,10.9c-0.7,5.9,3.1,11.6,8.4,12.8C442.2,492.7,447.6,489.7,448,484.2z M216.2,110.3c-0.5-0.5-1.1-1-1.6-1.5
		c-0.6,1.2-0.9,2.7-1.8,3.6c-4.1,3.8-10.1,2-11.3-3.4c-0.5-2.3-0.1-3.5,2.5-3.5c3.3,0.1,6.5,0.2,9.8-0.1c1-0.1,2.8-1.3,2.9-2.1
		c0.5-4.7-4.3-9.8-9-10.1c-6.2-0.4-11,4.4-11.4,11.5c-0.4,6.7,3.9,12,10.1,12.3C211.4,117.2,215.7,114.4,216.2,110.3z M166.3,110.7
		c-0.3-0.3-0.5-0.6-0.8-1c-1,0.9-2,1.8-3,2.7c-4.2,3.7-10,2-11.5-3.3c-0.7-2.5,0.2-3.7,2.8-3.6c3.3,0.1,6.5,0.1,9.8,0.1
		c1.8,0,3.2-0.5,2.8-2.7c-0.7-4.2-2.5-7.7-6.7-9.1c-3.9-1.4-7.4-0.3-10.3,2.6c-3.9,3.8-4.8,10.8-1.9,15.5c2.4,3.9,6,5.6,10.5,5.1
		C161.9,116.5,164.7,114.3,166.3,110.7z M390.1,384.1c0.3-0.1,0.6-0.2,0.9-0.3c0-2,0.1-3.9-0.1-5.9c-0.1-0.5-1.1-1.1-1.8-1.3
		c-1.5-0.4-3-0.4-4.5-0.7c-4.1-1-8.6,1.5-9.5,5.3c-0.9,4,1.1,6.9,5.8,8c2,0.5,4.1,0.7,5.9,1.6c1.1,0.5,2.4,2.1,2.3,3.1
		c-0.1,1.1-1.5,2.5-2.7,2.9c-3.5,1.2-6.7-0.3-8.7-3.5c-0.6-1-1.3-2-2-3c-0.4,0.1-0.9,0.3-1.3,0.4c0.2,2.8,0.4,5.5,0.5,7.4
		c2.8,0.5,4.6,0.5,6.3,1.1c4.5,1.4,9.9-0.9,11.1-5s-1.2-7.3-6.5-8.6c-2-0.5-4.1-0.8-5.9-1.6c-0.9-0.4-2-1.8-1.9-2.6
		c0.2-1.1,1.2-2.5,2.2-2.9c3-1.1,5.7-0.2,7.6,2.6C388.7,382.1,389.4,383.1,390.1,384.1z M382.5,203.8c-1.1,1-2.2,2-3.4,2.9
		c-4.3,3.4-9.7,1.5-11-3.8c-0.6-2.2,0.1-3.3,2.4-3.3c3.4,0,6.8-0.2,10.2-0.1c2.6,0.1,3.2-1.2,2.8-3.4c-0.7-3.7-2.4-6.8-6-8
		c-3.5-1.3-7.1-1-10.3,1.6c-4.1,3.4-5.4,10.8-2.8,15.6c2.5,4.6,7.7,6.7,12.7,5C380,209.4,382.5,207.6,382.5,203.8z M229.8,210
		c0.3-0.4,0.6-0.8,0.9-1.2c-5.5-0.5-4.4-4.1-4.4-7.2c0-7.3,0.1-14.6,0-21.8c0-1.6-0.7-4.4-1.5-4.6c-2.3-0.5-4.9,0.1-7.3,0.2
		c4.3,3.7,4.3,3.7,4.3,9.5c0,5.6-0.2,11.2,0,16.7c0.1,3.3,0,6.2-3.7,7.4c-0.1,0,0,0.4,0,1C221.9,210,225.9,210,229.8,210z
		 M341.4,202.1c-0.4,0.2-0.7,0.3-1.1,0.5c0,2.1-0.1,4.3,0.1,6.4c0,0.5,0.9,1.3,1.4,1.3c2.2,0.3,4.3,0.4,6.5,0.7
		c4.6,0.7,9.1-2.1,9.8-6.2c0.7-3.8-1.9-6.6-7-7.6c-1.9-0.4-3.9-0.6-5.6-1.4c-0.9-0.4-2-1.6-2.1-2.6c0-0.9,0.9-2.2,1.8-2.8
		c2.7-1.8,6.3-0.6,8.5,2.5c0.6,0.9,1.4,1.8,2.1,2.7c0.4-0.2,0.7-0.3,1.1-0.5c-0.3-2.3-0.6-4.6-0.8-6.3c-2.9-0.5-5-1-7.2-1.1
		c-4.4-0.4-7.8,2.1-8.3,5.8c-0.5,3.9,1.7,6.4,6.3,7.4c1.8,0.4,3.7,0.5,5.3,1.3c1.1,0.5,2.5,2,2.4,3c0,1.1-1.3,2.6-2.4,3.1
		c-3.1,1.5-6.7-0.1-8.7-3.3C342.8,204,342.1,203.1,341.4,202.1z M379.6,470c3.8,0.8,3.9,3.2,3.8,5.9c-0.1,3.5-0.4,7.1,0.3,10.5
		c0.4,1.8,2.5,4.3,4.2,4.6c2.1,0.4,4.9-0.7,6.8-2c1.8-1.4,2.6-3.9,1-7.2c-0.7,1.7-1,2.9-1.7,3.7c-1,1.1-2.4,1.9-3.6,2.8
		c-0.8-1.2-2-2.4-2.2-3.7c-0.3-3.1,0-6.3-0.2-9.4c-0.2-2.8,0.6-4.4,3.8-4.2c1,0.1,2.1-0.9,3.1-1.5c-1.1-0.5-2.2-1.4-3.3-1.3
		c-3.2,0.2-4-1.4-3.8-4.2c0.1-1.4-0.4-2.9-0.6-4.3c-0.5-0.1-1-0.1-1.5-0.2C385.7,464.3,383.9,467.8,379.6,470z M494.2,572.9
		c-0.5,1.5-0.6,2.3-1,2.8c-1.2,1.3-2.5,2.4-3.8,3.6c-0.8-1.4-2.2-2.8-2.3-4.3c-0.4-3.2,0-6.5-0.2-9.8c-0.2-2.5,0.8-3.2,3.1-3.2
		c1.2,0,2.5-0.6,3.7-0.9c0-0.4,0-0.8,0-1.1c-0.8-0.3-1.7-0.9-2.5-0.8c-4.1,0.6-4.7-1.6-4.4-4.9c0.1-1.1-0.5-2.4-0.8-3.5
		c-0.5-0.1-1-0.1-1.5-0.2c0.2,4.7-2,8-7,10.3c5.6,1.1,4.6,4.6,4.7,7.6c0.1,3.1-0.3,6.4,0.5,9.4c0.4,1.7,2.6,3.9,4.3,4.1
		c2.1,0.3,4.7-0.8,6.4-2.2C495.2,578.5,496,576.2,494.2,572.9z M247.6,209.9c-4.1-3.9-4.1-3.9-4.1-10.1c0-6.8,0.1-13.6-0.1-20.4
		c0-1.5-0.7-4.1-1.5-4.3c-2.3-0.6-5.1-0.9-8.3,1.9c6.3,0,5.3,3.8,5.3,7c0,5,0.1,9.9,0,14.9c-0.1,3.9,1.7,8.6-3.8,11
		C239.1,209.9,243.1,209.9,247.6,209.9z M343.4,392c-1.2,1.3-2.1,2.2-2.9,3.1c-2.4,2.4-6.1,2.4-8.4-0.1c-3-3.3-2.9-12.2,0.2-15.3
		c0.6-0.6,1.3-1.1,2.1-1.3c2.8-1,4.1,0,4.1,3c0,1.1,0.5,2.3,1.3,3.1c0.4,0.4,2.2,0.4,2.5-0.1c0.8-0.9,1.5-2.4,1.3-3.4
		c-0.7-3.2-3.1-4.8-6.3-5.1c-5.3-0.6-9.6,2.2-11.6,7.4c-3.3,8.4,2.5,17.2,10.9,16.5C340.6,399.3,343.4,396.4,343.4,392z M169.7,94.3
		c1.7,2.7,3.2,4.7,4.2,6.9c2.1,4.3,4,8.8,6.1,13.2c0.4,0.9,1.4,1.4,2.2,2.1c0.6-0.7,1.3-1.3,1.7-2.1c3.1-6.6,6.2-13.3,9.3-20
		c-2.1,0-4.9,0-8,0c1.2,1.7,3,3.2,2.8,4.1c-1.2,3.7-2.9,7.2-4.5,10.7c-0.3,0-0.7-0.1-1-0.1c-1.1-2.3-2.1-4.5-3.2-6.8
		c-1.3-2.7-3.6-5.4,0.5-8C176.4,94.3,173.1,94.3,169.7,94.3z M401.3,209.8c0.1-0.3,0.1-0.5,0.2-0.8c-0.4-0.3-0.7-0.7-1.1-0.8
		c-3.3-0.1-4.1-2.1-3.7-4.9c0.3-2.4,0.3-4.9,1.1-7.1c0.7-2.1,2.2-3.9,3.4-5.9c0.3,0.1,0.7,0.3,1,0.4c0.1,0.5,0.1,1.2,0.4,1.6
		c0.8,0.8,1.8,1.5,2.7,2.3c0.7-1,2-2,2-3c-0.1-1.2-1-3.2-1.9-3.5c-1.5-0.5-3.6-0.2-5.1,0.5c-1.4,0.7-2.3,2.3-3.4,3.6
		c-1.8-4.9-4.7-6-8.7-3.1c5.9,1.5,4.1,6.1,4.1,9.8c0,3.8,2,8.5-3.7,10.8C392.8,209.8,397.1,209.8,401.3,209.8z M126.5,95.9
		c3.2,0.7,3,3.6,2.9,6.5c-0.1,3-0.4,6.1,0.2,9c0.4,1.8,2.1,4.3,3.6,4.6c2.1,0.4,5-0.3,6.9-1.6c1.9-1.2,2.7-3.7,1.4-6.3
		c-0.7,0.7-0.9,1.8-1.5,2.4c-1.1,1.2-2.5,2.1-3.8,3.2c-0.8-1.3-2.2-2.6-2.4-3.9c-0.4-3.3,0-6.8-0.2-10.1c-0.1-2.3,0.8-3.3,3.1-3.3
		c1.3,0,2.6-0.4,3.9-0.7c0-0.5-0.1-0.9-0.1-1.4c-1-0.2-2-0.6-3-0.5c-3.1,0.3-4.2-0.9-3.8-4c0.2-1.4-0.2-2.9-0.3-5
		C130.8,88.9,128.8,92.2,126.5,95.9z M320.8,398.5c0.4-0.3,0.7-0.6,1.1-0.9c-5.8-0.8-4.4-4.8-4.5-8.1c-0.1-3.3,0.1-6.6-0.1-9.8
		c-0.1-1.3-0.9-3.1-1.9-3.6c-2.2-1-5.8,0.2-6.7,1.7c4.4,2.2,4.5,2.4,4.2,7.7c0,1.1-0.1,2.2-0.1,3.3c0,3.5,1.4,7.6-4.2,8.9
		c0.2,0.3,0.4,0.5,0.5,0.8C313,398.5,316.9,398.5,320.8,398.5z M420.7,582.3c0.2-0.5,0.5-0.9,0.7-1.4c-6.2-1.6-4.2-6.2-4.5-10
		c-0.1-2.3,0.2-4.6-0.1-6.9c-0.2-1.6-0.7-4.4-1.5-4.6c-2.3-0.4-4.8,0.2-7.3,0.4c-0.3,0.5-0.5,0.9-0.8,1.4c6.5,0.6,5,4.9,5.1,8.5
		c0.1,2.2,0,4.4,0,6.5c0,1.8-0.1,3.4-2.5,3.6c-0.5,0-0.9,0.9-1.3,1.3c0.4,0.4,0.8,1,1.2,1C413.3,582.3,417,582.3,420.7,582.3z
		 M212.8,210c-3.9-3.4-3.8-3.4-3.8-9c0-3.5,0.1-7-0.1-10.5c0-0.9-0.7-2.5-1.2-2.6c-2.4-0.3-4.8-0.1-8-0.1c4.8,6,4.9,6,4.8,11.3
		c-0.1,3.9,1.7,8.5-3.7,10.9C204.8,210,208.8,210,212.8,210z M305.1,292.5c2.9-5,2.5-6.4-1.5-7.9c0-1.1,0-2.3,0-3.4
		c-0.4-0.1-0.8-0.2-1.2-0.3c-1,3.7-2.1,7.5-3.1,11.2c0.3,0.1,0.6,0.3,0.9,0.4c1.3-2.1,2.6-4.3,3.9-6.4c0.4,0.1,0.7,0.3,1.1,0.4
		C305.1,288.6,305.1,290.6,305.1,292.5z M212.9,292.3c0.4,0,0.9,0,1.3,0c0.3-0.5,1-0.9,0.9-1.4c-0.2-3.1-0.5-6.3-0.9-9.4
		c0-0.2-1.1-0.6-1.5-0.5s-1,0.8-0.9,1.2C212.1,285.7,212.5,289,212.9,292.3z M443.4,661.8c0.4,0.1,0.8,0.3,1.2,0.4
		c0.5-1.6,1.4-3.3,1.3-4.9c-0.1-0.9-2.4-2.5-3.1-2.2c-1.6,0.6-3.2,1.9-4.1,3.4c-0.5,0.8,0.6,2.4,0.9,3.7c0.3-0.1,0.7-0.1,1-0.2
		c0.1-2.3-0.7-5.1,3.3-6.4C443.7,658,443.6,659.9,443.4,661.8z M280.6,295.8c1.7-4.8,3.4-9.7,5-14.3
		C282.1,282.5,279.7,287.8,280.6,295.8z M422.8,651.9c-1.8,2.1-1.5,3.5,1,5.3c1.6,1.1,2.8,2.7,4.3,4.1c2.2-1.9,1.8-3.8-1.2-5.6
		C425.4,654.8,424.3,653.3,422.8,651.9z M328.6,293.7c0-4.4,0.1-7.5-0.1-10.7c0-0.6-0.7-1.2-1.1-1.9c-0.4,0.6-1.1,1.2-1.1,1.9
		c-0.2,2.8-0.2,5.6-0.1,8.3C326.3,292,327.5,292.6,328.6,293.7z M400.7,281.3c-1.4,6.2-0.5,11.2,1.9,11
		C402.7,282,402.7,282,400.7,281.3z M275,292.1c0.4,0.2,0.8,0.4,1.2,0.7c0.7-1.6,1.8-3.2,1.8-4.8c0-0.8-2.1-2.4-2.9-2.2
		c-1.5,0.3-3.1,1.4-4,2.7c-0.5,0.8,0.2,2.5,0.4,3.7c0.3-0.1,0.6-0.1,1-0.2c0.2-1.3,0.2-2.7,0.7-3.8c0.4-0.8,1.5-1.3,2.2-1.9
		c0.3,0.9,0.8,1.9,0.7,2.8C275.9,290.1,275.4,291.1,275,292.1z M417.9,549.5c-1.9-1.4-3-2.9-4-2.8c-1,0.1-1.9,1.6-2.9,2.5
		c0.9,0.9,1.7,2.5,2.7,2.6C414.8,552,416,550.7,417.9,549.5z M205.9,181.7c1.4-1.9,2.9-3.1,2.7-4c-0.2-1-1.6-2.4-2.7-2.6
		c-0.7-0.2-2.4,1.5-2.4,2.4C203.4,178.5,204.6,179.6,205.9,181.7z M454,655.1c-1.5-0.1-3-0.2-4.7-0.2c-0.5,2.6-0.9,4.9-1.3,7.1
		c0.2,0.1,0.4,0.2,0.6,0.4C450.3,660.1,452,657.8,454,655.1z M318.4,366.1c-2-1.4-3.1-2.7-4.1-2.7c-1,0.1-1.9,1.6-2.8,2.6
		c0.9,0.9,1.8,2.4,2.8,2.5C315.3,368.7,316.5,367.3,318.4,366.1z M435.9,652.9c-0.5-0.1-1.1-0.2-1.6-0.4c-0.7,2.8-1.5,5.7-2,8.5
		c-0.1,0.4,1,1,1.9,1.8C434.8,659.1,435.3,656,435.9,652.9z M325.5,458.6c-2-1.4-3.1-2.8-4-2.7c-1,0.1-2.3,1.5-2.6,2.6
		c-0.2,0.7,1.4,2.4,2.3,2.4C322.2,461,323.4,459.8,325.5,458.6z M348.4,292.6c2.2-0.6,2.2-0.6,1.9-8.5c0-1-0.6-2-1-3
		c-0.3,0.1-0.6,0.3-0.9,0.4C348.4,285.1,348.4,288.7,348.4,292.6z M295.1,292.7c0.6-3.2,1.1-6.1,1.6-9
		C293,286.6,292.5,291.4,295.1,292.7z M362,292.4c0-2.9,0-5.8,0-9.2C358.9,286.2,359.5,291,362,292.4z M258.3,285.5
		c-0.4,2.2-0.8,4.4-1.2,6.6c0.2,0,0.4,0.1,0.6,0.1c1.7-2.2,3.3-4.4,5-6.7C261.4,285.5,260,285.5,258.3,285.5z M370.2,286.6
		c-1.2,2.1-2.2,3.9-3.2,5.6c0.4,0.3,0.9,0.5,1.3,0.8c1.5-2.3,3-4.7,4.9-7.7c-2.5,0.1-4,0.2-5.6,0.2c0,0.2,0,0.4,0,0.6
		C368.4,286.2,369.1,286.4,370.2,286.6z M354.6,285.2c0.1,7,0.1,7,2,7.2C356.9,286.6,356.9,286.6,354.6,285.2z M386.1,285.1
		c-0.3,0.2-0.6,0.3-0.8,0.5c0.1,1.5,0.1,3.1,0.3,4.6c0.1,0.9,0.6,1.7,0.9,2.5c0.3-0.9,0.6-1.7,0.9-2.6c0.2-0.8,0.5-1.7,0.3-2.4
		C387.3,286.8,386.6,286,386.1,285.1z M459.3,654.9c-0.5-0.1-1.1-0.1-1.6-0.2c-0.3,2.1-0.7,4.2-1,6.4c0,0.4,0.6,0.9,1.1,1.2
		c0.2,0.1,0.9-0.1,0.9-0.3C458.9,659.7,459.1,657.3,459.3,654.9z M377.2,286.2c-0.3-0.1-0.6-0.1-0.9-0.2c-0.2,1.5-1,3.3-0.5,4.6
		c0.4,1.1,2.2,1.6,3.1,2.2C378.2,290.4,377.7,288.3,377.2,286.2z M338.4,285.2c-0.4,0.1-0.8,0.3-1.2,0.4c0.5,2.5-1.4,6,3.1,7.3
		C339.6,290,339,287.6,338.4,285.2z M420.7,292.5c0.4,0,0.9-0.1,1.3-0.1c0.1-2.4,1.3-5-1.8-6.9C420.3,287.8,420.5,290.2,420.7,292.5
		z M475.1,661.9c2.6-2.2,2.3-2.8-3.6-5.1C472.6,658.4,473.8,660.1,475.1,661.9z M431.7,286c-0.4-0.3-0.9-0.6-1.3-1
		c-1.4,2.3-2.8,4.5-4.2,6.8c0.4,0.3,0.8,0.5,1.3,0.8C428.8,290.5,430.2,288.3,431.7,286z M232.3,285.4c0,6.5,0,6.5,1.1,7.2
		C234.5,286.6,234.5,286.6,232.3,285.4z M332,287.1c0.2,0.2,0.5,0.3,0.7,0.5c0.7-1.2,1.8-2.4,2-3.7c0.1-0.9-1.2-1.9-2.3-3.5
		C332.2,283.5,332.1,285.3,332,287.1z M343.4,292.6c0.4-0.1,0.8-0.3,1.2-0.4c-0.3-2.3-0.7-4.6-1-6.9c-0.5,0.1-1.1,0.2-1.6,0.3
		C343.8,287.7,340.7,290.8,343.4,292.6z M237.7,291.9c0.4,0.2,0.7,0.3,1.1,0.5c0.8-1.9,1.7-3.7,2.4-5.6c0.1-0.3-0.6-1.3-0.8-1.3
		c-0.6,0-1.4,0.4-1.6,0.9C238.4,288.2,238.1,290.1,237.7,291.9z M228.4,285.2c-0.5,2.6-1,4.8-1.4,7
		C230.8,288.4,231.1,286.7,228.4,285.2z M312.1,286.9c-0.4-0.1-0.8-0.2-1.3-0.3c-0.4,1.4-1.1,2.8-0.9,4.1c0.1,0.9,1.7,1.5,2.6,2.3
		C312.3,290.6,312.2,288.8,312.1,286.9z M244.4,285.5c-0.4,0.1-0.8,0.1-1.1,0.2c-0.2,6.4-0.2,6.4,1.1,6.9
		C244.4,290.1,244.4,287.8,244.4,285.5z M223.4,285.6c-3,4.2-2.9,6.2-0.4,6.8C223.1,290.1,223.3,287.9,223.4,285.6z M412.3,292.7
		c0.4-0.1,0.7-0.2,1.1-0.3c0.5-6.4,0.5-6.4-1.8-6.8C411.8,288.1,412.1,290.4,412.3,292.7z M464.7,662.5c0-2.3,0-4.3,0-6.5
		C461.5,658.9,461.5,660,464.7,662.5z M436.1,286.7c-0.3-0.2-0.5-0.4-0.8-0.6c-0.2,1.4-1,2.9-0.6,4.1c0.4,1.1,2,1.8,2.8,2.4
		C437.1,290.5,436.6,288.6,436.1,286.7z M406.3,286.4c0.2,0.2,0.5,0.4,0.7,0.6c0.6-1,1.7-2,1.7-3s-1.1-1.9-1.7-2.9
		c-0.2,0.1-0.4,0.3-0.6,0.4C406.3,283.2,406.3,284.8,406.3,286.4z M250.4,286.7c-3.1,3.5-2.7,4.9,0.6,5.9
		C250.8,290.8,250.6,289,250.4,286.7z"/>
	<path d="M105,116.9c-0.3,3.8,2,4,4.8,4c17.1-0.1,34.2-0.1,51.3-0.1c126.1,0.1,252.2,0.1,378.4,0.2c10.8,0,21.6,0.2,32.4,0.2
		c2.8,0,3.9,1,3.9,3.8c0,14.1,0.1,28.2,0.2,42.2c0,2.4-0.9,3.1-3.3,3.1c-102.7,0-205.4,0-308.1,0c-43.2,0-86.4,0-129.6,0.1
		c-3.4,0-4.6-1.3-6-4.3c-3.2-7.2-6.4-14.5-10.9-20.8c-8.1-11.4-20-14.9-33.2-12c-9.2,2-18.2,5.2-26.8,8.9c-9.2,4-18,9-26.8,13.9
		c-9.6,5.3-13.5,13.6-13.2,24.5c0.3,10.3,0.2,20.6,0.1,30.9c-0.1,5.2,0.8,6.3,5.8,4.4c12-4.6,23.9-9.5,35.7-14.6
		c14.7-6.3,29.1-13.3,44-19.2c8.5-3.4,17.5-4.6,26.8-2.9c9.4,1.7,16.1,7,21.5,14.4c1.4,1.9,2.7,4,5,5.8c0-2.7,0-5.4,0-8.1
		c0-1.9,0-3.9,0-5.8c-0.1-3.9,1.6-8.7-5.4-8.5c3.9-3.7,11.9-2.1,13.5,2.1c2.7,7.1,5.5,14.2,8.6,22.3c0.9-1.8,1.5-2.9,1.9-4
		c2.3-6.3,4.5-12.6,6.6-18.9c0.8-2.4,2.1-3.6,4.8-3.4c2.8,0.2,5.6,0,8.6,0c-0.4,1.3-0.4,1.7-0.5,1.7c-4.9,0.3-5,3.5-4.9,7.3
		c0.2,6.3,0.2,12.6,0,18.9c-0.1,2.9,0.2,5.1,3.8,5.1c0.5,0,0.9,0.6,1.2,1.6c-5.2,0-10.4,0-15.8,0c0.3-0.7,0.5-1.3,0.6-1.3
		c4.5-0.2,4.9-3,4.7-6.7c-0.3-5.4,0-10.9-0.1-16.4c0-1.1-0.2-2.3-1.1-3.5c-2.7,7.6-5.4,15.2-8.2,22.8c-0.7,1.8-1.9,3.5-2.8,5.2
		c-1-1.6-2.4-3.1-3.1-4.9c-3.1-7.7-6-15.6-9.7-23.3c-0.1,1-0.3,1.9-0.4,2.9c0,5.3,0.1,10.7-0.1,16c-0.1,3.5,0.3,6.6,4.5,7.5
		c0.4,0.1,0.6,0.7,1.2,1.4c-1.5,0.5-2.6,0.9-3.8,1.3c-0.2,3.6,2,3.8,4.7,3.8c22,0,43.9-0.1,65.9,0c95.8,0,191.5,0,287.3,0.1
		c17.6,0,35.2,0.1,52.8,0c3.3,0,4.2,1.1,4.2,4.2c-0.1,13.8,0,27.7,0.1,41.5c0,2.7-0.8,3.9-3.7,3.9c-56.7-0.1-113.4,0-170.1,0
		c-70.9,0-141.8,0.1-212.7,0.2c-3.1,0-4.7-0.7-5.8-3.9c-2-5.4-4.3-10.9-7.3-15.8c-9.2-15.5-22.3-20.9-39.9-16.9
		c-12.8,2.9-24.4,8.7-36.1,14.3c-15.2,7.3-29.9,16-46.5,19.6c-9.9,2.2-20.2,2.2-30.3,3.1c-4.9,0.4-5.3,0.6-5.4,5.3
		c-0.2,11.9-0.3,23.8-0.5,35.7c-0.1,3.5,1.1,4.6,4.7,4.6c11.3-0.2,22.6-0.7,33.9,0c18.4,1.1,35.2-3.8,51.5-11.7
		c15.1-7.3,30.3-14.3,45.7-20.9c8.6-3.7,17.8-5.5,27.4-5c8.7,0.5,15.9,3.9,21.9,10.2c0.7,0.7,1.5,1.4,2.2,2.1
		c0.4-0.4,0.7-0.5,0.7-0.7c0.5-1.1,1-2.3,1.4-3.5c0.4,1.1,0.8,2.2,1.1,3.3c1,3.6,1.8,7.3,3,10.8s3.3,6.8,4.3,10.4
		c0.9,3,2.5,3.6,5.3,3.6c68.7-0.1,137.4-0.2,206.1-0.2c48.6,0,97.1,0,145.7-0.1c2.6,0,3.7,0.8,3.7,3.5c-0.1,14.2,0,28.4,0,42.6
		c0,2.6-0.9,3.6-3.6,3.6c-86.3,0.1-172.6,0.2-258.9,0.4c-23.3,0-46.6,0-69.9,0.1c-2.7,0-4.1-0.8-5-3.5c-2.8-8.5-6.5-16.5-12.4-23.3
		c-8-9.2-18.2-12.4-30.1-10.8c-12.5,1.7-23.7,7-34.9,12.2c-14.7,6.8-29.4,13.9-44.3,20.2c-8.6,3.7-17.9,5.1-27.4,5
		c-22.5-0.1-44.9,0.1-67.4,0c-3.5,0-4.7,1.1-4.6,4.6c0.3,7.4,0.3,14.7,0.3,22.1c0,4.3-0.3,8.7-0.4,13c0,5.8,0.2,6.1,6.2,6.1
		c25.2,0.1,50.5,0.1,75.7,0.2c5.9,0,11.9-0.3,17.8,0c12.7,0.6,24.6-2.5,36-7.7c15.9-7.3,31.5-15.2,47.5-22c8.2-3.5,17-5.8,25.8-7.4
		c11.5-2.2,21.9,0.7,30.4,9.3c0.4,0.4,0.9,0.6,1.7,0.7c-2.1-4.6-1.7-10.6-7.6-13.6c4.7,0,9.5,0,14.5,0c-0.3,0.8-0.4,1.1-0.5,1.2
		c-4.8,1.6-4.8,1.6-2.9,6.3c2.5,6.2,5,12.3,8.4,18.6c1.1-3,2.3-5.9,3.4-8.9c1.2-3.3,2.3-6.6,3.6-9.9c1.3-3.1,0.9-5.2-2.9-5.7
		c-0.4,0-0.7-0.5-1.8-1.4c4.9-1.3,9-0.7,13.3-0.6c-8.9,10-10.3,22.8-15.2,34c-1.7,3.8,0,5.8,4.1,5.7c97.1-0.1,194.2-0.2,291.3-0.4
		c2.1,0,4.1,0,6.2-0.2c2.9-0.3,3.8,1,3.7,3.8c-0.1,13.2-0.1,26.5,0.1,39.7c0,3.4-1.2,4.3-4.5,4.3c-91.6,0.1-183.3,0.3-274.9,0.6
		c-3.1,0-4.8-0.8-5.9-3.9c-1.8-5.1-4-10.2-6.6-14.9c-9.4-16.7-23.7-23-42.1-17.5c-11.4,3.4-22.4,8.6-33.4,13.3
		c-14.6,6.3-28.8,13.3-43.6,19.1c-6.5,2.5-14,3.5-21,3.6c-39,0.3-77.9,0.1-116.9,0c-2.3,0-4.6-0.1-6.9-0.4c-2.2-0.3-2.9,0.6-3.1,2.8
		c-1.4,13-0.2,25.9,0.2,38.8c0.1,3.7,2.3,4.4,5.3,4.5c13.1,0.2,26.2,0.6,39.3,0.6c36.2,0,72.4-0.4,108.5-0.1
		c15.1,0.1,28.6-4.6,41.9-10.7c16-7.3,31.8-15,48-21.9c6-2.6,12.8-3.9,19.3-4.8c15.6-2.2,27.4,4,35.8,17.1c0.8,1.2,1.6,2.5,2.4,3.7
		c0.1,0.2,0.4,0.3,0.5,0.4c1.8-5.8,0.9-8.3-3.8-12.2c2.5-0.1,5-0.7,7.3-0.2c0.8,0.2,1.4,3,1.5,4.6c0.2,3.3,0.3,6.6,0.1,9.8
		c-0.2,3.2-0.4,6.1,4.3,6.5c-0.1,0.3-0.1,0.6-0.2,0.9c-1.4,0.6-2.7,1.1-4.2,1.7c-0.5,3.6,1.9,3.7,4.5,3.7
		c22.8-0.1,45.6-0.1,68.5-0.1c58.8-0.1,117.5-0.3,176.3-0.5c3,0,3.7,1.1,3.6,3.8c0,12.7,0,25.5,0.2,38.2c0.1,3.3-0.8,4.5-4.2,4.5
		c-37.4,0-74.8,0.1-112.2,0.2c-36.4,0.1-72.8,0.2-109.2,0.6c-4.4,0-6.3-1.3-7.8-5.5c-2-5.6-4.5-11-7.7-16
		c-8.9-14.1-21.6-19.1-37.9-15.7c-12.7,2.7-24.2,8.5-35.9,13.9c-13.7,6.4-27.5,12.8-41.4,18.7c-8.2,3.5-17.1,4.4-26,4.4
		c-54.4,0.1-108.8,0.3-163.1,0.4c-4.2,0-8.4-0.6-13.4-0.9c-0.1,6.6-0.4,13-0.3,19.3c0.1,7.1,0.5,14.3,0.6,21.4
		c0,3.3,1.7,4.6,4.5,4.9c3.7,0.4,7.5,0.9,11.2,0.9c64.9,0,129.9-0.1,194.8-0.2c13.1,0,24.9-5.2,36.5-10.4
		c14-6.4,27.8-13.3,41.8-19.6c9-4,18.3-6.9,28.3-7.6c15.1-1,25.8,5.8,33.6,18.2c0.7,1.1,1.4,2.3,2.1,3.4c0.1,0.2,0.4,0.2,1.3,0.6
		c0-3.1,0-6,0-8.8c0-1.7,0-3.4,0-5.1c-0.1-4.3,1.6-9.3-5.3-10.4c3.6-2.7,8.3-2.2,10.6,0.7c5.3,6.8,10.6,13.6,15.9,20.4
		c0.7,0.9,1.5,1.8,2.9,3.4c0-7.5,0.1-13.9-0.1-20.4c-0.1-1.1-2-2.2-3-3.3c-0.4-0.5-0.8-1.1-1.1-1.6c0.6-0.3,1.2-0.9,1.7-0.9
		c2.8-0.1,5.6-0.1,8.4,0c0.6,0,1.1,0.6,1.7,1c-0.4,0.5-0.7,1.4-1.2,1.6c-3.2,1-3.3,3.6-3.3,6.2c0,7.6,0.1,15.3-0.1,22.9
		c0,1.3-0.9,2.5-1.4,3.7c-1-0.7-2.3-1.2-3.1-2.1c-5.5-7-10.9-14-16.3-21c-0.9-1.1-1.8-2.2-3.6-3.1c0,3,0,6.1,0,9.1
		c0,3.2-0.3,6.4,0.1,9.4c0.3,1.8,1.7,3.4,2.8,5c0.5,0.8,1.5,1.2,2.3,1.7c-0.9,0.4-1.8,0.8-2.7,1.2c-0.3,0.1-0.7,0.2-1.2,0.3
		c-0.6,2.7,0.4,4,3.3,4c13.5-0.1,27,0.1,40.4-0.3c2.2-0.1,4.4-2.6,6.6-4c-3.3-5-3.3-5.4,0-9.5c0-0.2,0-0.5-0.1-0.7
		c-2.8-4.5-3-7.1-0.7-10c2.4-3.1,6.7-4.1,10.9-3.2c1.8,0.4,3.8-0.1,5.8-0.3c0.5,0,1-0.4,1.4-0.3c1.1,0.4,2.3,0.8,2.9,1.6
		c0.4,0.5-0.1,2.5-0.3,2.5c-1.3,0.1-2.6-0.1-4.2-0.2c0,0-0.2,0.5-0.1,0.8c1.9,6.7-1.4,11.1-8.4,11.3c-4.8,0.2-4.8,0.2-6.8,2.5
		c1.6,0.4,2.9,0.9,4.2,1c2.3,0.2,4.6-0.1,6.9,0.1c4.6,0.3,6.3,1.7,6.9,6.3c0.3,2.8,2.1,2.2,3.7,2.2c14,0,27.9-0.1,41.9-0.2
		c27.6-0.1,55.1-0.2,82.7-0.4c2.7,0,3.7,0.8,3.7,3.5c0,13.5,0,26.9,0.3,40.4c0.1,3.6-1.9,3.8-4.6,3.8c-27.6,0.1-55.1,0.3-82.7,0.4
		c-28.6,0.1-57.3,0.2-85.9,0.4c-3.4,0-5-1-6.4-4.3c-2.7-6.6-5.6-13.2-9.5-19.1c-8.7-12.9-21.8-17.2-37-13.6
		c-14.8,3.5-28.1,10.6-41.7,17c-11.9,5.5-23.7,11.2-36,15.6c-7.3,2.6-15.4,4-23.1,4.1c-72.7,0.4-145.4,0.3-218.1,0.3
		c-3.7,0-7.4-0.8-11.1-1.5c-2.5-0.5-3.7,0-3.7,2.7c0,3.4,0,6.8-0.4,10.2c-0.2,1.5-1.2,2.8-2.2,5.1c2.8,3.2,3.6,7.8,3.1,13
		c-0.4,3.2,0.1,6.5,0,9.8c-0.1,3.2,1.6,5.1,4.6,5.6c4,0.7,8.2,1.4,12.3,1.4c37.5,0.1,75,0,112.5,0c42.7-0.1,85.5-0.6,128.2-0.3
		c15.2,0.1,29-3.8,42.4-10c16.8-7.7,33.3-15.7,50.3-22.9c6.6-2.8,14-4.1,21.1-4.9c13.3-1.5,23.7,4.1,31.7,14.8
		c4.2,5.5,6.5,11.8,8.9,18.1c0.9,2.4,2,3.5,4.7,3.5c46.1-0.3,92.3-0.5,138.4-0.9c3.4,0,4.5,0.8,4.4,4.2c-0.2,13.2-0.2,26.5-0.1,39.7
		c0,3.4-1.2,4.5-4.5,4.5c-21.4,0-42.7,0.2-64.1,0.3c-16,0.1-32-0.1-48.1,0.2c-3.9,0.1-5.5-1.3-6.7-4.8c-3.2-9.6-7.7-18.6-15.5-25.5
		c-7.1-6.3-15.4-8.3-24.7-7.4c-11.8,1.1-22.5,5.9-33,10.8c-13.7,6.4-27.3,13.3-41.1,19.5c-12.1,5.4-24.8,7.8-38.2,7.8
		c-80.8-0.1-161.7,0.1-242.5,0.2c-9.5,0-18.9,0-28.4-0.2c-2.5,0-5.3,0-7.5-1.1c-3.4-1.8-5.9-1.5-8.2,1.7c0.8,1.2,1.6,2.5,2.1,3.4
		c-2.2,0.7-4.1,1.3-6.4,2.1c4.8,5,4.9,5.5,2.2,11.1c3,1.3,3.3,1,4.1-3.8c0.3,4,0.6,8,0.9,11.9c0.3,4.1,0.5,8.2,0.7,12.4
		c0.2,5,1.2,6.5,6.1,7.4c3.7,0.7,7.5,1.2,11.2,1.2c55.1,0.1,110.2,0.1,165.3,0c41.9,0,83.8-0.6,125.6-0.1
		c17.2,0.2,33.2-3.1,48.5-10.6c13-6.3,26-12.5,39.1-18.5c9.7-4.5,19.8-8,30.6-8.9c13.8-1.2,24.8,3.9,32.4,15.4
		c3.3,5,5.9,10.6,8.1,16.2c1.4,3.6,3.1,4.9,7,4.8c18.1-0.3,36.2-0.3,54.3-0.4c9-0.1,18-0.1,26.9-0.3c2.6-0.1,3.5,0.8,3.4,3.3
		c-0.1,14.9-0.1,29.9-0.2,44.8c0,2-0.3,4.2-1.1,6.1c-0.6,1.3-2,2.7-3.4,3.2c-1.9,0.7-4,0.7-6.1,0.8c-13.2,0.3-26.5,0.6-39.7,0.7
		c-6.5,0.1-12.4,1.4-17.8,5.4c-8.7,6.5-18.9,9.5-29.5,10.5c-8.4,0.8-16.9,0.2-25.4,0.3c-1.1,0-2.2-0.2-3.3,0.1
		c-6.8,1.6-13.4,0.6-20.2-0.1c-6.4-0.7-13-0.6-19.5-0.8c-7.1-0.2-14.3-0.6-21.4-0.7c-7.5-0.1-15,0.2-22.5-0.1
		c-15.6-0.6-31.2-1.3-46.8-2c-0.5,0-1-0.1-1.5-0.1c-20.9-0.2-41.7-0.5-62.6-0.7c-10.3-0.1-20.6-0.1-30.9,0
		c-22.4,0.2-44.8,0.6-67.2,0.6c-17.8,0-35.6-0.4-53.4-0.7c-9.1-0.2-18.2-0.4-27.3-0.7c-1.3,0-2.6-0.5-3.9-0.7
		c-2.3-0.4-4.7-1.4-7-1.1c-6.5,0.8-12.5-0.6-18.5-2.8c-2.3-0.8-4.9-0.7-7.3-0.9c-3.9-0.3-7.9-0.6-11.8-0.7c-7.3-0.3-14.7-0.5-22-0.6
		c-3,0-6.5-3.1-6.8-6.8C-0.6,817-1.6,806.8-2,796.5c-0.4-8-0.4-16,0-23.9c0.3-5,1.5-10,2.8-14.9c3.5-11.2,3.2-22.5,1.2-34
		c-2.6-14.9-4.9-29.8-2.3-45.1c1.6-9.5,0.8-19.4,3.7-28.8c0.3-0.9-0.1-1.9-0.2-2.9c-1.7-13-4.5-25.9-5-38.9
		c-0.4-11.5-0.2-23.1,2.6-34.6c1.5-6.3,1.4-13.2,0.9-19.8c-0.9-13-3.2-26-3.7-39c-0.3-9,1.8-18,2.2-27.1c0.4-9.6,0.6-19.2,0.1-28.7
		c-0.6-10.7-2.6-21.4-3-32.1c-0.3-8.3,1-16.6,1.5-24.9c0.5-10.4,1.4-20.8,1-31.2c-0.3-9.5-2.4-19-2.9-28.5c-0.4-7.9,0.1-16,0.6-23.9
		c0.6-9.4,1.9-18.8,2.4-28.2c0.2-4.3-1.1-8.6-1.4-12.9c-1-13.8-2.3-27.5-2.6-41.3c-0.2-8.9,1.3-17.9,1.7-26.8
		c0.3-5.4,0.3-10.9-0.1-16.4c-1.2-19.7-4.3-39.4-2.3-59.1c1.3-12.5,2-24.9,1.8-37.3c-0.1-7-1.3-14-1.3-21c0-4.7,1-9.4,1.9-14
		c1.5-7.9,7.5-12.5,13.3-17.1c1.8-1.5,4.4-2.1,6-3.7c1.3-1.2,2-3.3,2.5-5.1c0.6-2.6,0.8-5.3,1-7.9c0.4-4.1,2.3-5.6,6.3-5.9
		c8.9-0.5,17.8-1.7,26.7-1.7c18.7-0.1,37.4,0.6,56,0.7c32.3,0.2,64.6,0.3,96.9,0.3c60.2,0.1,120.4,0,180.6,0.1
		c27.9,0,55.8,0.3,83.7,0.5c31.2,0.1,62.4,0.1,93.6,0.3c9.3,0,10.5,1,10.8,10.3c0.4,14.1,0.3,28.2,0.4,42.2c0,2.2-0.9,2.9-3.1,2.9
		c-94-0.3-187.9-0.6-281.9-0.8c-69.9-0.1-139.8,0-209.8,0c-6,0-5.9,0-8.1-5.6c-4-10.3-8.6-20.2-18.2-26.6
		c-8.1-5.4-16.8-6.4-26.1-3.6c-3.9,1.2-6.7,3.6-7.6,7.6C19.7,52,19,56,18.9,59.9c-0.4,16-0.6,32-0.9,48c0,0.8,0.2,1.5,1,2.5
		c0.4-1,0.9-2.1,1.3-3.1c1.7-5.5,5.1-9.6,10.3-12.1c10.9-5.3,22-9.5,34.3-10.2c15.1-0.9,25.8,6.1,33.2,18.7c1.1,1.9,2,3.9,3,5.8
		 M438.7,566.6c-0.1-3.4-1.7-5.5-4.5-5.4c-2.7,0-4.5,2.2-4.5,5.5c0,3.4,1.9,5.6,4.8,5.6C437.2,572.2,438.7,570.2,438.7,566.6z
		 M427.8,585.1c0.2,0.5,0.4,1,0.6,1.5c4,0,7.9,0,11.9-0.1c0.5,0,1.6-1,1.5-1.1c-0.3-0.8-0.9-2.1-1.4-2.2c-3-0.3-6-0.6-8.9-0.4
		C430.2,582.9,429,584.3,427.8,585.1z"/>
</g>
<polygon class="st2" points="148.2,189 162.6,212.6 185,212 211.8,207.8 202,174.4 153.2,172.3 146.3,174.7 "/>
<path class="st2" d="M253.4,372.3c0,0,17,17.6,18.9,29.2l24.2-6.4l-4.7-33.4h-41.9L253.4,372.3z"/>
<path class="st2" d="M315.8,474.8c0,0,7.3,13.9,9.2,18.4l18.4-4.7l-17.8-25.7l-11,1.7L315.8,474.8z"/>
<path class="st2" d="M368.6,567.3c0,0,7,11.8,8.3,15.5l11.8,1.9l28.7,1.9h39.2l-6.3-37.1c0,0-71-5.3-71.5-5.3s-13.7-1-13.9,0
	C364.9,545.1,368.6,567.3,368.6,567.3z"/>
<rect x="-2.7" y="-6" class="st2" width="25.1" height="862.3"/>
<rect x="22.4" y="827.4" class="st2" width="568.2" height="29"/>
<rect x="1.6" y="9.9" class="st2" width="598.7" height="16.1"/>
<rect x="219.4" y="87" class="st2" width="334.4" height="115.6"/>
<polygon class="st2" points="203.6,283.7 217.9,307.4 240.4,306.7 267.2,302.5 257.3,269.1 208.6,267 201.6,269.4 "/>
<rect x="234.1" y="119" class="st3" width="349.4" height="59.1"/>
<g class="st4">
	<path class="st5" d="M236.5,140.1v-19.7h6.4c2.1,0,3.7,0.4,4.8,1.3c1.2,0.9,1.7,2.2,1.7,4c0,0.9-0.3,1.7-0.8,2.3s-1.3,1.2-2.2,1.5
		c1.2,0.3,2.1,0.8,2.8,1.7c0.7,0.9,1,2,1,3.2c0,1.8-0.6,3.2-1.8,4.1s-2.8,1.4-4.8,1.4H236.5z M239.2,128.8h4.3c1,0,1.8-0.3,2.4-0.8
		s0.9-1.3,0.9-2.3c0-1.1-0.3-1.9-1-2.4c-0.7-0.5-1.6-0.8-2.9-0.8h-3.8V128.8z M239.2,130.9v7.1h4.6c1.2,0,2.1-0.3,2.8-0.9
		s1-1.4,1-2.5c0-1.1-0.3-2.1-0.8-2.7c-0.6-0.7-1.4-1-2.6-1H239.2z"/>
	<path class="st5" d="M263,137.9c-0.5,0.8-1,1.4-1.8,1.8c-0.7,0.4-1.6,0.6-2.5,0.6c-1.6,0-2.8-0.5-3.7-1.5c-0.9-1-1.3-2.6-1.3-4.8
		v-8.6h2.7v8.6c0,1.6,0.2,2.6,0.7,3.2s1.2,0.9,2.1,0.9c0.9,0,1.7-0.2,2.3-0.6c0.6-0.4,1.1-0.9,1.4-1.6v-10.5h2.7v14.6h-2.4
		L263,137.9z"/>
	<path class="st5" d="M272.3,121.7h-2.7V119h2.7V121.7z M272.3,140.1h-2.7v-14.6h2.7V140.1z"/>
	<path class="st5" d="M279.3,140.1h-2.7V119h2.7V140.1z"/>
	<path class="st5" d="M282.8,133.1c0-2.4,0.5-4.2,1.5-5.7c1-1.4,2.4-2.2,4.2-2.2c0.9,0,1.6,0.2,2.3,0.5c0.7,0.3,1.2,0.8,1.7,1.4v-8
		h2.7v21.1H293l-0.3-1.8c-0.5,0.7-1.1,1.2-1.8,1.6c-0.7,0.4-1.5,0.5-2.4,0.5c-1.8,0-3.2-0.6-4.2-1.9c-1-1.3-1.5-3-1.5-5.1V133.1z
		 M285.5,133.3c0,1.5,0.3,2.7,0.9,3.5c0.6,0.9,1.5,1.3,2.8,1.3c0.8,0,1.5-0.2,2-0.5c0.5-0.4,1-0.9,1.3-1.5v-6.8
		c-0.3-0.6-0.8-1.1-1.3-1.4c-0.5-0.4-1.2-0.5-2-0.5c-1.3,0-2.2,0.5-2.8,1.6c-0.6,1.1-0.9,2.4-0.9,4.1V133.3z"/>
	<path class="st5" d="M302,121.7h-2.7V119h2.7V121.7z M302,140.1h-2.7v-14.6h2.7V140.1z"/>
	<path class="st5" d="M308.5,125.5l0.2,2.2c0.5-0.8,1.1-1.4,1.8-1.8s1.6-0.6,2.5-0.6c1.6,0,2.8,0.5,3.7,1.4c0.9,0.9,1.3,2.3,1.3,4.3
		v9.2h-2.7v-9.2c0-1.3-0.3-2.2-0.8-2.7c-0.5-0.5-1.3-0.8-2.3-0.8c-0.8,0-1.4,0.2-2,0.6c-0.6,0.4-1.1,0.9-1.4,1.5v10.7h-2.7v-14.6
		H308.5z"/>
	<path class="st5" d="M321.3,133.1c0-2.4,0.5-4.2,1.5-5.7s2.4-2.2,4.3-2.2c0.9,0,1.7,0.2,2.4,0.6c0.7,0.4,1.3,0.9,1.8,1.6l0.3-1.9
		h2.1v14.7c0,1.9-0.5,3.3-1.6,4.3c-1.1,1-2.7,1.5-4.7,1.5c-0.7,0-1.5-0.1-2.3-0.3c-0.8-0.2-1.5-0.5-2.2-0.8l0.7-2.1
		c0.5,0.3,1.1,0.5,1.7,0.7s1.3,0.2,2,0.2c1.3,0,2.2-0.3,2.8-0.9s0.9-1.5,0.9-2.7v-1.6c-0.5,0.6-1,1.1-1.7,1.4s-1.4,0.5-2.3,0.5
		c-1.8,0-3.2-0.6-4.2-1.9c-1-1.3-1.5-3-1.5-5.1V133.1z M323.9,133.3c0,1.5,0.3,2.6,0.9,3.5c0.6,0.9,1.6,1.3,2.8,1.3
		c0.8,0,1.5-0.2,2-0.5c0.5-0.4,1-0.9,1.3-1.5v-6.7c-0.3-0.6-0.8-1.1-1.3-1.5c-0.5-0.4-1.2-0.5-2-0.5c-1.3,0-2.2,0.5-2.9,1.6
		s-0.9,2.4-0.9,4.1V133.3z"/>
	<path class="st5" d="M348.9,134.7l0.5,1.8h0.1l3.6-11h3l-6.1,16.9c-0.4,1-0.9,1.8-1.6,2.6c-0.7,0.7-1.6,1.1-2.8,1.1
		c-0.2,0-0.5,0-0.8-0.1c-0.3,0-0.6-0.1-0.8-0.1l0.3-2.1c-0.1,0,0.1,0,0.5,0c0.4,0,0.6,0,0.7,0c0.6,0,1-0.3,1.4-0.8
		c0.4-0.5,0.7-1.1,0.9-1.7l0.6-1.5l-5.4-14.3h3L348.9,134.7z"/>
	<path class="st5" d="M357.6,132.7c0-2.2,0.6-3.9,1.8-5.3c1.2-1.4,2.8-2.1,4.8-2.1c2,0,3.6,0.7,4.8,2.1s1.8,3.2,1.8,5.4v0.3
		c0,2.2-0.6,4-1.8,5.4c-1.2,1.4-2.8,2.1-4.8,2.1c-2,0-3.6-0.7-4.8-2.1c-1.2-1.4-1.8-3.2-1.8-5.3V132.7z M360.2,132.9
		c0,1.5,0.3,2.8,1,3.8c0.7,1,1.6,1.5,2.9,1.5c1.3,0,2.2-0.5,2.9-1.5c0.7-1,1-2.3,1-3.8v-0.3c0-1.5-0.3-2.8-1-3.8
		c-0.7-1-1.6-1.5-2.9-1.5c-1.3,0-2.2,0.5-2.9,1.5c-0.7,1-1,2.3-1,3.8V132.9z"/>
	<path class="st5" d="M383.2,137.9c-0.5,0.8-1,1.4-1.8,1.8c-0.7,0.4-1.6,0.6-2.5,0.6c-1.6,0-2.8-0.5-3.7-1.5c-0.9-1-1.3-2.6-1.3-4.8
		v-8.6h2.7v8.6c0,1.6,0.2,2.6,0.7,3.2c0.5,0.6,1.2,0.9,2.1,0.9c0.9,0,1.7-0.2,2.3-0.6c0.6-0.4,1.1-0.9,1.4-1.6v-10.5h2.7v14.6h-2.4
		L383.2,137.9z"/>
	<path class="st5" d="M396.6,127.8l-1.4-0.1c-0.7,0-1.3,0.2-1.8,0.5c-0.5,0.3-0.9,0.8-1.1,1.4v10.4h-2.7v-14.6h2.4l0.3,2.1
		c0.4-0.8,0.9-1.3,1.5-1.8c0.6-0.4,1.3-0.6,2.1-0.6c0.2,0,0.4,0,0.6,0c0.2,0,0.3,0.1,0.4,0.1L396.6,127.8z"/>
</g>
<g class="st4">
	<path class="st5" d="M419.2,122.3c0,0.8-0.2,1.1-0.7,1.1c-0.1,0-0.2-0.1-0.4-0.3c-0.2-0.4-0.6-0.6-1.1-0.6c-1.1,0-2.2,0.8-3.1,2.4
		c-0.2,0.3-0.8,1.5-1.8,3.4h0.4c2.6,0,4.4,0,5.3-0.1c0.1,0,0.1,0.1,0.1,0.1c0,0.2-0.9,0.5-2.6,0.8c-1.6,0.3-3,0.5-4,0.7
		c-0.8,1.6-1.7,3.4-2.7,5.5c-2.2,4.1-3.6,6.6-4.3,7.6c-2.1,3-4.2,4.5-6.2,4.5c-0.7,0-1.3-0.3-1.8-0.9c-0.5-0.6-0.8-1.3-0.8-2
		c0.1-0.3,0.2-0.4,0.3-0.4c0.1,0,0.1,0.1,0.1,0.3c0.1,0.6,0.4,1.1,0.7,1.5s0.7,0.5,1.1,0.5c2.1,0,3.9-1.3,5.6-3.8
		c1-1.5,2.3-4.1,4-7.9l2-4.7c-2.4,0-3.6-0.3-3.6-0.9c0-0.2,0.1-0.4,0.3-0.6c0.2-0.2,0.4-0.3,0.6-0.3l3.4,0.1
		c2.4-5.3,4.6-7.9,6.6-7.9c0.8,0,1.5,0.4,2.3,1.1C419.1,121.7,419.2,122,419.2,122.3z"/>
	<path class="st5" d="M414.4,140.5c-1.2,0-1.9-0.8-1.9-2.4c0-1.3,0.7-3.1,2.1-5.4s2.6-3.5,3.5-3.5c0.2,0,0.5,0.1,0.8,0.3
		c0.3,0.2,0.5,0.4,0.5,0.6c-0.1,0.2-0.3,0.4-0.4,0.6c-0.2,0.2-0.4,0.4-0.5,0.7c-0.2,0.2-0.5,0.6-0.8,1c-0.3,0.4-0.7,0.9-1,1.3
		c-1.8,2.4-2.7,4-2.7,4.9c0,0.9,0.3,1.3,0.9,1.3c0.5,0,1.2-0.3,2.1-0.8c2-1.3,3.7-2.6,4.8-4.2c0.4-0.6,0.7-0.8,0.9-0.8
		s0.2,0.1,0.2,0.3s-0.3,0.6-0.8,1.2c-0.6,0.6-1,1-1.3,1.4c-0.3,0.3-0.6,0.6-0.7,0.7c-0.1,0.1-0.3,0.3-0.7,0.6
		c-0.3,0.3-0.6,0.5-0.7,0.6c-0.2,0.1-0.4,0.3-0.7,0.5c-0.3,0.2-0.6,0.4-0.8,0.5c-0.2,0.1-0.5,0.2-0.8,0.4
		C415.7,140.4,415.1,140.5,414.4,140.5z M422.1,125.6c0.3,0.2,0.5,0.5,0.5,0.8c0,0.3-0.2,0.6-0.5,0.8c-0.3,0.2-0.6,0.3-1,0.3
		s-0.7-0.1-1-0.4c-0.3-0.3-0.5-0.6-0.5-0.9c0-0.7,0.5-1,1.4-1C421.4,125.2,421.7,125.4,422.1,125.6z"/>
	<path class="st5" d="M428.8,140.3c-1.8,0-2.7-1-2.7-3c0-1,0.3-2.1,0.8-3.4c0.5-1.2,1.1-2.2,1.7-3.1c-0.1,0-0.3,0-0.5,0
		c-0.6,0-1.1-0.4-1.5-1.2l-2.7,3.5c-1.5,1.9-2.4,2.8-2.6,2.8c-0.1,0-0.2,0-0.2-0.1c0-0.2,0.2-0.6,0.6-1.1c2.1-2.5,3.6-4.5,4.5-6.2
		c0.6-2.1,1.3-3.2,2.1-3.2c0.6,0,0.8,0.2,0.8,0.7s-0.3,1.1-0.9,1.9l-0.9,1.2c0,0.5,0.4,0.8,1.1,0.8c0.4,0,0.9-0.2,1.5-0.5l0.9-0.6
		c0,0,0.2,0,0.4,0s0.4,0.1,0.6,0.4c0.2,0.2,0.3,0.5,0.2,0.7l-2.5,3.2c-1.6,2-2.3,3.6-2.3,4.7c0,1.2,0.5,1.7,1.6,1.7
		c1.1,0,2.5-0.6,4.1-1.8c1-0.7,1.9-1.5,2.7-2.4c0.8-0.9,1.2-1.3,1.2-1.3c0.2,0,0.3,0.1,0.3,0.3c0,0.2-0.1,0.4-0.3,0.6l-1.2,1.3
		c-0.7,0.7-1.4,1.3-2.2,2C431.6,139.6,430,140.3,428.8,140.3z"/>
	<path class="st5" d="M442.4,139.6c-0.7,0.4-1.6,0.6-2.6,0.6c-1,0-1.8-0.3-2.4-1c-0.5-0.7-1-1.8-1.4-3.2c-0.4,0.4-0.7,0.7-0.9,0.7
		c-0.1,0-0.2-0.1-0.2-0.3s0.1-0.3,0.2-0.4c0.8-1,2.2-2.4,4.1-4.3l4.6-4.3c1.3-1.2,2.1-1.9,2.3-1.9c0.8,0,1.2,0.3,1.2,0.9
		c0,0.3-0.1,0.6-0.3,0.9c-0.2,0.3-0.4,0.5-0.5,0.7c-0.1,0.2-0.2,0.3-0.3,0.5c-0.4,0.8-0.9,2.3-1.3,4.7c-0.4,2.4-0.8,4-1,4.9
		c2,0,4.1-1.3,6.2-3.9c0.2-0.2,0.4-0.4,0.5-0.4c0.1,0,0.2,0.1,0.2,0.2s-0.1,0.4-0.3,0.6c-1.4,1.7-2.7,2.8-3.9,3.5
		c-0.7,0.4-1.7,0.7-2.8,0.9L442.4,139.6z M437.5,135.5c0,0.8,0.3,1.5,0.8,2c0.5,0.5,1.2,0.8,1.8,0.8s1.2-0.1,1.6-0.4
		c0.5-0.3,1-1.4,1.4-3.3c0.5-2,0.8-3.7,0.9-5.2l0.1-1.2c-1.3,1-2.8,2.3-4.3,3.9s-2.3,2.6-2.3,3.1
		C437.5,135.3,437.5,135.4,437.5,135.5z"/>
	<path class="st5" d="M458.3,128.4l5.2-0.1c0.1,0,0.1,0.1,0.1,0.1c0,0.2-1.5,0.5-4.5,0.9s-4.7,0.6-4.9,0.7c-0.5,0.4-1.3,1.6-2.5,3.7
		c-1.2,2.1-1.9,3.6-1.9,4.5c0,0.9,0.6,1.3,1.9,1.3c0.6,0,1.3-0.2,2.3-0.5c0.9-0.4,1.7-0.7,2.2-1c1.4-0.8,2.8-2.1,4.4-3.8
		c0.3-0.3,0.6-0.5,0.7-0.5c0.1,0,0.1,0.1,0.1,0.2c0,0.1-0.2,0.4-0.5,0.9c-1.3,1.6-2.7,2.8-4.3,3.8c-1.9,1.2-3.7,1.7-5.4,1.7
		c-0.8,0-1.4-0.2-1.8-0.5c-0.5-0.3-0.7-1-0.7-2c0-1,0.4-2.4,1.3-4.1c0.9-1.7,1.5-3,2-3.9c-0.3,0.1-0.6,0.1-0.9,0.1
		c-0.7,0-1.1-0.3-1.1-0.8c0-0.4,0.3-0.7,0.9-0.9c0.1,0,0.2,0,0.3,0h2.1c0.4-0.6,0.9-1.2,1.5-1.9c0.7-0.9,1.1-1.3,1.4-1.3
		c0.2,0,0.5,0.1,0.9,0.3s0.5,0.4,0.5,0.7s-0.6,1.1-1.7,2.4C456.4,128.4,457.3,128.4,458.3,128.4z"/>
</g>
<g class="st4">
	<path class="st5" d="M247.7,162.7h-7.8v8h-4.1V151h12.8v3.3h-8.8v5.1h7.8V162.7z"/>
	<path class="st5" d="M250.7,152.3c0-0.6,0.2-1.1,0.6-1.4c0.4-0.4,0.9-0.6,1.6-0.6c0.3,0,0.6,0,0.9,0.1c0.3,0.1,0.5,0.2,0.7,0.4
		c0.2,0.2,0.3,0.4,0.4,0.6c0.1,0.2,0.2,0.5,0.2,0.8c0,0.3-0.1,0.6-0.2,0.8s-0.2,0.5-0.4,0.6c-0.2,0.2-0.4,0.3-0.7,0.4
		c-0.3,0.1-0.6,0.1-0.9,0.1c-0.3,0-0.6,0-0.9-0.1c-0.3-0.1-0.5-0.2-0.7-0.4c-0.2-0.2-0.3-0.4-0.4-0.6S250.7,152.6,250.7,152.3z
		 M254.9,170.7H251v-14.6h3.9V170.7z"/>
	<path class="st5" d="M266.3,159.7c-0.2,0-0.4-0.1-0.7-0.1c-0.3,0-0.5,0-0.7,0c-0.8,0-1.4,0.1-1.9,0.4s-0.8,0.6-1,1.1v9.6h-3.9
		v-14.6h3.7l0.1,1.7c0.4-0.6,0.8-1.1,1.4-1.5c0.5-0.4,1.2-0.5,1.9-0.5c0.2,0,0.4,0,0.7,0.1c0.2,0,0.4,0.1,0.6,0.1L266.3,159.7z"/>
	<path class="st5" d="M276.1,166.7c0-0.2,0-0.4-0.1-0.6s-0.2-0.3-0.5-0.5c-0.2-0.1-0.5-0.3-0.9-0.4c-0.4-0.1-0.9-0.3-1.5-0.4
		c-0.7-0.2-1.4-0.4-2.1-0.6c-0.6-0.2-1.2-0.5-1.6-0.9c-0.5-0.4-0.8-0.8-1.1-1.3c-0.3-0.5-0.4-1-0.4-1.7c0-0.6,0.1-1.2,0.4-1.7
		c0.3-0.5,0.6-1,1.1-1.5s1.1-0.8,1.8-1s1.5-0.4,2.5-0.4c0.9,0,1.8,0.1,2.6,0.4c0.8,0.2,1.4,0.6,1.9,1c0.5,0.4,0.9,0.9,1.2,1.5
		s0.4,1.2,0.4,1.9H276c0-0.6-0.2-1-0.5-1.4s-0.9-0.5-1.7-0.5c-0.7,0-1.2,0.1-1.5,0.4c-0.4,0.3-0.5,0.7-0.5,1.1c0,0.2,0,0.4,0.1,0.6
		s0.2,0.3,0.5,0.5c0.2,0.1,0.5,0.3,0.8,0.4c0.3,0.1,0.8,0.2,1.3,0.3c0.8,0.2,1.5,0.3,2.2,0.6c0.7,0.2,1.3,0.5,1.8,0.9
		c0.5,0.4,0.9,0.8,1.2,1.3c0.3,0.5,0.4,1.1,0.4,1.8c0,0.6-0.1,1.2-0.4,1.8c-0.3,0.5-0.7,1-1.2,1.4c-0.5,0.4-1.2,0.7-1.9,0.9
		c-0.8,0.2-1.6,0.3-2.5,0.3c-1,0-1.9-0.1-2.7-0.4s-1.4-0.7-2-1.1c-0.5-0.5-0.9-1-1.2-1.6c-0.3-0.6-0.4-1.2-0.4-1.8h3.7
		c0,0.4,0.1,0.7,0.2,1c0.1,0.3,0.3,0.5,0.6,0.7c0.2,0.2,0.5,0.3,0.8,0.4s0.7,0.1,1,0.1c0.7,0,1.3-0.1,1.7-0.4
		S276.1,167.1,276.1,166.7z"/>
	<path class="st5" d="M287.1,152.5v3.6h2.5v2.9h-2.5v7.3c0,0.3,0,0.6,0.1,0.8s0.2,0.4,0.3,0.5c0.1,0.1,0.3,0.2,0.5,0.2
		c0.2,0,0.4,0.1,0.7,0.1c0.2,0,0.4,0,0.6,0c0.2,0,0.4,0,0.5-0.1v3c-0.3,0.1-0.7,0.2-1.1,0.2c-0.4,0.1-0.8,0.1-1.3,0.1
		c-0.6,0-1.2-0.1-1.7-0.2c-0.5-0.2-1-0.4-1.3-0.8c-0.4-0.3-0.6-0.8-0.8-1.3c-0.2-0.5-0.3-1.2-0.3-2v-7.7h-2.1v-2.9h2.1v-3.6H287.1z"
		/>
	<path class="st5" d="M303,163.8v6.9h-4.1V151h7.7c1.2,0,2.2,0.2,3.1,0.5c0.9,0.3,1.7,0.8,2.3,1.4c0.6,0.6,1.1,1.3,1.5,2.1
		c0.3,0.8,0.5,1.7,0.5,2.6c0,1-0.2,1.8-0.5,2.6c-0.3,0.8-0.8,1.4-1.5,2c-0.6,0.5-1.4,1-2.3,1.2c-0.9,0.3-2,0.4-3.1,0.4H303z
		 M303,160.5h3.6c0.6,0,1.1-0.1,1.5-0.2c0.4-0.1,0.8-0.3,1-0.6c0.3-0.3,0.5-0.6,0.6-0.9c0.1-0.4,0.2-0.8,0.2-1.2
		c0-0.4-0.1-0.8-0.2-1.2c-0.1-0.4-0.3-0.7-0.6-1c-0.3-0.3-0.6-0.5-1-0.7c-0.4-0.2-0.9-0.3-1.5-0.3H303V160.5z"/>
	<path class="st5" d="M324.9,170.7c-0.2-0.4-0.3-0.8-0.4-1.3c-0.4,0.4-0.9,0.8-1.5,1.1c-0.6,0.3-1.3,0.5-2.2,0.5
		c-0.7,0-1.4-0.1-2-0.3c-0.6-0.2-1.1-0.5-1.6-0.9c-0.4-0.4-0.8-0.8-1-1.4c-0.3-0.5-0.4-1.1-0.4-1.8c0-0.8,0.1-1.4,0.4-2
		c0.3-0.6,0.7-1.1,1.3-1.5c0.6-0.4,1.3-0.7,2.1-0.9c0.8-0.2,1.8-0.3,2.9-0.3h1.7v-0.8c0-0.7-0.2-1.2-0.5-1.6s-0.9-0.6-1.6-0.6
		c-0.7,0-1.2,0.2-1.5,0.5s-0.6,0.7-0.6,1.3h-3.9c0-0.6,0.1-1.2,0.4-1.8c0.3-0.6,0.7-1.1,1.2-1.5c0.5-0.4,1.2-0.8,2-1
		c0.8-0.2,1.6-0.4,2.6-0.4c0.8,0,1.6,0.1,2.4,0.3c0.7,0.2,1.3,0.5,1.9,1c0.5,0.4,0.9,1,1.2,1.6c0.3,0.6,0.4,1.4,0.4,2.2v6.2
		c0,0.4,0,0.8,0,1.1c0,0.3,0.1,0.6,0.1,0.9c0,0.3,0.1,0.5,0.2,0.7s0.2,0.4,0.3,0.6v0.2H324.9z M321.6,168c0.3,0,0.6,0,0.9-0.1
		c0.3-0.1,0.5-0.2,0.8-0.3c0.2-0.1,0.4-0.3,0.6-0.5c0.2-0.2,0.3-0.3,0.4-0.5V164h-1.6c-0.5,0-1,0.1-1.3,0.2
		c-0.4,0.1-0.7,0.3-0.9,0.5c-0.2,0.2-0.4,0.4-0.5,0.7c-0.1,0.3-0.2,0.6-0.2,0.9c0,0.5,0.2,0.9,0.5,1.2
		C320.6,167.8,321,168,321.6,168z"/>
	<path class="st5" d="M339.4,159.7c-0.2,0-0.4-0.1-0.7-0.1c-0.3,0-0.5,0-0.7,0c-0.8,0-1.4,0.1-1.9,0.4c-0.5,0.3-0.8,0.6-1,1.1v9.6
		h-3.9v-14.6h3.7l0.1,1.7c0.4-0.6,0.8-1.1,1.4-1.5c0.5-0.4,1.2-0.5,1.9-0.5c0.2,0,0.4,0,0.7,0.1c0.2,0,0.4,0.1,0.6,0.1L339.4,159.7z
		"/>
	<path class="st5" d="M346.7,152.5v3.6h2.5v2.9h-2.5v7.3c0,0.3,0,0.6,0.1,0.8c0.1,0.2,0.2,0.4,0.3,0.5c0.1,0.1,0.3,0.2,0.5,0.2
		c0.2,0,0.4,0.1,0.7,0.1c0.2,0,0.4,0,0.6,0c0.2,0,0.4,0,0.5-0.1v3c-0.3,0.1-0.7,0.2-1.1,0.2s-0.8,0.1-1.3,0.1
		c-0.6,0-1.2-0.1-1.7-0.2c-0.5-0.2-1-0.4-1.3-0.8c-0.4-0.3-0.6-0.8-0.8-1.3c-0.2-0.5-0.3-1.2-0.3-2v-7.7h-2.1v-2.9h2.1v-3.6H346.7z"
		/>
	<path class="st5" d="M356.8,165.2l2.7-9.1h4.2l-5.9,16.8c-0.1,0.4-0.3,0.8-0.5,1.2c-0.2,0.4-0.5,0.8-0.9,1.2s-0.8,0.7-1.3,0.9
		s-1.2,0.4-2,0.4c-0.2,0-0.3,0-0.5,0c-0.1,0-0.3,0-0.4,0c-0.1,0-0.3,0-0.4-0.1s-0.3-0.1-0.4-0.1v-3c0.1,0,0.2,0,0.3,0
		c0.1,0,0.2,0,0.3,0c0.4,0,0.7,0,1-0.1c0.3-0.1,0.5-0.2,0.7-0.3s0.4-0.3,0.5-0.5c0.1-0.2,0.3-0.4,0.4-0.7l0.4-1.1l-5.1-14.7h4.2
		L356.8,165.2z"/>
	<path class="st5" d="M372.4,170.7V151h6.1c1.3,0,2.5,0.2,3.6,0.7c1.1,0.5,2,1.1,2.8,1.9c0.8,0.8,1.4,1.8,1.8,3s0.7,2.4,0.7,3.8v0.9
		c0,1.4-0.2,2.7-0.7,3.8c-0.4,1.1-1.1,2.1-1.9,3c-0.8,0.8-1.8,1.5-2.9,1.9s-2.3,0.7-3.7,0.7H372.4z M376.4,154.3v13.1h2
		c1.6,0,2.8-0.5,3.7-1.6s1.3-2.6,1.3-4.5v-0.9c0-2-0.4-3.5-1.2-4.5c-0.8-1-2-1.5-3.6-1.5H376.4z"/>
	<path class="st5" d="M398.6,170.7c-0.2-0.4-0.3-0.8-0.4-1.3c-0.4,0.4-0.9,0.8-1.5,1.1c-0.6,0.3-1.3,0.5-2.2,0.5
		c-0.7,0-1.4-0.1-2-0.3c-0.6-0.2-1.1-0.5-1.6-0.9c-0.4-0.4-0.8-0.8-1-1.4s-0.4-1.1-0.4-1.8c0-0.8,0.1-1.4,0.4-2
		c0.3-0.6,0.7-1.1,1.3-1.5c0.6-0.4,1.3-0.7,2.1-0.9c0.8-0.2,1.8-0.3,2.9-0.3h1.7v-0.8c0-0.7-0.2-1.2-0.5-1.6
		c-0.3-0.4-0.9-0.6-1.6-0.6c-0.7,0-1.2,0.2-1.5,0.5c-0.4,0.3-0.6,0.7-0.6,1.3h-3.9c0-0.6,0.1-1.2,0.4-1.8c0.3-0.6,0.7-1.1,1.2-1.5
		c0.5-0.4,1.2-0.8,2-1c0.8-0.2,1.6-0.4,2.6-0.4c0.8,0,1.6,0.1,2.4,0.3c0.7,0.2,1.3,0.5,1.9,1c0.5,0.4,0.9,1,1.2,1.6
		c0.3,0.6,0.4,1.4,0.4,2.2v6.2c0,0.4,0,0.8,0,1.1s0.1,0.6,0.1,0.9c0,0.3,0.1,0.5,0.2,0.7s0.2,0.4,0.3,0.6v0.2H398.6z M395.4,168
		c0.3,0,0.6,0,0.9-0.1c0.3-0.1,0.5-0.2,0.8-0.3c0.2-0.1,0.4-0.3,0.6-0.5s0.3-0.3,0.4-0.5V164h-1.6c-0.5,0-1,0.1-1.3,0.2
		c-0.4,0.1-0.7,0.3-0.9,0.5c-0.2,0.2-0.4,0.4-0.5,0.7c-0.1,0.3-0.2,0.6-0.2,0.9c0,0.5,0.2,0.9,0.5,1.2S394.8,168,395.4,168z"/>
	<path class="st5" d="M409.6,152.5v3.6h2.5v2.9h-2.5v7.3c0,0.3,0,0.6,0.1,0.8c0.1,0.2,0.2,0.4,0.3,0.5c0.1,0.1,0.3,0.2,0.5,0.2
		c0.2,0,0.4,0.1,0.7,0.1c0.2,0,0.4,0,0.6,0c0.2,0,0.4,0,0.5-0.1v3c-0.3,0.1-0.7,0.2-1.1,0.2s-0.8,0.1-1.3,0.1
		c-0.6,0-1.2-0.1-1.7-0.2c-0.5-0.2-1-0.4-1.3-0.8c-0.4-0.3-0.6-0.8-0.8-1.3c-0.2-0.5-0.3-1.2-0.3-2v-7.7h-2.1v-2.9h2.1v-3.6H409.6z"
		/>
	<path class="st5" d="M422.8,170.7c-0.2-0.4-0.3-0.8-0.4-1.3c-0.4,0.4-0.9,0.8-1.5,1.1c-0.6,0.3-1.3,0.5-2.2,0.5
		c-0.7,0-1.4-0.1-2-0.3c-0.6-0.2-1.1-0.5-1.6-0.9c-0.4-0.4-0.8-0.8-1-1.4c-0.3-0.5-0.4-1.1-0.4-1.8c0-0.8,0.1-1.4,0.4-2
		c0.3-0.6,0.7-1.1,1.3-1.5c0.6-0.4,1.3-0.7,2.1-0.9c0.8-0.2,1.8-0.3,2.9-0.3h1.7v-0.8c0-0.7-0.2-1.2-0.5-1.6s-0.9-0.6-1.6-0.6
		c-0.7,0-1.2,0.2-1.5,0.5s-0.6,0.7-0.6,1.3h-3.9c0-0.6,0.1-1.2,0.4-1.8c0.3-0.6,0.7-1.1,1.2-1.5c0.5-0.4,1.2-0.8,2-1
		c0.8-0.2,1.6-0.4,2.6-0.4c0.8,0,1.6,0.1,2.4,0.3c0.7,0.2,1.3,0.5,1.9,1c0.5,0.4,0.9,1,1.2,1.6c0.3,0.6,0.4,1.4,0.4,2.2v6.2
		c0,0.4,0,0.8,0,1.1c0,0.3,0.1,0.6,0.1,0.9c0,0.3,0.1,0.5,0.2,0.7s0.2,0.4,0.3,0.6v0.2H422.8z M419.6,168c0.3,0,0.6,0,0.9-0.1
		c0.3-0.1,0.5-0.2,0.8-0.3c0.2-0.1,0.4-0.3,0.6-0.5c0.2-0.2,0.3-0.3,0.4-0.5V164h-1.6c-0.5,0-1,0.1-1.3,0.2
		c-0.4,0.1-0.7,0.3-0.9,0.5c-0.2,0.2-0.4,0.4-0.5,0.7c-0.1,0.3-0.2,0.6-0.2,0.9c0,0.5,0.2,0.9,0.5,1.2
		C418.5,167.8,419,168,419.6,168z"/>
	<path class="st5" d="M440.4,163.8v6.9h-4.1V151h7.7c1.2,0,2.2,0.2,3.1,0.5s1.7,0.8,2.3,1.4c0.6,0.6,1.1,1.3,1.5,2.1
		c0.3,0.8,0.5,1.7,0.5,2.6c0,1-0.2,1.8-0.5,2.6s-0.8,1.4-1.5,2c-0.6,0.5-1.4,1-2.3,1.2s-2,0.4-3.1,0.4H440.4z M440.4,160.5h3.6
		c0.6,0,1.1-0.1,1.5-0.2c0.4-0.1,0.8-0.3,1-0.6s0.5-0.6,0.6-0.9s0.2-0.8,0.2-1.2c0-0.4-0.1-0.8-0.2-1.2c-0.1-0.4-0.3-0.7-0.6-1
		s-0.6-0.5-1-0.7c-0.4-0.2-0.9-0.3-1.5-0.3h-3.6V160.5z"/>
	<path class="st5" d="M462.1,159.7c-0.2,0-0.4-0.1-0.7-0.1s-0.5,0-0.7,0c-0.8,0-1.4,0.1-1.9,0.4c-0.5,0.3-0.8,0.6-1,1.1v9.6h-3.9
		v-14.6h3.7l0.1,1.7c0.4-0.6,0.8-1.1,1.4-1.5c0.5-0.4,1.2-0.5,1.9-0.5c0.2,0,0.4,0,0.7,0.1s0.4,0.1,0.6,0.1L462.1,159.7z"/>
	<path class="st5" d="M462.9,163.3c0-1.1,0.2-2,0.5-3s0.8-1.7,1.3-2.4s1.3-1.2,2.2-1.6c0.9-0.4,1.8-0.6,2.9-0.6c1.1,0,2.1,0.2,3,0.6
		c0.9,0.4,1.6,0.9,2.2,1.6s1,1.4,1.3,2.4c0.3,0.9,0.5,1.9,0.5,3v0.3c0,1.1-0.2,2.1-0.5,3c-0.3,0.9-0.8,1.7-1.3,2.4s-1.3,1.2-2.2,1.6
		c-0.9,0.4-1.8,0.6-2.9,0.6s-2.1-0.2-3-0.6c-0.9-0.4-1.6-0.9-2.2-1.6s-1-1.4-1.3-2.4s-0.5-1.9-0.5-3V163.3z M466.8,163.5
		c0,0.6,0.1,1.2,0.2,1.7c0.1,0.5,0.3,1,0.5,1.4c0.2,0.4,0.5,0.7,0.9,0.9c0.4,0.2,0.9,0.3,1.4,0.3c0.5,0,1-0.1,1.4-0.3
		c0.4-0.2,0.7-0.5,0.9-0.9s0.4-0.8,0.5-1.4c0.1-0.5,0.2-1.1,0.2-1.7v-0.3c0-0.6-0.1-1.1-0.2-1.6c-0.1-0.5-0.3-1-0.5-1.4
		c-0.2-0.4-0.6-0.7-0.9-0.9c-0.4-0.2-0.9-0.3-1.4-0.3c-0.5,0-1,0.1-1.4,0.3s-0.7,0.5-0.9,0.9c-0.2,0.4-0.4,0.8-0.5,1.4
		c-0.1,0.5-0.2,1.1-0.2,1.6V163.5z"/>
	<path class="st5" d="M478.6,163.3c0-1.1,0.1-2.1,0.4-3c0.3-0.9,0.7-1.7,1.2-2.4c0.5-0.7,1.1-1.2,1.9-1.5c0.7-0.4,1.6-0.5,2.5-0.5
		c0.9,0,1.6,0.1,2.2,0.4c0.6,0.3,1.1,0.7,1.5,1.2l0.2-1.4h3.5v14.1c0,1-0.2,1.9-0.5,2.7c-0.3,0.8-0.8,1.4-1.4,2s-1.4,0.9-2.2,1.2
		c-0.9,0.3-1.8,0.4-2.9,0.4c-0.5,0-0.9,0-1.4-0.1s-1-0.2-1.5-0.4s-1-0.4-1.4-0.7c-0.4-0.3-0.8-0.6-1.1-1l1.7-2.4
		c0.5,0.5,1,0.9,1.6,1.2c0.6,0.3,1.2,0.4,2,0.4c1,0,1.8-0.3,2.4-0.8c0.6-0.6,0.9-1.3,0.9-2.4v-0.8c-0.4,0.5-0.9,0.9-1.5,1.1
		s-1.3,0.4-2,0.4c-0.9,0-1.7-0.2-2.5-0.6c-0.7-0.4-1.3-0.9-1.9-1.5c-0.5-0.7-0.9-1.4-1.2-2.3c-0.3-0.9-0.4-1.9-0.4-3V163.3z
		 M482.5,163.6c0,0.6,0.1,1.1,0.2,1.7s0.3,1,0.5,1.3c0.2,0.4,0.6,0.7,0.9,0.9c0.4,0.2,0.8,0.3,1.3,0.3c0.6,0,1.1-0.1,1.6-0.4
		s0.8-0.6,1-1v-6.1c-0.3-0.4-0.6-0.8-1-1c-0.4-0.2-0.9-0.3-1.5-0.3c-0.5,0-1,0.1-1.3,0.3s-0.7,0.5-0.9,0.9s-0.4,0.8-0.6,1.4
		c-0.1,0.5-0.2,1.1-0.2,1.7V163.6z"/>
	<path class="st5" d="M503.2,159.7c-0.2,0-0.4-0.1-0.7-0.1c-0.3,0-0.5,0-0.7,0c-0.8,0-1.4,0.1-1.9,0.4c-0.5,0.3-0.8,0.6-1,1.1v9.6
		H495v-14.6h3.7l0.1,1.7c0.4-0.6,0.8-1.1,1.4-1.5c0.5-0.4,1.2-0.5,1.9-0.5c0.2,0,0.4,0,0.7,0.1c0.2,0,0.4,0.1,0.6,0.1L503.2,159.7z"
		/>
	<path class="st5" d="M513.1,170.7c-0.2-0.4-0.3-0.8-0.4-1.3c-0.4,0.4-0.9,0.8-1.5,1.1c-0.6,0.3-1.3,0.5-2.2,0.5
		c-0.7,0-1.4-0.1-2-0.3c-0.6-0.2-1.1-0.5-1.6-0.9c-0.4-0.4-0.8-0.8-1-1.4s-0.4-1.1-0.4-1.8c0-0.8,0.1-1.4,0.4-2
		c0.3-0.6,0.7-1.1,1.3-1.5c0.6-0.4,1.3-0.7,2.1-0.9c0.8-0.2,1.8-0.3,2.9-0.3h1.7v-0.8c0-0.7-0.2-1.2-0.5-1.6
		c-0.3-0.4-0.9-0.6-1.6-0.6c-0.7,0-1.2,0.2-1.5,0.5c-0.4,0.3-0.6,0.7-0.6,1.3h-3.9c0-0.6,0.1-1.2,0.4-1.8c0.3-0.6,0.7-1.1,1.2-1.5
		c0.5-0.4,1.2-0.8,2-1c0.8-0.2,1.6-0.4,2.6-0.4c0.8,0,1.6,0.1,2.4,0.3c0.7,0.2,1.3,0.5,1.9,1c0.5,0.4,0.9,1,1.2,1.6
		c0.3,0.6,0.4,1.4,0.4,2.2v6.2c0,0.4,0,0.8,0,1.1s0.1,0.6,0.1,0.9c0,0.3,0.1,0.5,0.2,0.7s0.2,0.4,0.3,0.6v0.2H513.1z M509.9,168
		c0.3,0,0.6,0,0.9-0.1c0.3-0.1,0.5-0.2,0.8-0.3c0.2-0.1,0.4-0.3,0.6-0.5s0.3-0.3,0.4-0.5V164H511c-0.5,0-1,0.1-1.3,0.2
		c-0.4,0.1-0.7,0.3-0.9,0.5c-0.2,0.2-0.4,0.4-0.5,0.7c-0.1,0.3-0.2,0.6-0.2,0.9c0,0.5,0.2,0.9,0.5,1.2S509.3,168,509.9,168z"/>
	<path class="st5" d="M523.1,156.1l0.1,1.6c0.5-0.6,1.1-1.1,1.8-1.4c0.7-0.3,1.5-0.5,2.4-0.5c0.9,0,1.6,0.2,2.3,0.5
		c0.7,0.4,1.2,0.9,1.6,1.7c0.5-0.7,1.1-1.2,1.8-1.6c0.7-0.4,1.6-0.6,2.6-0.6c0.7,0,1.4,0.1,1.9,0.3s1.1,0.5,1.5,1s0.7,1,0.9,1.7
		s0.3,1.6,0.3,2.6v9.3h-3.9v-9.3c0-0.5-0.1-0.9-0.2-1.2c-0.1-0.3-0.2-0.6-0.4-0.7s-0.4-0.3-0.7-0.4c-0.3-0.1-0.6-0.1-0.9-0.1
		c-0.6,0-1.1,0.2-1.5,0.5c-0.4,0.3-0.7,0.7-0.9,1.2c0,0,0,0.1,0,0.1c0,0.1,0,0.1,0,0.1v9.7H528v-9.3c0-0.5,0-0.9-0.1-1.2
		c-0.1-0.3-0.2-0.6-0.4-0.7c-0.2-0.2-0.4-0.3-0.7-0.4c-0.3-0.1-0.6-0.1-0.9-0.1c-0.6,0-1.1,0.1-1.5,0.4c-0.4,0.2-0.7,0.6-0.9,1v10.3
		h-3.9v-14.6H523.1z"/>
</g>
</svg>
